Bodoni-96-Medium-Italic.ufo
<glyph name="dollar" format="2">
  <advance width="2364"/>
  <unicode hex="0024"/>
  <outline>
    <contour>
      <point x="1507" y="3400" type="line"/>
      <point x="1515" y="3400" type="line"/>
      <point x="655" y="-328" type="line"/>
      <point x="647" y="-328" type="line"/>
    </contour>
    <contour>
      <point x="1864" y="3400" type="line"/>
      <point x="1872" y="3400" type="line"/>
      <point x="1012" y="-328" type="line"/>
      <point x="1003" y="-328" type="line"/>
    </contour>
    <contour>
      <point x="922" y="2540" type="curve" smooth="yes"/>
      <point x="922" y="1783"/>
      <point x="2212" y="2028"/>
      <point x="2212" y="932" type="curve" smooth="yes"/>
      <point x="2212" y="307"/>
      <point x="1642" y="-62"/>
      <point x="1064" y="-62" type="curve" smooth="yes"/>
      <point x="506" y="-62"/>
      <point x="122" y="303"/>
      <point x="122" y="630" type="curve" smooth="yes"/>
      <point x="122" y="828"/>
      <point x="240" y="992"/>
      <point x="440" y="992" type="curve" smooth="yes"/>
      <point x="583" y="992"/>
      <point x="734" y="886"/>
      <point x="734" y="696" type="curve" smooth="yes"/>
      <point x="734" y="501"/>
      <point x="584" y="394"/>
      <point x="424" y="394" type="curve" smooth="yes"/>
      <point x="266" y="394"/>
      <point x="160" y="507"/>
      <point x="136" y="594" type="curve"/>
      <point x="166" y="254"/>
      <point x="566" y="-54"/>
      <point x="1064" y="-54" type="curve" smooth="yes"/>
      <point x="1498" y="-54"/>
      <point x="1761" y="301"/>
      <point x="1761" y="645" type="curve" smooth="yes"/>
      <point x="1761" y="1484"/>
      <point x="502" y="1137"/>
      <point x="502" y="2171" type="curve" smooth="yes"/>
      <point x="502" y="2714"/>
      <point x="1048" y="3112"/>
      <point x="1554" y="3112" type="curve" smooth="yes"/>
      <point x="1996" y="3112"/>
      <point x="2406" y="2815"/>
      <point x="2406" y="2473" type="curve" smooth="yes"/>
      <point x="2406" y="2285"/>
      <point x="2292" y="2120"/>
      <point x="2092" y="2120" type="curve" smooth="yes"/>
      <point x="1949" y="2120"/>
      <point x="1796" y="2220"/>
      <point x="1796" y="2418" type="curve" smooth="yes"/>
      <point x="1796" y="2602"/>
      <point x="1956" y="2709"/>
      <point x="2106" y="2709" type="curve" smooth="yes"/>
      <point x="2267" y="2709"/>
      <point x="2362" y="2607"/>
      <point x="2391" y="2515" type="curve"/>
      <point x="2365" y="2821"/>
      <point x="2000" y="3095"/>
      <point x="1586" y="3095" type="curve" smooth="yes"/>
      <point x="1152" y="3095"/>
      <point x="922" y="2833"/>
    </contour>
  </outline>
</glyph>
<glyph name="percent" format="2">
  <advance width="2000"/>
  <unicode hex="0025"/>
  <outline>
    <contour>
      <point x="1460" y="-20" type="curve" smooth="yes"/>
      <point x="1264" y="-20"/>
      <point x="1135" y="74"/>
      <point x="1135" y="280" type="curve" smooth="yes"/>
      <point x="1135" y="606"/>
      <point x="1364" y="860"/>
      <point x="1640" y="860" type="curve" smooth="yes"/>
      <point x="1836" y="860"/>
      <point x="1965" y="766"/>
      <point x="1965" y="560" type="curve" smooth="yes"/>
      <point x="1965" y="234"/>
      <point x="1736" y="-20"/>
    </contour>
    <contour>
      <point x="1645" y="857" type="curve" smooth="yes"/>
      <point x="1512" y="857"/>
      <point x="1370" y="437"/>
      <point x="1370" y="198" type="curve" smooth="yes"/>
      <point x="1370" y="79"/>
      <point x="1397" y="-16"/>
      <point x="1455" y="-16" type="curve" smooth="yes"/>
      <point x="1588" y="-16"/>
      <point x="1728" y="379"/>
      <point x="1728" y="618" type="curve" smooth="yes"/>
      <point x="1728" y="737"/>
      <point x="1703" y="857"/>
    </contour>
    <contour>
      <point x="1786" y="1500" type="line"/>
      <point x="1790" y="1500" type="line"/>
      <point x="390" y="0" type="line"/>
      <point x="386" y="0" type="line"/>
    </contour>
    <contour>
      <point x="550" y="640" type="curve" smooth="yes"/>
      <point x="354" y="640"/>
      <point x="225" y="734"/>
      <point x="225" y="940" type="curve" smooth="yes"/>
      <point x="225" y="1266"/>
      <point x="454" y="1520"/>
      <point x="730" y="1520" type="curve" smooth="yes"/>
      <point x="926" y="1520"/>
      <point x="1055" y="1426"/>
      <point x="1055" y="1220" type="curve" smooth="yes"/>
      <point x="1055" y="894"/>
      <point x="826" y="640"/>
    </contour>
    <contour>
      <point x="735" y="1516" type="curve" smooth="yes"/>
      <point x="602" y="1516"/>
      <point x="460" y="1097"/>
      <point x="460" y="858" type="curve" smooth="yes"/>
      <point x="460" y="739"/>
      <point x="487" y="644"/>
      <point x="545" y="644" type="curve" smooth="yes"/>
      <point x="678" y="644"/>
      <point x="817" y="1066"/>
      <point x="817" y="1305" type="curve" smooth="yes"/>
      <point x="817" y="1424"/>
      <point x="793" y="1516"/>
    </contour>
  </outline>
</glyph>
<glyph name="ampersand" format="2">
  <advance width="1626"/>
  <unicode hex="0026"/>
  <outline>
    <contour>
      <point x="805" y="896" type="line"/>
      <point x="982" y="974"/>
      <point x="1057" y="1138"/>
      <point x="1057" y="1280" type="curve" smooth="yes"/>
      <point x="1057" y="1401"/>
      <point x="1025" y="1516"/>
      <point x="929" y="1516" type="curve" smooth="yes"/>
      <point x="783" y="1516"/>
      <point x="721" y="1366"/>
      <point x="721" y="1240" type="curve" smooth="yes"/>
      <point x="721" y="1170"/>
      <point x="744" y="1074"/>
      <point x="804" y="940" type="curve" smooth="yes"/>
      <point x="1137" y="190" type="line" smooth="yes"/>
      <point x="1171" y="107"/>
      <point x="1210" y="10"/>
      <point x="1290" y="10" type="curve" smooth="yes"/>
      <point x="1367" y="10"/>
      <point x="1443" y="61"/>
      <point x="1479" y="142" type="curve"/>
      <point x="1483" y="140" type="line"/>
      <point x="1445" y="52"/>
      <point x="1348" y="-20"/>
      <point x="1180" y="-20" type="curve" smooth="yes"/>
      <point x="1034" y="-20"/>
      <point x="931" y="36"/>
      <point x="852" y="197" type="curve" smooth="yes"/>
      <point x="518" y="940" type="line" smooth="yes"/>
      <point x="478" y="1023"/>
      <point x="461" y="1096"/>
      <point x="461" y="1166" type="curve" smooth="yes"/>
      <point x="461" y="1366"/>
      <point x="666" y="1520"/>
      <point x="938" y="1520" type="curve" smooth="yes"/>
      <point x="1112" y="1520"/>
      <point x="1295" y="1452"/>
      <point x="1295" y="1279" type="curve" smooth="yes"/>
      <point x="1295" y="1062"/>
      <point x="1035" y="981"/>
      <point x="807" y="894" type="curve"/>
    </contour>
    <contour>
      <point x="590" y="803" type="curve"/>
      <point x="591" y="800" type="line"/>
      <point x="465" y="726"/>
      <point x="305" y="612"/>
      <point x="305" y="350" type="curve" smooth="yes"/>
      <point x="305" y="207"/>
      <point x="402" y="0"/>
      <point x="600" y="0" type="curve" smooth="yes"/>
      <point x="1078" y="0"/>
      <point x="1586" y="447"/>
      <point x="1586" y="718" type="curve" smooth="yes"/>
      <point x="1586" y="749" type="line"/>
      <point x="1571" y="675"/>
      <point x="1504" y="620"/>
      <point x="1426" y="620" type="curve" smooth="yes"/>
      <point x="1336" y="620"/>
      <point x="1281" y="694"/>
      <point x="1281" y="759" type="curve" smooth="yes"/>
      <point x="1281" y="834"/>
      <point x="1346" y="898"/>
      <point x="1430" y="898" type="curve" smooth="yes"/>
      <point x="1532" y="898"/>
      <point x="1593" y="819"/>
      <point x="1593" y="727" type="curve" smooth="yes"/>
      <point x="1593" y="447"/>
      <point x="1088" y="-20"/>
      <point x="513" y="-20" type="curve" smooth="yes"/>
      <point x="232" y="-20"/>
      <point x="40" y="89"/>
      <point x="40" y="304" type="curve" smooth="yes"/>
      <point x="40" y="603"/>
      <point x="294" y="681"/>
    </contour>
  </outline>
</glyph>
<glyph name="parenleft" format="2">
  <advance width="734"/>
  <unicode hex="0028"/>
  <outline>
    <contour>
      <point x="555" y="-336" type="curve"/>
      <point x="552" y="-340" type="line"/>
      <point x="326" y="-240"/>
      <point x="166" y="24"/>
      <point x="166" y="370" type="curve" smooth="yes"/>
      <point x="166" y="956"/>
      <point x="592" y="1440"/>
      <point x="978" y="1600" type="curve"/>
      <point x="979" y="1596" type="line"/>
      <point x="671" y="1416"/>
      <point x="393" y="719"/>
      <point x="393" y="245" type="curve" smooth="yes"/>
      <point x="393" y="-64"/>
      <point x="436" y="-216"/>
    </contour>
  </outline>
</glyph>
<glyph name="asterisk" format="2">
  <advance width="1269"/>
  <unicode hex="002A"/>
  <outline>
    <contour>
      <point x="527" y="1327" type="curve" smooth="yes"/>
      <point x="649" y="1233"/>
      <point x="571" y="1110"/>
      <point x="757" y="1005" type="curve"/>
      <point x="755" y="1001" type="line"/>
      <point x="565" y="1111"/>
      <point x="516" y="1030"/>
      <point x="378" y="1090" type="curve" smooth="yes"/>
      <point x="290" y="1129"/>
      <point x="255" y="1220"/>
      <point x="297" y="1294" type="curve" smooth="yes"/>
      <point x="342" y="1374"/>
      <point x="447" y="1381"/>
    </contour>
    <contour>
      <point x="298" y="902" type="curve" smooth="yes"/>
      <point x="440" y="951"/>
      <point x="565" y="895"/>
      <point x="755" y="1005" type="curve"/>
      <point x="757" y="1001" type="line"/>
      <point x="567" y="891"/>
      <point x="531" y="782"/>
      <point x="411" y="686" type="curve" smooth="yes"/>
      <point x="334" y="629"/>
      <point x="238" y="619"/>
      <point x="193" y="698" type="curve" smooth="yes"/>
      <point x="149" y="773"/>
      <point x="202" y="870"/>
    </contour>
    <contour>
      <point x="554" y="604" type="curve" smooth="yes"/>
      <point x="597" y="755"/>
      <point x="725" y="815"/>
      <point x="755" y="1005" type="curve"/>
      <point x="759" y="1005" type="line"/>
      <point x="719" y="776"/>
      <point x="810" y="749"/>
      <point x="810" y="599" type="curve" smooth="yes"/>
      <point x="810" y="500"/>
      <point x="748" y="426"/>
      <point x="663" y="426" type="curve" smooth="yes"/>
      <point x="583" y="426"/>
      <point x="521" y="496"/>
    </contour>
    <contour>
      <point x="989" y="688" type="curve" smooth="yes"/>
      <point x="867" y="782"/>
      <point x="941" y="896"/>
      <point x="755" y="1001" type="curve"/>
      <point x="757" y="1005" type="line"/>
      <point x="947" y="895"/>
      <point x="996" y="977"/>
      <point x="1135" y="920" type="curve" smooth="yes"/>
      <point x="1223" y="881"/>
      <point x="1258" y="790"/>
      <point x="1216" y="716" type="curve" smooth="yes"/>
      <point x="1171" y="638"/>
      <point x="1066" y="635"/>
    </contour>
    <contour>
      <point x="1216" y="1108" type="curve" smooth="yes"/>
      <point x="1074" y="1059"/>
      <point x="947" y="1111"/>
      <point x="757" y="1001" type="curve"/>
      <point x="755" y="1005" type="line"/>
      <point x="945" y="1115"/>
      <point x="982" y="1228"/>
      <point x="1102" y="1324" type="curve" smooth="yes"/>
      <point x="1179" y="1381"/>
      <point x="1275" y="1391"/>
      <point x="1320" y="1312" type="curve" smooth="yes"/>
      <point x="1364" y="1237"/>
      <point x="1312" y="1140"/>
    </contour>
    <contour>
      <point x="960" y="1406" type="curve" smooth="yes"/>
      <point x="921" y="1255"/>
      <point x="789" y="1195"/>
      <point x="759" y="1005" type="curve"/>
      <point x="755" y="1005" type="line"/>
      <point x="795" y="1234"/>
      <point x="704" y="1261"/>
      <point x="704" y="1411" type="curve" smooth="yes"/>
      <point x="704" y="1510"/>
      <point x="766" y="1584"/>
      <point x="851" y="1584" type="curve" smooth="yes"/>
      <point x="931" y="1584"/>
      <point x="988" y="1516"/>
    </contour>
  </outline>
</glyph>
<glyph name="plus" format="2">
  <advance width="2170"/>
  <unicode hex="002B"/>
  <outline>
    <contour>
      <point x="1020" y="450" type="line"/>
      <point x="1410" y="2130" type="line"/>
      <point x="1418" y="2130" type="line"/>
      <point x="1028" y="450" type="line"/>
    </contour>
    <contour>
      <point x="380" y="1298" type="line"/>
      <point x="2060" y="1298" type="line"/>
      <point x="2060" y="1290" type="line"/>
      <point x="380" y="1290" type="line"/>
    </contour>
  </outline>
</glyph>
<glyph name="comma" format="2">
  <advance width="489"/>
  <unicode hex="002C"/>
  <outline>
    <contour>
      <point x="35" y="123" type="curve" smooth="yes"/>
      <point x="35" y="204"/>
      <point x="108" y="276"/>
      <point x="199" y="276" type="curve" smooth="yes"/>
      <point x="292" y="276"/>
      <point x="365" y="214"/>
      <point x="365" y="88" type="curve" smooth="yes"/>
      <point x="365" y="-126"/>
      <point x="138" y="-312"/>
      <point x="-72" y="-312" type="curve"/>
      <point x="-72" y="-308" type="line"/>
      <point x="125" y="-308"/>
      <point x="376" y="-123"/>
      <point x="358" y="116" type="curve"/>
      <point x="351" y="44"/>
      <point x="284" y="-20"/>
      <point x="187" y="-20" type="curve" smooth="yes"/>
      <point x="86" y="-20"/>
      <point x="35" y="47"/>
    </contour>
  </outline>
</glyph>
<glyph name="period" format="1">
  <advance width="941"/>
  <unicode hex="002E"/>
  <outline>
    <contour>
      <point x="71" y="266" type="curve" smooth="yes"/>
      <point x="71" y="436"/>
      <point x="208" y="573"/>
      <point x="378" y="573" type="curve" smooth="yes"/>
      <point x="548" y="573"/>
      <point x="686" y="436"/>
      <point x="686" y="266" type="curve" smooth="yes"/>
      <point x="686" y="96"/>
      <point x="548" y="-40"/>
      <point x="378" y="-40" type="curve" smooth="yes"/>
      <point x="208" y="-40"/>
      <point x="71" y="96"/>
    </contour>
  </outline>
</glyph>
<glyph name="zero" format="2">
  <advance width="1279"/>
  <unicode hex="0030"/>
  <outline>
    <contour>
      <point x="904" y="1520" type="curve" smooth="yes"/>
      <point x="1170" y="1520"/>
      <point x="1326" y="1305"/>
      <point x="1326" y="1062" type="curve" smooth="yes"/>
      <point x="1326" y="484"/>
      <point x="956" y="-20"/>
      <point x="564" y="-20" type="curve" smooth="yes"/>
      <point x="298" y="-20"/>
      <point x="142" y="195"/>
      <point x="142" y="438" type="curve" smooth="yes"/>
      <point x="142" y="1016"/>
      <point x="512" y="1520"/>
    </contour>
    <contour>
      <point x="904" y="1516" type="curve" smooth="yes"/>
      <point x="607" y="1516"/>
      <point x="388" y="690"/>
      <point x="388" y="323" type="curve" smooth="yes"/>
      <point x="388" y="161"/>
      <point x="415" y="-16"/>
      <point x="564" y="-16" type="curve" smooth="yes"/>
      <point x="861" y="-16"/>
      <point x="1080" y="820"/>
      <point x="1080" y="1177" type="curve" smooth="yes"/>
      <point x="1080" y="1339"/>
      <point x="1053" y="1516"/>
    </contour>
  </outline>
</glyph>
<glyph name="one" format="2">
  <advance width="1903"/>
  <unicode hex="0031"/>
  <outline>
    <contour>
      <point x="-164" y="8" type="line"/>
      <point x="1249" y="8" type="line"/>
      <point x="1249" y="0" type="line"/>
      <point x="-164" y="0" type="line"/>
    </contour>
    <contour>
      <point x="978" y="3064" type="line"/>
      <point x="500" y="3064" type="line"/>
      <point x="500" y="3072" type="line"/>
      <point x="1495" y="3072" type="line"/>
      <point x="799" y="0" type="line"/>
      <point x="286" y="0" type="line"/>
    </contour>
  </outline>
</glyph>
<glyph name="two" format="2">
  <advance width="1154"/>
  <unicode hex="0032"/>
  <outline>
    <contour>
      <point x="189" y="1064" type="curve"/>
      <point x="200" y="1125"/>
      <point x="260" y="1189"/>
      <point x="352" y="1189" type="curve" smooth="yes"/>
      <point x="426" y="1189"/>
      <point x="493" y="1136"/>
      <point x="493" y="1054" type="curve" smooth="yes"/>
      <point x="493" y="959"/>
      <point x="418" y="899"/>
      <point x="338" y="899" type="curve" smooth="yes"/>
      <point x="258" y="899"/>
      <point x="184" y="954"/>
      <point x="184" y="1058" type="curve" smooth="yes"/>
      <point x="184" y="1292"/>
      <point x="416" y="1520"/>
      <point x="710" y="1520" type="curve" smooth="yes"/>
      <point x="942" y="1520"/>
      <point x="1129" y="1415"/>
      <point x="1129" y="1205" type="curve" smooth="yes"/>
      <point x="1129" y="985"/>
      <point x="798" y="791"/>
      <point x="659" y="690" type="curve" smooth="yes"/>
      <point x="71" y="240" type="line"/>
      <point x="938" y="240" type="line"/>
      <point x="970" y="390" type="line"/>
      <point x="975" y="390" type="line"/>
      <point x="888" y="0" type="line"/>
      <point x="-82" y="0" type="line"/>
      <point x="-44" y="165" type="line"/>
      <point x="518" y="587" type="line" smooth="yes"/>
      <point x="718" y="736"/>
      <point x="868" y="971"/>
      <point x="868" y="1164" type="curve" smooth="yes"/>
      <point x="868" y="1362"/>
      <point x="797" y="1492"/>
      <point x="626" y="1492" type="curve" smooth="yes"/>
      <point x="400" y="1492"/>
      <point x="191" y="1273"/>
    </contour>
  </outline>
</glyph>
<glyph name="three" format="2">
  <advance width="1096"/>
  <unicode hex="0033"/>
  <outline>
    <contour>
      <point x="288" y="1215" type="curve" smooth="yes"/>
      <point x="288" y="1369"/>
      <point x="468" y="1518"/>
      <point x="712" y="1518" type="curve" smooth="yes"/>
      <point x="914" y="1518"/>
      <point x="1117" y="1457"/>
      <point x="1117" y="1232" type="curve" smooth="yes"/>
      <point x="1117" y="1017"/>
      <point x="913" y="811"/>
      <point x="451" y="811" type="curve"/>
      <point x="451" y="816" type="line"/>
      <point x="769" y="816"/>
      <point x="860" y="1099"/>
      <point x="860" y="1257" type="curve" smooth="yes"/>
      <point x="860" y="1420"/>
      <point x="810" y="1506"/>
      <point x="662" y="1506" type="curve" smooth="yes"/>
      <point x="499" y="1506"/>
      <point x="330" y="1399"/>
      <point x="300" y="1267" type="curve"/>
      <point x="314" y="1295"/>
      <point x="366" y="1338"/>
      <point x="432" y="1338" type="curve" smooth="yes"/>
      <point x="507" y="1338"/>
      <point x="565" y="1283"/>
      <point x="565" y="1203" type="curve" smooth="yes"/>
      <point x="565" y="1113"/>
      <point x="492" y="1066"/>
      <point x="427" y="1066" type="curve" smooth="yes"/>
      <point x="352" y="1066"/>
      <point x="288" y="1123"/>
    </contour>
    <contour>
      <point x="10" y="295" type="curve" smooth="yes"/>
      <point x="10" y="392"/>
      <point x="70" y="452"/>
      <point x="155" y="452" type="curve" smooth="yes"/>
      <point x="230" y="452"/>
      <point x="288" y="397"/>
      <point x="288" y="315" type="curve" smooth="yes"/>
      <point x="288" y="236"/>
      <point x="222" y="180"/>
      <point x="149" y="180" type="curve" smooth="yes"/>
      <point x="77" y="180"/>
      <point x="28" y="227"/>
      <point x="16" y="271" type="curve"/>
      <point x="24" y="119"/>
      <point x="177" y="-14"/>
      <point x="412" y="-14" type="curve" smooth="yes"/>
      <point x="650" y="-14"/>
      <point x="755" y="267"/>
      <point x="755" y="485" type="curve" smooth="yes"/>
      <point x="755" y="648"/>
      <point x="704" y="811"/>
      <point x="451" y="811" type="curve"/>
      <point x="451" y="815" type="line"/>
      <point x="873" y="815"/>
      <point x="1012" y="685"/>
      <point x="1012" y="460" type="curve" smooth="yes"/>
      <point x="1012" y="185"/>
      <point x="724" y="-20"/>
      <point x="432" y="-20" type="curve" smooth="yes"/>
      <point x="143" y="-20"/>
      <point x="10" y="147"/>
    </contour>
  </outline>
</glyph>
<glyph name="four" format="2">
  <advance width="2570"/>
  <unicode hex="0034"/>
  <outline>
    <contour>
      <point x="2180" y="8" type="line"/>
      <point x="2180" y="0" type="line"/>
      <point x="973" y="0" type="line"/>
      <point x="973" y="8" type="line"/>
    </contour>
    <contour>
      <point x="2530" y="3072" type="line"/>
      <point x="1832" y="0" type="line"/>
      <point x="1321" y="0" type="line"/>
      <point x="1965" y="2933" type="line"/>
      <point x="182" y="884" type="line"/>
      <point x="2488" y="884" type="line"/>
      <point x="2488" y="876" type="line"/>
      <point x="164" y="876" type="line"/>
      <point x="2080" y="3072" type="line"/>
    </contour>
  </outline>
</glyph>
<glyph name="five" format="1">
  <advance width="2178"/>
  <unicode hex="0035"/>
  <outline>
    <contour>
      <point x="2044" y="1136" type="curve" smooth="yes"/>
      <point x="2044" y="481"/>
      <point x="1379" y="-40"/>
      <point x="761" y="-40" type="curve" smooth="yes"/>
      <point x="302" y="-40"/>
      <point x="0" y="244"/>
      <point x="0" y="559" type="curve" smooth="yes"/>
      <point x="0" y="747"/>
      <point x="132" y="864"/>
      <point x="285" y="864" type="curve" smooth="yes"/>
      <point x="418" y="864"/>
      <point x="569" y="767"/>
      <point x="569" y="583" type="curve" smooth="yes"/>
      <point x="569" y="409"/>
      <point x="434" y="308"/>
      <point x="285" y="308" type="curve" smooth="yes"/>
      <point x="138" y="308"/>
      <point x="32" y="407"/>
      <point x="12" y="492" type="curve"/>
      <point x="50" y="207"/>
      <point x="346" y="-27"/>
      <point x="721" y="-27" type="curve" smooth="yes"/>
      <point x="1249" y="-27"/>
      <point x="1502" y="721"/>
      <point x="1502" y="1187" type="curve" smooth="yes"/>
      <point x="1502" y="1552"/>
      <point x="1384" y="1873"/>
      <point x="1091" y="1873" type="curve" smooth="yes"/>
      <point x="767" y="1873"/>
      <point x="465" y="1727"/>
      <point x="323" y="1513" type="curve"/>
      <point x="315" y="1513" type="line"/>
      <point x="463" y="1747"/>
      <point x="799" y="1895"/>
      <point x="1171" y="1895" type="curve" smooth="yes"/>
      <point x="1687" y="1895"/>
      <point x="2044" y="1668"/>
    </contour>
    <contour>
      <point x="2248" y="2581" type="line"/>
      <point x="690" y="2581" type="line"/>
      <point x="319" y="1513" type="line"/>
      <point x="311" y="1513" type="line"/>
      <point x="847" y="3072" type="line"/>
      <point x="2345" y="3072" type="line"/>
      <point x="2396" y="3298" type="line"/>
      <point x="2404" y="3298" type="line"/>
    </contour>
  </outline>
</glyph>
<glyph name="six" format="2">
  <advance width="1168"/>
  <unicode hex="0036"/>
  <outline>
    <contour>
      <point x="870" y="645" type="curve" smooth="yes"/>
      <point x="870" y="828"/>
      <point x="833" y="952"/>
      <point x="732" y="952" type="curve" smooth="yes"/>
      <point x="460" y="952"/>
      <point x="352" y="509"/>
      <point x="352" y="295" type="curve"/>
      <point x="348" y="295" type="line"/>
      <point x="348" y="514"/>
      <point x="456" y="983"/>
      <point x="784" y="983" type="curve" smooth="yes"/>
      <point x="956" y="983"/>
      <point x="1130" y="880"/>
      <point x="1130" y="600" type="curve" smooth="yes"/>
      <point x="1130" y="280"/>
      <point x="820" y="-20"/>
      <point x="508" y="-20" type="curve" smooth="yes"/>
      <point x="276" y="-20"/>
      <point x="100" y="120"/>
      <point x="100" y="440" type="curve" smooth="yes"/>
      <point x="100" y="886"/>
      <point x="584" y="1520"/>
      <point x="1180" y="1520" type="curve"/>
      <point x="1180" y="1516" type="line"/>
      <point x="697" y="1516"/>
      <point x="353" y="854"/>
      <point x="353" y="355" type="curve"/>
      <point x="352" y="295" type="line"/>
      <point x="352" y="132"/>
      <point x="400" y="-16"/>
      <point x="516" y="-16" type="curve" smooth="yes"/>
      <point x="714" y="-16"/>
      <point x="870" y="407"/>
    </contour>
  </outline>
</glyph>
<glyph name="seven" format="2">
  <advance width="1061"/>
  <unicode hex="0037"/>
  <outline>
    <contour>
      <point x="290" y="152" type="curve" smooth="yes"/>
      <point x="290" y="320"/>
      <point x="535" y="564"/>
      <point x="702" y="779" type="curve" smooth="yes"/>
      <point x="805" y="910"/>
      <point x="937" y="1092"/>
      <point x="1061" y="1250" type="curve"/>
      <point x="266" y="1250" type="line"/>
      <point x="233" y="1100" type="line"/>
      <point x="228" y="1100" type="line"/>
      <point x="315" y="1500" type="line"/>
      <point x="1262" y="1500" type="line"/>
      <point x="1262" y="1500"/>
      <point x="915" y="1046"/>
      <point x="725" y="796" type="curve" smooth="yes"/>
      <point x="588" y="614"/>
      <point x="459" y="474"/>
      <point x="459" y="384" type="curve" smooth="yes"/>
      <point x="459" y="282"/>
      <point x="604" y="284"/>
      <point x="604" y="141" type="curve" smooth="yes"/>
      <point x="604" y="52"/>
      <point x="542" y="-20"/>
      <point x="439" y="-20" type="curve" smooth="yes"/>
      <point x="356" y="-20"/>
      <point x="290" y="39"/>
    </contour>
  </outline>
</glyph>
<glyph name="eight" format="2">
  <advance width="1159"/>
  <unicode hex="0038"/>
  <outline>
    <contour>
      <point x="495" y="1020" type="curve" smooth="yes"/>
      <point x="495" y="897"/>
      <point x="520" y="764"/>
      <point x="634" y="764" type="curve" smooth="yes"/>
      <point x="797" y="764"/>
      <point x="905" y="1011"/>
      <point x="905" y="1229" type="curve" smooth="yes"/>
      <point x="905" y="1347"/>
      <point x="881" y="1516"/>
      <point x="765" y="1516" type="curve" smooth="yes"/>
      <point x="612" y="1516"/>
      <point x="495" y="1238"/>
    </contour>
    <contour>
      <point x="240" y="1050" type="curve" smooth="yes"/>
      <point x="240" y="1290"/>
      <point x="469" y="1520"/>
      <point x="766" y="1520" type="curve" smooth="yes"/>
      <point x="1023" y="1520"/>
      <point x="1160" y="1350"/>
      <point x="1160" y="1190" type="curve" smooth="yes"/>
      <point x="1160" y="945"/>
      <point x="917" y="760"/>
      <point x="635" y="760" type="curve" smooth="yes"/>
      <point x="393" y="760"/>
      <point x="240" y="890"/>
    </contour>
    <contour>
      <point x="310" y="280" type="curve" smooth="yes"/>
      <point x="310" y="117"/>
      <point x="367" y="-16"/>
      <point x="500" y="-16" type="curve" smooth="yes"/>
      <point x="683" y="-16"/>
      <point x="795" y="262"/>
      <point x="795" y="480" type="curve" smooth="yes"/>
      <point x="795" y="643"/>
      <point x="738" y="760"/>
      <point x="605" y="760" type="curve" smooth="yes"/>
      <point x="422" y="760"/>
      <point x="310" y="498"/>
    </contour>
    <contour>
      <point x="60" y="300" type="curve" smooth="yes"/>
      <point x="60" y="540"/>
      <point x="238" y="764"/>
      <point x="595" y="764" type="curve" smooth="yes"/>
      <point x="892" y="764"/>
      <point x="1050" y="660"/>
      <point x="1050" y="460" type="curve" smooth="yes"/>
      <point x="1050" y="220"/>
      <point x="872" y="-20"/>
      <point x="515" y="-20" type="curve" smooth="yes"/>
      <point x="218" y="-20"/>
      <point x="60" y="100"/>
    </contour>
  </outline>
</glyph>
<glyph name="question" format="2">
  <advance width="1134"/>
  <unicode hex="003F"/>
  <outline>
    <contour>
      <point x="580" y="695" type="curve"/>
      <point x="528" y="453" type="line"/>
      <point x="524" y="453" type="line"/>
      <point x="578" y="698" type="line"/>
      <point x="812" y="760"/>
      <point x="968" y="1004"/>
      <point x="968" y="1240" type="curve" smooth="yes"/>
      <point x="968" y="1378"/>
      <point x="930" y="1514"/>
      <point x="772" y="1514" type="curve" smooth="yes"/>
      <point x="534" y="1514"/>
      <point x="351" y="1344"/>
      <point x="340" y="1202" type="curve"/>
      <point x="352" y="1244"/>
      <point x="402" y="1290"/>
      <point x="469" y="1290" type="curve" smooth="yes"/>
      <point x="537" y="1290"/>
      <point x="604" y="1240"/>
      <point x="604" y="1160" type="curve" smooth="yes"/>
      <point x="604" y="1070"/>
      <point x="529" y="1022"/>
      <point x="464" y="1022" type="curve" smooth="yes"/>
      <point x="384" y="1022"/>
      <point x="330" y="1080"/>
      <point x="330" y="1172" type="curve" smooth="yes"/>
      <point x="330" y="1336"/>
      <point x="528" y="1520"/>
      <point x="792" y="1520" type="curve" smooth="yes"/>
      <point x="1014" y="1520"/>
      <point x="1226" y="1425"/>
      <point x="1226" y="1185" type="curve" smooth="yes"/>
      <point x="1226" y="890"/>
      <point x="890" y="711"/>
    </contour>
    <component base="period" xOffset="298"/>
  </outline>
</glyph>
<glyph name="at" format="1">
  <advance width="4136"/>
  <unicode hex="0040"/>
  <outline>
    <contour>
      <point x="2442" y="1441" type="curve" smooth="yes"/>
      <point x="2442" y="839"/>
      <point x="2136" y="286"/>
      <point x="1696" y="286" type="curve" smooth="yes"/>
      <point x="1362" y="286"/>
      <point x="1082" y="516"/>
      <point x="1082" y="942" type="curve" smooth="yes"/>
      <point x="1082" y="1556"/>
      <point x="1541" y="2166"/>
      <point x="2029" y="2166" type="curve" smooth="yes"/>
      <point x="2381" y="2166"/>
      <point x="2442" y="1777"/>
    </contour>
    <contour>
      <point x="2432" y="1418" type="curve" smooth="yes"/>
      <point x="2432" y="1590"/>
      <point x="2425" y="2084"/>
      <point x="2139" y="2084" type="curve" smooth="yes"/>
      <point x="1877" y="2084"/>
      <point x="1617" y="1430"/>
      <point x="1617" y="922" type="curve" smooth="yes"/>
      <point x="1617" y="648"/>
      <point x="1679" y="371"/>
      <point x="1839" y="371" type="curve" smooth="yes"/>
      <point x="2144" y="371"/>
      <point x="2432" y="883"/>
    </contour>
    <contour>
      <point x="2344" y="860" type="curve" smooth="yes"/>
      <point x="2640" y="2130" type="line"/>
      <point x="3131" y="2130" type="line"/>
      <point x="2833" y="845" type="line" smooth="yes"/>
      <point x="2813" y="754"/>
      <point x="2655" y="322"/>
      <point x="2940" y="322" type="curve" smooth="yes"/>
      <point x="3492" y="322"/>
      <point x="3904" y="962"/>
      <point x="3904" y="1642" type="curve" smooth="yes"/>
      <point x="3904" y="2384"/>
      <point x="3428" y="3228"/>
      <point x="2396" y="3228" type="curve" smooth="yes"/>
      <point x="1206" y="3228"/>
      <point x="234" y="2142"/>
      <point x="234" y="864" type="curve" smooth="yes"/>
      <point x="234" y="-418"/>
      <point x="974" y="-868"/>
      <point x="1716" y="-868" type="curve" smooth="yes"/>
      <point x="2380" y="-868"/>
      <point x="2868" y="-656"/>
      <point x="3208" y="-258" type="curve"/>
      <point x="3216" y="-262" type="line"/>
      <point x="2872" y="-664"/>
      <point x="2384" y="-876"/>
      <point x="1716" y="-876" type="curve" smooth="yes"/>
      <point x="966" y="-876"/>
      <point x="226" y="-426"/>
      <point x="226" y="864" type="curve" smooth="yes"/>
      <point x="226" y="2146"/>
      <point x="1196" y="3236"/>
      <point x="2396" y="3236" type="curve" smooth="yes"/>
      <point x="3432" y="3236"/>
      <point x="3912" y="2392"/>
      <point x="3912" y="1642" type="curve" smooth="yes"/>
      <point x="3912" y="976"/>
      <point x="3530" y="278"/>
      <point x="2799" y="278" type="curve" smooth="yes"/>
      <point x="2373" y="278"/>
      <point x="2286" y="606"/>
    </contour>
  </outline>
</glyph>
<glyph name="A" format="2">
  <advance width="1496"/>
  <unicode hex="0041"/>
  <outline>
    <contour>
      <point x="-92" y="4" type="line"/>
      <point x="347" y="4" type="line"/>
      <point x="347" y="0" type="line"/>
      <point x="-92" y="0" type="line"/>
    </contour>
    <contour>
      <point x="718" y="4" type="line"/>
      <point x="1357" y="4" type="line"/>
      <point x="1357" y="0" type="line"/>
      <point x="718" y="0" type="line"/>
    </contour>
    <contour>
      <point x="377" y="492" type="line"/>
      <point x="1028" y="492" type="line"/>
      <point x="1028" y="488" type="line"/>
      <point x="377" y="488" type="line"/>
    </contour>
    <contour>
      <point x="819" y="1251" type="line"/>
      <point x="96" y="0" type="line"/>
      <point x="92" y="0" type="line"/>
      <point x="974" y="1530" type="line"/>
      <point x="1028" y="1530" type="line"/>
      <point x="1217" y="0" type="line"/>
      <point x="947" y="0" type="line"/>
    </contour>
  </outline>
</glyph>
<glyph name="B" format="2">
  <advance width="1307"/>
  <unicode hex="0042"/>
  <outline>
    <contour>
      <point x="558" y="0" type="curve" smooth="yes"/>
      <point x="-92" y="0" type="line"/>
      <point x="-92" y="4" type="line"/>
      <point x="558" y="4" type="line" smooth="yes"/>
      <point x="775" y="4"/>
      <point x="927" y="252"/>
      <point x="927" y="520" type="curve" smooth="yes"/>
      <point x="927" y="698"/>
      <point x="841" y="768"/>
      <point x="699" y="768" type="curve" smooth="yes"/>
      <point x="457" y="768" type="line"/>
      <point x="457" y="772" type="line"/>
      <point x="729" y="772" type="line" smooth="yes"/>
      <point x="1011" y="772"/>
      <point x="1208" y="685"/>
      <point x="1208" y="470" type="curve" smooth="yes"/>
      <point x="1208" y="170"/>
      <point x="905" y="0"/>
    </contour>
    <contour>
      <point x="438" y="1500" type="line"/>
      <point x="688" y="1500" type="line"/>
      <point x="338" y="0" type="line"/>
      <point x="87" y="0" type="line"/>
    </contour>
    <contour>
      <point x="697" y="768" type="curve" smooth="yes"/>
      <point x="457" y="768" type="line"/>
      <point x="457" y="772" type="line"/>
      <point x="697" y="772" type="line" smooth="yes"/>
      <point x="849" y="772"/>
      <point x="1057" y="952"/>
      <point x="1057" y="1240" type="curve" smooth="yes"/>
      <point x="1057" y="1373"/>
      <point x="997" y="1496"/>
      <point x="845" y="1496" type="curve" smooth="yes"/>
      <point x="257" y="1496" type="line"/>
      <point x="257" y="1500" type="line"/>
      <point x="848" y="1500" type="line" smooth="yes"/>
      <point x="1180" y="1500"/>
      <point x="1317" y="1410"/>
      <point x="1317" y="1200" type="curve" smooth="yes"/>
      <point x="1317" y="950"/>
      <point x="1019" y="768"/>
    </contour>
  </outline>
</glyph>
<glyph name="C" format="2">
  <advance width="1357"/>
  <unicode hex="0043"/>
  <outline>
    <contour>
      <point x="643" y="-20" type="curve" smooth="yes"/>
      <point x="322" y="-20"/>
      <point x="108" y="184"/>
      <point x="108" y="510" type="curve" smooth="yes"/>
      <point x="108" y="1056"/>
      <point x="512" y="1520"/>
      <point x="988" y="1520" type="curve" smooth="yes"/>
      <point x="1234" y="1520"/>
      <point x="1403" y="1361"/>
      <point x="1390" y="1075" type="curve"/>
      <point x="1386" y="1075" type="line"/>
      <point x="1397" y="1369"/>
      <point x="1222" y="1509"/>
      <point x="1022" y="1509" type="curve" smooth="yes"/>
      <point x="609" y="1509"/>
      <point x="383" y="819"/>
      <point x="383" y="380" type="curve" smooth="yes"/>
      <point x="383" y="181"/>
      <point x="463" y="-10"/>
      <point x="671" y="-10" type="curve" smooth="yes"/>
      <point x="924" y="-10"/>
      <point x="1148" y="178"/>
      <point x="1253" y="425" type="curve"/>
      <point x="1257" y="425" type="line"/>
      <point x="1157" y="179"/>
      <point x="929" y="-20"/>
    </contour>
    <contour>
      <point x="1386" y="1075" type="line"/>
      <point x="1387" y="1124" type="line"/>
      <point x="1381" y="1222"/>
      <point x="1362" y="1299"/>
      <point x="1316" y="1361" type="curve"/>
      <point x="1484" y="1500" type="line"/>
      <point x="1488" y="1500" type="line"/>
      <point x="1390" y="1075" type="line"/>
    </contour>
    <contour>
      <point x="1253" y="425" type="line"/>
      <point x="1257" y="425" type="line"/>
      <point x="1147" y="0" type="line"/>
      <point x="1144" y="0" type="line"/>
      <point x="1049" y="136" type="line"/>
      <point x="1108" y="192"/>
      <point x="1165" y="249"/>
      <point x="1225" y="360" type="curve"/>
    </contour>
  </outline>
</glyph>
<glyph name="D" format="2">
  <advance width="1452"/>
  <unicode hex="0044"/>
  <outline>
    <contour>
      <point x="448" y="1500" type="line"/>
      <point x="697" y="1500" type="line"/>
      <point x="357" y="0" type="line"/>
      <point x="108" y="0" type="line"/>
    </contour>
    <contour>
      <point x="558" y="0" type="curve" smooth="yes"/>
      <point x="-73" y="0" type="line"/>
      <point x="-73" y="4" type="line"/>
      <point x="538" y="4" type="line" smooth="yes"/>
      <point x="951" y="4"/>
      <point x="1173" y="686"/>
      <point x="1173" y="1085" type="curve" smooth="yes"/>
      <point x="1173" y="1269"/>
      <point x="1106" y="1496"/>
      <point x="873" y="1496" type="curve" smooth="yes"/>
      <point x="248" y="1496" type="line"/>
      <point x="248" y="1500" type="line"/>
      <point x="887" y="1500" type="line" smooth="yes"/>
      <point x="1213" y="1500"/>
      <point x="1452" y="1321"/>
      <point x="1452" y="980" type="curve" smooth="yes"/>
      <point x="1452" y="449"/>
      <point x="1059" y="0"/>
    </contour>
  </outline>
</glyph>
<glyph name="E" format="2">
  <advance width="1189"/>
  <unicode hex="0045"/>
  <outline>
    <contour>
      <point x="246" y="1500" type="line"/>
      <point x="1340" y="1500" type="line"/>
      <point x="1245" y="1090" type="line"/>
      <point x="1241" y="1090" type="line"/>
      <point x="1276" y="1304"/>
      <point x="1190" y="1496"/>
      <point x="956" y="1496" type="curve" smooth="yes"/>
      <point x="246" y="1496" type="line"/>
    </contour>
    <contour>
      <point x="425" y="1500" type="line"/>
      <point x="676" y="1500" type="line"/>
      <point x="327" y="0" type="line"/>
      <point x="78" y="0" type="line"/>
    </contour>
    <contour>
      <point x="604" y="774" type="curve" smooth="yes"/>
      <point x="466" y="774" type="line"/>
      <point x="466" y="778" type="line"/>
      <point x="604" y="778" type="line" smooth="yes"/>
      <point x="718" y="778"/>
      <point x="850" y="867"/>
      <point x="895" y="1001" type="curve"/>
      <point x="899" y="1001" type="line"/>
      <point x="794" y="541" type="line"/>
      <point x="790" y="541" type="line"/>
      <point x="805" y="675"/>
      <point x="718" y="774"/>
    </contour>
    <contour>
      <point x="1012" y="0" type="line"/>
      <point x="-92" y="0" type="line"/>
      <point x="-92" y="4" type="line"/>
      <point x="607" y="4" type="line" smooth="yes"/>
      <point x="881" y="4"/>
      <point x="1040" y="196"/>
      <point x="1113" y="450" type="curve"/>
      <point x="1117" y="450" type="line"/>
    </contour>
  </outline>
</glyph>
<glyph name="F" format="2">
  <advance width="2345"/>
  <unicode hex="0046"/>
  <outline>
    <contour>
      <point x="1159" y="1524" type="curve" smooth="yes"/>
      <point x="953" y="1524" type="line"/>
      <point x="953" y="1532" type="line"/>
      <point x="1159" y="1532" type="line" smooth="yes"/>
      <point x="1491" y="1532"/>
      <point x="1754" y="1705"/>
      <point x="1838" y="1979" type="curve"/>
      <point x="1846" y="1979" type="line"/>
      <point x="1632" y="1057" type="line"/>
      <point x="1624" y="1057" type="line"/>
      <point x="1655" y="1331"/>
      <point x="1495" y="1524"/>
    </contour>
    <contour>
      <point x="-189" y="8" type="line"/>
      <point x="1080" y="8" type="line"/>
      <point x="1080" y="0" type="line"/>
      <point x="-189" y="0" type="line"/>
    </contour>
    <contour>
      <point x="871" y="3072" type="line"/>
      <point x="1384" y="3072" type="line"/>
      <point x="670" y="0" type="line"/>
      <point x="159" y="0" type="line"/>
    </contour>
    <contour>
      <point x="503" y="3072" type="line"/>
      <point x="2695" y="3072" type="line"/>
      <point x="2497" y="2232" type="line"/>
      <point x="2489" y="2232" type="line"/>
      <point x="2561" y="2670"/>
      <point x="2396" y="3064"/>
      <point x="1916" y="3064" type="curve" smooth="yes"/>
      <point x="503" y="3064" type="line"/>
    </contour>
  </outline>
</glyph>
<glyph name="G" format="2">
  <advance width="1507"/>
  <unicode hex="0047"/>
  <outline>
    <contour>
      <point x="1081" y="570" type="line"/>
      <point x="1349" y="570" type="line"/>
      <point x="1287" y="330" type="line"/>
      <point x="1197" y="204"/>
      <point x="969" y="-20"/>
      <point x="643" y="-20" type="curve" smooth="yes"/>
      <point x="327" y="-20"/>
      <point x="108" y="174"/>
      <point x="108" y="510" type="curve" smooth="yes"/>
      <point x="108" y="1066"/>
      <point x="532" y="1520"/>
      <point x="1003" y="1520" type="curve" smooth="yes"/>
      <point x="1249" y="1520"/>
      <point x="1426" y="1361"/>
      <point x="1410" y="1075" type="curve"/>
      <point x="1406" y="1075" type="line"/>
      <point x="1421" y="1358"/>
      <point x="1247" y="1508"/>
      <point x="1038" y="1508" type="curve" smooth="yes"/>
      <point x="620" y="1508"/>
      <point x="383" y="839"/>
      <point x="383" y="390" type="curve" smooth="yes"/>
      <point x="383" y="186"/>
      <point x="438" y="-16"/>
      <point x="631" y="-16" type="curve" smooth="yes"/>
      <point x="844" y="-16"/>
      <point x="957" y="186"/>
      <point x="997" y="250" type="curve"/>
    </contour>
    <contour>
      <point x="893" y="572" type="line"/>
      <point x="1482" y="572" type="line"/>
      <point x="1482" y="568" type="line"/>
      <point x="893" y="568" type="line"/>
    </contour>
    <contour>
      <point x="1505" y="1500" type="line"/>
      <point x="1509" y="1500" type="line"/>
      <point x="1410" y="1075" type="line"/>
      <point x="1407" y="1075" type="line"/>
      <point x="1408" y="1126" type="line"/>
      <point x="1407" y="1205"/>
      <point x="1382" y="1297"/>
      <point x="1331" y="1367" type="curve"/>
    </contour>
  </outline>
</glyph>
<glyph name="H" format="2">
  <advance width="1497"/>
  <unicode hex="0048"/>
  <outline>
    <contour>
      <point x="762" y="4" type="line"/>
      <point x="1357" y="4" type="line"/>
      <point x="1357" y="0" type="line"/>
      <point x="762" y="0" type="line"/>
    </contour>
    <contour>
      <point x="1092" y="1500" type="line"/>
      <point x="1688" y="1500" type="line"/>
      <point x="1688" y="1496" type="line"/>
      <point x="1092" y="1496" type="line"/>
    </contour>
    <contour>
      <point x="1267" y="1500" type="line"/>
      <point x="1518" y="1500" type="line"/>
      <point x="1178" y="0" type="line"/>
      <point x="927" y="0" type="line"/>
    </contour>
    <contour>
      <point x="-83" y="4" type="line"/>
      <point x="513" y="4" type="line"/>
      <point x="513" y="0" type="line"/>
      <point x="-83" y="0" type="line"/>
    </contour>
    <contour>
      <point x="248" y="1500" type="line"/>
      <point x="843" y="1500" type="line"/>
      <point x="843" y="1496" type="line"/>
      <point x="248" y="1496" type="line"/>
    </contour>
    <contour>
      <point x="427" y="1500" type="line"/>
      <point x="678" y="1500" type="line"/>
      <point x="338" y="0" type="line"/>
      <point x="87" y="0" type="line"/>
    </contour>
    <contour>
      <point x="427" y="742" type="line"/>
      <point x="1146" y="742" type="line"/>
      <point x="1146" y="738" type="line"/>
      <point x="427" y="738" type="line"/>
    </contour>
  </outline>
</glyph>
<glyph name="I" format="1">
  <advance width="1550"/>
  <unicode hex="0049"/>
  <outline>
    <contour>
      <point x="-169" y="8" type="line"/>
      <point x="1264" y="8" type="line"/>
      <point x="1264" y="0" type="line"/>
      <point x="-169" y="0" type="line"/>
    </contour>
    <contour>
      <point x="507" y="3072" type="line"/>
      <point x="1940" y="3072" type="line"/>
      <point x="1940" y="3064" type="line"/>
      <point x="507" y="3064" type="line"/>
    </contour>
    <contour>
      <point x="979" y="3072" type="line"/>
      <point x="1490" y="3072" type="line"/>
      <point x="794" y="0" type="line"/>
      <point x="281" y="0" type="line"/>
    </contour>
  </outline>
</glyph>
<glyph name="J" format="2">
  <advance width="944"/>
  <unicode hex="004A"/>
  <outline>
    <contour>
      <point x="415" y="1500" type="line"/>
      <point x="1135" y="1500" type="line"/>
      <point x="1135" y="1496" type="line"/>
      <point x="415" y="1496" type="line"/>
    </contour>
    <contour>
      <point x="-55" y="168" type="curve"/>
      <point x="-48" y="68"/>
      <point x="44" y="-54"/>
      <point x="185" y="-54" type="curve" smooth="yes"/>
      <point x="307" y="-54"/>
      <point x="366" y="100"/>
      <point x="430" y="380" type="curve" smooth="yes"/>
      <point x="684" y="1500" type="line"/>
      <point x="935" y="1500" type="line"/>
      <point x="673" y="338" type="line"/>
      <point x="568" y="173"/>
      <point x="422" y="-60"/>
      <point x="200" y="-60" type="curve" smooth="yes"/>
      <point x="36" y="-60"/>
      <point x="-62" y="70"/>
      <point x="-62" y="190" type="curve" smooth="yes"/>
      <point x="-62" y="284"/>
      <point x="1" y="350"/>
      <point x="86" y="350" type="curve" smooth="yes"/>
      <point x="156" y="350"/>
      <point x="229" y="299"/>
      <point x="229" y="202" type="curve" smooth="yes"/>
      <point x="229" y="111"/>
      <point x="158" y="56"/>
      <point x="87" y="56" type="curve" smooth="yes"/>
      <point x="16" y="56"/>
      <point x="-39" y="105"/>
    </contour>
  </outline>
</glyph>
<glyph name="K" format="2">
  <advance width="2931"/>
  <unicode hex="004B"/>
  <outline>
    <contour>
      <point x="-169" y="8" type="line"/>
      <point x="1050" y="8" type="line"/>
      <point x="1050" y="0" type="line"/>
      <point x="-169" y="0" type="line"/>
    </contour>
    <contour>
      <point x="507" y="3072" type="line"/>
      <point x="1746" y="3072" type="line"/>
      <point x="1746" y="3064" type="line"/>
      <point x="507" y="3064" type="line"/>
    </contour>
    <contour>
      <point x="875" y="3072" type="line"/>
      <point x="1388" y="3072" type="line"/>
      <point x="692" y="0" type="line"/>
      <point x="179" y="0" type="line"/>
    </contour>
    <contour>
      <point x="604" y="888" type="line"/>
      <point x="591" y="888" type="line"/>
      <point x="2756" y="3070" type="line"/>
      <point x="2771" y="3070" type="line"/>
    </contour>
    <contour>
      <point x="1303" y="8" type="line"/>
      <point x="2672" y="8" type="line"/>
      <point x="2672" y="0" type="line"/>
      <point x="1303" y="0" type="line"/>
    </contour>
    <contour>
      <point x="3177" y="3064" type="line"/>
      <point x="2195" y="3064" type="line"/>
      <point x="2195" y="3072" type="line"/>
      <point x="3177" y="3072" type="line"/>
    </contour>
    <contour>
      <point x="2322" y="0" type="line"/>
      <point x="1757" y="0" type="line"/>
      <point x="1248" y="1549" type="line"/>
      <point x="1657" y="1938" type="line"/>
    </contour>
  </outline>
</glyph>
<glyph name="L" format="2">
  <advance width="2392"/>
  <unicode hex="004C"/>
  <outline>
    <contour>
      <point x="871" y="3072" type="line"/>
      <point x="1384" y="3072" type="line"/>
      <point x="670" y="0" type="line"/>
      <point x="159" y="0" type="line"/>
    </contour>
    <contour>
      <point x="503" y="3072" type="line"/>
      <point x="1752" y="3072" type="line"/>
      <point x="1752" y="3064" type="line"/>
      <point x="503" y="3064" type="line"/>
    </contour>
    <contour>
      <point x="2058" y="0" type="line"/>
      <point x="-189" y="0" type="line"/>
      <point x="-189" y="8" type="line"/>
      <point x="1208" y="8" type="line" smooth="yes"/>
      <point x="1852" y="8"/>
      <point x="2113" y="402"/>
      <point x="2262" y="922" type="curve"/>
      <point x="2272" y="922" type="line"/>
    </contour>
  </outline>
</glyph>
<glyph name="M" format="1">
  <advance width="3537"/>
  <unicode hex="004D"/>
  <outline>
    <contour>
      <point x="2125" y="8" type="line"/>
      <point x="3252" y="8" type="line"/>
      <point x="3252" y="0" type="line"/>
      <point x="2125" y="0" type="line"/>
    </contour>
    <contour>
      <point x="3566" y="3064" type="line"/>
      <point x="2924" y="0" type="line"/>
      <point x="2411" y="0" type="line"/>
      <point x="3067" y="3072" type="line"/>
      <point x="3824" y="3072" type="line"/>
      <point x="3824" y="3064" type="line"/>
    </contour>
    <contour>
      <point x="1729" y="700" type="line"/>
      <point x="3063" y="3072" type="line"/>
      <point x="3071" y="3072" type="line"/>
      <point x="1322" y="-40" type="line"/>
      <point x="1309" y="-40" type="line"/>
      <point x="827" y="3072" type="line"/>
      <point x="1342" y="3072" type="line"/>
    </contour>
    <contour>
      <point x="823" y="3064" type="line"/>
      <point x="507" y="3064" type="line"/>
      <point x="507" y="3072" type="line"/>
      <point x="834" y="3072" type="line"/>
      <point x="186" y="0" type="line"/>
      <point x="178" y="0" type="line"/>
    </contour>
    <contour>
      <point x="-107" y="8" type="line"/>
      <point x="525" y="8" type="line"/>
      <point x="525" y="0" type="line"/>
      <point x="-107" y="0" type="line"/>
    </contour>
  </outline>
</glyph>
<glyph name="N" format="2">
  <advance width="1457"/>
  <unicode hex="004E"/>
  <outline>
    <contour>
      <point x="1443" y="1500" type="line"/>
      <point x="1447" y="1500" type="line"/>
      <point x="1102" y="-20" type="line"/>
      <point x="1091" y="-20" type="line"/>
      <point x="448" y="1500" type="line"/>
      <point x="747" y="1500" type="line"/>
      <point x="1197" y="415" type="line"/>
    </contour>
    <contour>
      <point x="1203" y="1500" type="line"/>
      <point x="1647" y="1500" type="line"/>
      <point x="1647" y="1496" type="line"/>
      <point x="1203" y="1496" type="line"/>
    </contour>
    <contour>
      <point x="-73" y="4" type="line"/>
      <point x="367" y="4" type="line"/>
      <point x="367" y="0" type="line"/>
      <point x="-73" y="0" type="line"/>
    </contour>
    <contour>
      <point x="448" y="1496" type="line"/>
      <point x="248" y="1496" type="line"/>
      <point x="248" y="1500" type="line"/>
      <point x="453" y="1500" type="line"/>
      <point x="120" y="0" type="line"/>
      <point x="116" y="0" type="line"/>
    </contour>
  </outline>
</glyph>
<glyph name="O" format="2">
  <advance width="1466"/>
  <unicode hex="004F"/>
  <outline>
    <contour>
      <point x="617" y="-20" type="curve" smooth="yes"/>
      <point x="296" y="-20"/>
      <point x="108" y="184"/>
      <point x="108" y="510" type="curve" smooth="yes"/>
      <point x="108" y="1076"/>
      <point x="532" y="1520"/>
      <point x="958" y="1520" type="curve" smooth="yes"/>
      <point x="1259" y="1520"/>
      <point x="1467" y="1316"/>
      <point x="1467" y="990" type="curve" smooth="yes"/>
      <point x="1467" y="424"/>
      <point x="1063" y="-20"/>
    </contour>
    <contour>
      <point x="958" y="1516" type="curve" smooth="yes"/>
      <point x="620" y="1516"/>
      <point x="377" y="824"/>
      <point x="377" y="360" type="curve" smooth="yes"/>
      <point x="377" y="151"/>
      <point x="434" y="-16"/>
      <point x="617" y="-16" type="curve" smooth="yes"/>
      <point x="975" y="-16"/>
      <point x="1197" y="676"/>
      <point x="1197" y="1140" type="curve" smooth="yes"/>
      <point x="1197" y="1309"/>
      <point x="1141" y="1516"/>
    </contour>
  </outline>
</glyph>
<glyph name="P" format="2">
  <advance width="1274"/>
  <unicode hex="0050"/>
  <outline>
    <contour>
      <point x="427" y="1500" type="line"/>
      <point x="678" y="1500" type="line"/>
      <point x="327" y="0" type="line"/>
      <point x="78" y="0" type="line"/>
    </contour>
    <contour>
      <point x="-83" y="4" type="line"/>
      <point x="527" y="4" type="line"/>
      <point x="527" y="0" type="line"/>
      <point x="-83" y="0" type="line"/>
    </contour>
    <contour>
      <point x="678" y="678" type="curve" smooth="yes"/>
      <point x="458" y="678" type="line"/>
      <point x="458" y="682" type="line"/>
      <point x="652" y="682" type="line" smooth="yes"/>
      <point x="914" y="682"/>
      <point x="1056" y="982"/>
      <point x="1056" y="1200" type="curve" smooth="yes"/>
      <point x="1056" y="1318"/>
      <point x="1020" y="1496"/>
      <point x="853" y="1496" type="curve" smooth="yes"/>
      <point x="248" y="1496" type="line"/>
      <point x="248" y="1500" type="line"/>
      <point x="878" y="1500" type="line" smooth="yes"/>
      <point x="1140" y="1500"/>
      <point x="1334" y="1405"/>
      <point x="1334" y="1165" type="curve" smooth="yes"/>
      <point x="1334" y="865"/>
      <point x="1080" y="678"/>
    </contour>
  </outline>
</glyph>
<glyph name="Q" format="2">
  <advance width="1452"/>
  <unicode hex="0051"/>
  <outline>
    <contour>
      <point x="902" y="-496" type="curve"/>
      <point x="902" y="-500" type="line"/>
      <point x="486" y="-500"/>
      <point x="378" y="-342"/>
      <point x="478" y="4" type="curve"/>
      <point x="569" y="-26"/>
      <point x="673" y="-26"/>
      <point x="768" y="4" type="curve"/>
      <point x="668" y="-360"/>
      <point x="729" y="-496"/>
    </contour>
    <contour>
      <point x="958" y="1516" type="curve" smooth="yes"/>
      <point x="620" y="1516"/>
      <point x="377" y="824"/>
      <point x="377" y="360" type="curve" smooth="yes"/>
      <point x="377" y="156"/>
      <point x="434" y="-16"/>
      <point x="617" y="-16" type="curve" smooth="yes"/>
      <point x="975" y="-16"/>
      <point x="1197" y="676"/>
      <point x="1197" y="1140" type="curve" smooth="yes"/>
      <point x="1197" y="1304"/>
      <point x="1141" y="1516"/>
    </contour>
    <contour>
      <point x="617" y="-20" type="curve" smooth="yes"/>
      <point x="296" y="-20"/>
      <point x="108" y="184"/>
      <point x="108" y="510" type="curve" smooth="yes"/>
      <point x="108" y="1076"/>
      <point x="532" y="1520"/>
      <point x="958" y="1520" type="curve" smooth="yes"/>
      <point x="1259" y="1520"/>
      <point x="1467" y="1316"/>
      <point x="1467" y="990" type="curve" smooth="yes"/>
      <point x="1467" y="424"/>
      <point x="1063" y="-20"/>
    </contour>
  </outline>
</glyph>
<glyph name="R" format="2">
  <advance width="3035"/>
  <unicode hex="0052"/>
  <outline>
    <contour>
      <point x="2749" y="50" type="line"/>
      <point x="2601" y="-8"/>
      <point x="2498" y="-25"/>
      <point x="2330" y="-25" type="curve" smooth="yes"/>
      <point x="1284" y="-25"/>
      <point x="2406" y="1572"/>
      <point x="1398" y="1572" type="curve" smooth="yes"/>
      <point x="998" y="1572" type="line"/>
      <point x="998" y="1582" type="line"/>
      <point x="1531" y="1582" type="line" smooth="yes"/>
      <point x="2987" y="1582"/>
      <point x="2056" y="10"/>
      <point x="2540" y="10" type="curve" smooth="yes"/>
      <point x="2616" y="10"/>
      <point x="2679" y="32"/>
      <point x="2745" y="57" type="curve"/>
    </contour>
    <contour>
      <point x="957" y="3072" type="line"/>
      <point x="1470" y="3072" type="line"/>
      <point x="752" y="0" type="line"/>
      <point x="241" y="0" type="line"/>
    </contour>
    <contour>
      <point x="-159" y="8" type="line"/>
      <point x="1204" y="8" type="line"/>
      <point x="1204" y="0" type="line"/>
      <point x="-159" y="0" type="line"/>
    </contour>
    <contour>
      <point x="1551" y="1572" type="curve" smooth="yes"/>
      <point x="998" y="1572" type="line"/>
      <point x="998" y="1582" type="line"/>
      <point x="1500" y="1582" type="line" smooth="yes"/>
      <point x="2068" y="1582"/>
      <point x="2314" y="2143"/>
      <point x="2314" y="2529" type="curve" smooth="yes"/>
      <point x="2314" y="2729"/>
      <point x="2267" y="3064"/>
      <point x="1889" y="3064" type="curve" smooth="yes"/>
      <point x="517" y="3064" type="line"/>
      <point x="517" y="3072" type="line"/>
      <point x="1961" y="3072" type="line" smooth="yes"/>
      <point x="2497" y="3072"/>
      <point x="2872" y="2908"/>
      <point x="2872" y="2458" type="curve" smooth="yes"/>
      <point x="2872" y="1884"/>
      <point x="2375" y="1572"/>
    </contour>
  </outline>
</glyph>
<glyph name="S" format="2">
  <advance width="1148"/>
  <unicode hex="0053"/>
  <outline>
    <contour>
      <point x="1118" y="1139" type="line"/>
      <point x="1102" y="1221"/>
      <point x="1088" y="1299"/>
      <point x="1029" y="1384" type="curve"/>
      <point x="1215" y="1520" type="line"/>
      <point x="1219" y="1520" type="line"/>
      <point x="1123" y="1090" type="line"/>
      <point x="1119" y="1090" type="line"/>
    </contour>
    <contour>
      <point x="1123" y="1090" type="curve"/>
      <point x="1119" y="1090" type="line"/>
      <point x="1103" y="1349"/>
      <point x="981" y="1514"/>
      <point x="732" y="1514" type="curve" smooth="yes"/>
      <point x="585" y="1514"/>
      <point x="434" y="1412"/>
      <point x="434" y="1245" type="curve" smooth="yes"/>
      <point x="434" y="880"/>
      <point x="1051" y="995"/>
      <point x="1051" y="470" type="curve" smooth="yes"/>
      <point x="1051" y="190"/>
      <point x="790" y="-30"/>
      <point x="488" y="-30" type="curve" smooth="yes"/>
      <point x="176" y="-30"/>
      <point x="79" y="180"/>
      <point x="58" y="420" type="curve"/>
      <point x="62" y="420" type="line"/>
      <point x="81" y="188"/>
      <point x="178" y="-25"/>
      <point x="483" y="-25" type="curve" smooth="yes"/>
      <point x="690" y="-25"/>
      <point x="843" y="107"/>
      <point x="843" y="295" type="curve" smooth="yes"/>
      <point x="843" y="710"/>
      <point x="229" y="595"/>
      <point x="229" y="1050" type="curve" smooth="yes"/>
      <point x="229" y="1360"/>
      <point x="526" y="1520"/>
      <point x="728" y="1520" type="curve" smooth="yes"/>
      <point x="984" y="1520"/>
      <point x="1108" y="1352"/>
    </contour>
    <contour>
      <point x="-39" y="-20" type="line"/>
      <point x="-42" y="-20" type="line"/>
      <point x="58" y="420" type="line"/>
      <point x="62" y="420" type="line"/>
      <point x="69" y="341" type="line"/>
      <point x="88" y="252"/>
      <point x="113" y="182"/>
      <point x="153" y="126" type="curve"/>
    </contour>
  </outline>
</glyph>
<glyph name="T" format="2">
  <advance width="2648"/>
  <unicode hex="0054"/>
  <outline>
    <contour>
      <point x="380" y="8" type="line"/>
      <point x="1795" y="8" type="line"/>
      <point x="1795" y="0" type="line"/>
      <point x="380" y="0" type="line"/>
    </contour>
    <contour>
      <point x="1534" y="3072" type="line"/>
      <point x="2046" y="3072" type="line"/>
      <point x="1333" y="0" type="line"/>
      <point x="822" y="0" type="line"/>
    </contour>
    <contour>
      <point x="2363" y="3064" type="curve" smooth="yes"/>
      <point x="1176" y="3064" type="line" smooth="yes"/>
      <point x="717" y="3064"/>
      <point x="460" y="2636"/>
      <point x="311" y="2120" type="curve"/>
      <point x="303" y="2120" type="line"/>
      <point x="520" y="3072" type="line"/>
      <point x="3060" y="3072" type="line"/>
      <point x="2841" y="2120" type="line"/>
      <point x="2833" y="2120" type="line"/>
      <point x="2921" y="2640"/>
      <point x="2822" y="3064"/>
    </contour>
  </outline>
</glyph>
<glyph name="U" format="2">
  <advance width="1393"/>
  <unicode hex="0055"/>
  <outline>
    <contour>
      <point x="1194" y="1500" type="line"/>
      <point x="1584" y="1500" type="line"/>
      <point x="1584" y="1496" type="line"/>
      <point x="1194" y="1496" type="line"/>
    </contour>
    <contour>
      <point x="245" y="1500" type="line"/>
      <point x="875" y="1500" type="line"/>
      <point x="875" y="1496" type="line"/>
      <point x="245" y="1496" type="line"/>
    </contour>
    <contour>
      <point x="1402" y="1500" type="line"/>
      <point x="1406" y="1500" type="line"/>
      <point x="1166" y="460" type="line" smooth="yes"/>
      <point x="1094" y="146"/>
      <point x="946" y="-30"/>
      <point x="630" y="-30" type="curve" smooth="yes"/>
      <point x="304" y="-30"/>
      <point x="119" y="132"/>
      <point x="195" y="460" type="curve" smooth="yes"/>
      <point x="435" y="1500" type="line"/>
      <point x="685" y="1500" type="line"/>
      <point x="444" y="480" type="line" smooth="yes"/>
      <point x="386" y="230"/>
      <point x="408" y="-18"/>
      <point x="666" y="-18" type="curve" smooth="yes"/>
      <point x="949" y="-18"/>
      <point x="1092" y="154"/>
      <point x="1162" y="460" type="curve" smooth="yes"/>
    </contour>
  </outline>
</glyph>
<glyph name="V" format="2">
  <advance width="1486"/>
  <unicode hex="0056"/>
  <outline>
    <contour>
      <point x="1688" y="1496" type="line"/>
      <point x="1248" y="1496" type="line"/>
      <point x="1248" y="1500" type="line"/>
      <point x="1688" y="1500" type="line"/>
    </contour>
    <contour>
      <point x="878" y="1496" type="line"/>
      <point x="238" y="1496" type="line"/>
      <point x="238" y="1500" type="line"/>
      <point x="878" y="1500" type="line"/>
    </contour>
    <contour>
      <point x="774" y="254" type="line"/>
      <point x="1494" y="1500" type="line"/>
      <point x="1499" y="1500" type="line"/>
      <point x="621" y="-22" type="line"/>
      <point x="568" y="-22" type="line"/>
      <point x="377" y="1500" type="line"/>
      <point x="647" y="1500" type="line"/>
    </contour>
  </outline>
</glyph>
<glyph name="W" format="1">
  <advance width="4215"/>
  <unicode hex="0057"/>
  <outline>
    <contour>
      <point x="1628" y="625" type="line"/>
      <point x="2292" y="1770" type="line"/>
      <point x="2300" y="1770" type="line"/>
      <point x="1252" y="-40" type="line"/>
      <point x="1159" y="-40" type="line"/>
      <point x="842" y="3072" type="line"/>
      <point x="1393" y="3072" type="line"/>
    </contour>
    <contour>
      <point x="2495" y="1708" type="line"/>
      <point x="2486" y="1708" type="line"/>
      <point x="3280" y="3072" type="line"/>
      <point x="3288" y="3072" type="line"/>
    </contour>
    <contour>
      <point x="4625" y="3064" type="line"/>
      <point x="3837" y="3064" type="line"/>
      <point x="3837" y="3072" type="line"/>
      <point x="4625" y="3072" type="line"/>
    </contour>
    <contour>
      <point x="3651" y="3064" type="line"/>
      <point x="487" y="3064" type="line"/>
      <point x="487" y="3072" type="line"/>
      <point x="3651" y="3072" type="line"/>
    </contour>
    <contour>
      <point x="2792" y="626" type="line"/>
      <point x="4214" y="3072" type="line"/>
      <point x="4222" y="3072" type="line"/>
      <point x="2413" y="-40" type="line"/>
      <point x="2350" y="-40" type="line"/>
      <point x="2035" y="3072" type="line"/>
      <point x="2552" y="3072" type="line"/>
    </contour>
  </outline>
</glyph>
<glyph name="X" format="2">
  <advance width="1501"/>
  <unicode hex="0058"/>
  <outline>
    <contour>
      <point x="812" y="754" type="line"/>
      <point x="805" y="754" type="line"/>
      <point x="1401" y="1496" type="line"/>
      <point x="1407" y="1496" type="line"/>
    </contour>
    <contour>
      <point x="122" y="0" type="line"/>
      <point x="116" y="0" type="line"/>
      <point x="802" y="834" type="line"/>
      <point x="808" y="834" type="line"/>
    </contour>
    <contour>
      <point x="757" y="4" type="line"/>
      <point x="1378" y="4" type="line"/>
      <point x="1378" y="0" type="line"/>
      <point x="757" y="0" type="line"/>
    </contour>
    <contour>
      <point x="-102" y="4" type="line"/>
      <point x="377" y="4" type="line"/>
      <point x="377" y="0" type="line"/>
      <point x="-102" y="0" type="line"/>
    </contour>
    <contour>
      <point x="928" y="1496" type="line"/>
      <point x="307" y="1496" type="line"/>
      <point x="307" y="1500" type="line"/>
      <point x="928" y="1500" type="line"/>
    </contour>
    <contour>
      <point x="1623" y="1496" type="line"/>
      <point x="1183" y="1496" type="line"/>
      <point x="1183" y="1500" type="line"/>
      <point x="1623" y="1500" type="line"/>
    </contour>
    <contour>
      <point x="1239" y="0" type="line"/>
      <point x="950" y="0" type="line"/>
      <point x="448" y="1500" type="line"/>
      <point x="729" y="1500" type="line"/>
    </contour>
  </outline>
</glyph>
<glyph name="Y" format="2">
  <advance width="1476"/>
  <unicode hex="0059"/>
  <outline>
    <contour>
      <point x="1678" y="1496" type="line"/>
      <point x="1258" y="1496" type="line"/>
      <point x="1258" y="1500" type="line"/>
      <point x="1678" y="1500" type="line"/>
    </contour>
    <contour>
      <point x="873" y="1496" type="line"/>
      <point x="238" y="1496" type="line"/>
      <point x="238" y="1500" type="line"/>
      <point x="873" y="1500" type="line"/>
    </contour>
    <contour>
      <point x="317" y="4" type="line"/>
      <point x="948" y="4" type="line"/>
      <point x="948" y="0" type="line"/>
      <point x="317" y="0" type="line"/>
    </contour>
    <contour>
      <point x="914" y="763" type="line"/>
      <point x="1500" y="1496" type="line"/>
      <point x="1504" y="1496" type="line"/>
      <point x="916" y="757" type="line"/>
      <point x="748" y="0" type="line"/>
      <point x="497" y="0" type="line"/>
      <point x="667" y="754" type="line"/>
      <point x="377" y="1500" type="line"/>
      <point x="657" y="1500" type="line"/>
    </contour>
  </outline>
</glyph>
<glyph name="Z" format="2">
  <advance width="1154"/>
  <unicode hex="005A"/>
  <outline>
    <contour>
      <point x="973" y="1496" type="line"/>
      <point x="655" y="1496" type="line" smooth="yes"/>
      <point x="381" y="1496"/>
      <point x="266" y="1359"/>
      <point x="196" y="1145" type="curve"/>
      <point x="192" y="1145" type="line"/>
      <point x="276" y="1500" type="line"/>
      <point x="1285" y="1500" type="line"/>
      <point x="1285" y="1496" type="line"/>
      <point x="210" y="4" type="line"/>
      <point x="587" y="4" type="line" smooth="yes"/>
      <point x="861" y="4"/>
      <point x="972" y="143"/>
      <point x="1055" y="395" type="curve"/>
      <point x="1059" y="395" type="line"/>
      <point x="968" y="0" type="line"/>
      <point x="-102" y="0" type="line"/>
      <point x="-102" y="4" type="line"/>
    </contour>
  </outline>
</glyph>
<glyph name="bracketleft" format="1">
  <advance width="1443"/>
  <unicode hex="005B"/>
  <outline>
    <contour>
      <point x="820" y="3194" type="line"/>
      <point x="1874" y="3194" type="line"/>
      <point x="1874" y="3186" type="line"/>
      <point x="1286" y="3186" type="line"/>
      <point x="434" y="-606" type="line"/>
      <point x="1014" y="-606" type="line"/>
      <point x="1014" y="-614" type="line"/>
      <point x="-40" y="-614" type="line"/>
    </contour>
  </outline>
</glyph>
<glyph name="grave" format="2">
  <advance width="1636"/>
  <unicode hex="0060"/>
  <outline>
    <contour>
      <point x="979" y="2912" type="line" smooth="yes"/>
      <point x="871" y="2901"/>
      <point x="774" y="2983"/>
      <point x="774" y="3092" type="curve" smooth="yes"/>
      <point x="774" y="3201"/>
      <point x="884" y="3317"/>
      <point x="1020" y="3269" type="curve" smooth="yes"/>
      <point x="1958" y="2964" type="line"/>
      <point x="1954" y="2956" type="line"/>
    </contour>
  </outline>
</glyph>
<glyph name="a" format="2">
  <advance width="1239"/>
  <unicode hex="0061"/>
  <outline>
    <contour>
      <point x="753" y="628" type="curve" smooth="yes"/>
      <point x="753" y="764"/>
      <point x="716" y="895"/>
      <point x="624" y="895" type="curve" smooth="yes"/>
      <point x="461" y="895"/>
      <point x="288" y="533"/>
      <point x="288" y="265" type="curve" smooth="yes"/>
      <point x="288" y="117"/>
      <point x="331" y="18"/>
      <point x="418" y="18" type="curve" smooth="yes"/>
      <point x="616" y="18"/>
      <point x="753" y="405"/>
    </contour>
    <contour>
      <point x="757" y="628" type="curve" smooth="yes"/>
      <point x="757" y="412"/>
      <point x="630" y="-20"/>
      <point x="348" y="-20" type="curve" smooth="yes"/>
      <point x="210" y="-20"/>
      <point x="30" y="60"/>
      <point x="30" y="320" type="curve" smooth="yes"/>
      <point x="30" y="720"/>
      <point x="344" y="940"/>
      <point x="547" y="940" type="curve" smooth="yes"/>
      <point x="699" y="940"/>
      <point x="757" y="812"/>
    </contour>
    <contour>
      <point x="1200" y="326" type="line"/>
      <point x="1124" y="126"/>
      <point x="996" y="-20"/>
      <point x="819" y="-20" type="curve" smooth="yes"/>
      <point x="710" y="-20"/>
      <point x="662" y="31"/>
      <point x="662" y="131" type="curve" smooth="yes"/>
      <point x="662" y="141"/>
      <point x="664" y="166"/>
      <point x="667" y="180" type="curve" smooth="yes"/>
      <point x="711" y="362" type="line"/>
      <point x="745" y="500" type="line"/>
      <point x="754" y="573" type="line"/>
      <point x="839" y="920" type="line"/>
      <point x="1065" y="920" type="line"/>
      <point x="861" y="82" type="line" smooth="yes"/>
      <point x="859" y="70"/>
      <point x="857" y="56"/>
      <point x="857" y="46" type="curve" smooth="yes"/>
      <point x="857" y="24"/>
      <point x="867" y="7"/>
      <point x="893" y="7" type="curve" smooth="yes"/>
      <point x="1007" y="7"/>
      <point x="1129" y="146"/>
      <point x="1197" y="328" type="curve"/>
    </contour>
  </outline>
</glyph>
<glyph name="b" format="2">
  <advance width="2386"/>
  <unicode hex="0062"/>
  <outline>
    <contour>
      <point x="852" y="3064" type="line"/>
      <point x="536" y="3064" type="line"/>
      <point x="536" y="3072" type="line"/>
      <point x="1326" y="3072" type="line"/>
      <point x="742" y="523" type="line"/>
      <point x="742" y="250"/>
      <point x="804" y="-32"/>
      <point x="1013" y="-32" type="curve" smooth="yes"/>
      <point x="1388" y="-32"/>
      <point x="1736" y="810"/>
      <point x="1736" y="1358" type="curve" smooth="yes"/>
      <point x="1736" y="1621"/>
      <point x="1649" y="1840"/>
      <point x="1471" y="1840" type="curve" smooth="yes"/>
      <point x="1196" y="1840"/>
      <point x="946" y="1440"/>
      <point x="836" y="942" type="curve"/>
      <point x="827" y="942" type="line"/>
      <point x="983" y="1647"/>
      <point x="1290" y="1922"/>
      <point x="1622" y="1922" type="curve" smooth="yes"/>
      <point x="1896" y="1922"/>
      <point x="2264" y="1794"/>
      <point x="2264" y="1270" type="curve" smooth="yes"/>
      <point x="2264" y="410"/>
      <point x="1648" y="-40"/>
      <point x="1007" y="-40" type="curve" smooth="yes"/>
      <point x="634" y="-40"/>
      <point x="399" y="193"/>
      <point x="266" y="492" type="curve"/>
    </contour>
  </outline>
</glyph>
<glyph name="c" format="2">
  <advance width="957"/>
  <unicode hex="0063"/>
  <outline>
    <contour>
      <point x="915" y="720" type="curve"/>
      <point x="904" y="837"/>
      <point x="805" y="929"/>
      <point x="648" y="929" type="curve" smooth="yes"/>
      <point x="405" y="929"/>
      <point x="288" y="523"/>
      <point x="288" y="275" type="curve" smooth="yes"/>
      <point x="288" y="107"/>
      <point x="315" y="-2"/>
      <point x="413" y="-2" type="curve" smooth="yes"/>
      <point x="548" y="-2"/>
      <point x="719" y="88"/>
      <point x="824" y="286" type="curve"/>
      <point x="828" y="286" type="line"/>
      <point x="726" y="92"/>
      <point x="550" y="-20"/>
      <point x="358" y="-20" type="curve" smooth="yes"/>
      <point x="206" y="-20"/>
      <point x="30" y="60"/>
      <point x="30" y="315" type="curve" smooth="yes"/>
      <point x="30" y="695"/>
      <point x="329" y="940"/>
      <point x="611" y="940" type="curve" smooth="yes"/>
      <point x="795" y="940"/>
      <point x="923" y="842"/>
      <point x="923" y="694" type="curve" smooth="yes"/>
      <point x="923" y="588"/>
      <point x="854" y="533"/>
      <point x="779" y="533" type="curve" smooth="yes"/>
      <point x="714" y="533"/>
      <point x="640" y="575"/>
      <point x="640" y="665" type="curve" smooth="yes"/>
      <point x="640" y="750"/>
      <point x="717" y="798"/>
      <point x="779" y="798" type="curve" smooth="yes"/>
      <point x="859" y="798"/>
      <point x="899" y="766"/>
    </contour>
  </outline>
</glyph>
<glyph name="d" format="2">
  <advance width="1249"/>
  <unicode hex="0064"/>
  <outline>
    <contour>
      <point x="1210" y="326" type="line"/>
      <point x="1134" y="126"/>
      <point x="1006" y="-20"/>
      <point x="829" y="-20" type="curve" smooth="yes"/>
      <point x="720" y="-20"/>
      <point x="664" y="26"/>
      <point x="664" y="136" type="curve" smooth="yes"/>
      <point x="664" y="146"/>
      <point x="666" y="168"/>
      <point x="668" y="180" type="curve" smooth="yes"/>
      <point x="711" y="364" type="line"/>
      <point x="745" y="503" type="line"/>
      <point x="754" y="570" type="line"/>
      <point x="962" y="1496" type="line"/>
      <point x="777" y="1496" type="line"/>
      <point x="777" y="1500" type="line"/>
      <point x="1192" y="1500" type="line"/>
      <point x="871" y="82" type="line" smooth="yes"/>
      <point x="869" y="70"/>
      <point x="867" y="56"/>
      <point x="867" y="46" type="curve" smooth="yes"/>
      <point x="867" y="24"/>
      <point x="876" y="5"/>
      <point x="903" y="5" type="curve" smooth="yes"/>
      <point x="1015" y="5"/>
      <point x="1140" y="145"/>
      <point x="1207" y="328" type="curve"/>
    </contour>
    <contour>
      <point x="753" y="628" type="curve" smooth="yes"/>
      <point x="753" y="764"/>
      <point x="716" y="895"/>
      <point x="624" y="895" type="curve" smooth="yes"/>
      <point x="461" y="895"/>
      <point x="288" y="533"/>
      <point x="288" y="265" type="curve" smooth="yes"/>
      <point x="288" y="117"/>
      <point x="331" y="18"/>
      <point x="418" y="18" type="curve" smooth="yes"/>
      <point x="616" y="18"/>
      <point x="753" y="405"/>
    </contour>
    <contour>
      <point x="757" y="628" type="curve" smooth="yes"/>
      <point x="757" y="412"/>
      <point x="630" y="-20"/>
      <point x="348" y="-20" type="curve" smooth="yes"/>
      <point x="210" y="-20"/>
      <point x="30" y="60"/>
      <point x="30" y="320" type="curve" smooth="yes"/>
      <point x="30" y="720"/>
      <point x="344" y="940"/>
      <point x="547" y="940" type="curve" smooth="yes"/>
      <point x="699" y="940"/>
      <point x="757" y="812"/>
    </contour>
  </outline>
</glyph>
<glyph name="e" format="2">
  <advance width="1992"/>
  <unicode hex="0065"/>
  <outline>
    <contour>
      <point x="590" y="524" type="curve" smooth="yes"/>
      <point x="590" y="251"/>
      <point x="634" y="-9"/>
      <point x="856" y="-9" type="curve" smooth="yes"/>
      <point x="1229" y="-9"/>
      <point x="1558" y="281"/>
      <point x="1728" y="586" type="curve"/>
      <point x="1736" y="586" type="line"/>
      <point x="1566" y="270"/>
      <point x="1218" y="-40"/>
      <point x="764" y="-40" type="curve" smooth="yes"/>
      <point x="401" y="-40"/>
      <point x="62" y="154"/>
      <point x="62" y="646" type="curve" smooth="yes"/>
      <point x="62" y="1426"/>
      <point x="696" y="1926"/>
      <point x="1263" y="1926" type="curve" smooth="yes"/>
      <point x="1649" y="1926"/>
      <point x="1932" y="1808"/>
      <point x="1932" y="1514" type="curve" smooth="yes"/>
      <point x="1932" y="918"/>
      <point x="976" y="888"/>
      <point x="522" y="888" type="curve"/>
      <point x="522" y="894" type="line"/>
      <point x="896" y="894"/>
      <point x="1466" y="997"/>
      <point x="1466" y="1555" type="curve" smooth="yes"/>
      <point x="1466" y="1727"/>
      <point x="1431" y="1916"/>
      <point x="1299" y="1916" type="curve" smooth="yes"/>
      <point x="976" y="1916"/>
      <point x="590" y="1176"/>
    </contour>
  </outline>
</glyph>
<glyph name="f" format="2">
  <advance width="750"/>
  <unicode hex="0066"/>
  <outline>
    <contour>
      <point x="121" y="920" type="line"/>
      <point x="806" y="920" type="line"/>
      <point x="806" y="916" type="line"/>
      <point x="121" y="916" type="line"/>
    </contour>
    <contour>
      <point x="1060" y="1348" type="curve"/>
      <point x="1046" y="1422"/>
      <point x="962" y="1515"/>
      <point x="824" y="1515" type="curve" smooth="yes"/>
      <point x="684" y="1515"/>
      <point x="589" y="1324"/>
      <point x="546" y="1080" type="curve" smooth="yes"/>
      <point x="347" y="-24" type="line" smooth="yes"/>
      <point x="296" y="-310"/>
      <point x="100" y="-520"/>
      <point x="-160" y="-520" type="curve" smooth="yes"/>
      <point x="-337" y="-520"/>
      <point x="-417" y="-401"/>
      <point x="-417" y="-307" type="curve" smooth="yes"/>
      <point x="-417" y="-215"/>
      <point x="-359" y="-163"/>
      <point x="-284" y="-163" type="curve" smooth="yes"/>
      <point x="-219" y="-163"/>
      <point x="-146" y="-201"/>
      <point x="-146" y="-291" type="curve" smooth="yes"/>
      <point x="-146" y="-381"/>
      <point x="-214" y="-424"/>
      <point x="-287" y="-424" type="curve" smooth="yes"/>
      <point x="-340" y="-424"/>
      <point x="-390" y="-391"/>
      <point x="-406" y="-348" type="curve"/>
      <point x="-392" y="-422"/>
      <point x="-309" y="-515"/>
      <point x="-171" y="-515" type="curve" smooth="yes"/>
      <point x="-31" y="-515"/>
      <point x="64" y="-324"/>
      <point x="107" y="-80" type="curve" smooth="yes"/>
      <point x="307" y="1024" type="line" smooth="yes"/>
      <point x="358" y="1310"/>
      <point x="552" y="1520"/>
      <point x="812" y="1520" type="curve" smooth="yes"/>
      <point x="989" y="1520"/>
      <point x="1071" y="1401"/>
      <point x="1071" y="1307" type="curve" smooth="yes"/>
      <point x="1071" y="1215"/>
      <point x="1013" y="1163"/>
      <point x="938" y="1163" type="curve" smooth="yes"/>
      <point x="873" y="1163"/>
      <point x="800" y="1201"/>
      <point x="800" y="1291" type="curve" smooth="yes"/>
      <point x="800" y="1381"/>
      <point x="867" y="1424"/>
      <point x="940" y="1424" type="curve" smooth="yes"/>
      <point x="992" y="1424"/>
      <point x="1044" y="1390"/>
    </contour>
  </outline>
</glyph>
<glyph name="g" format="1">
  <advance width="2422"/>
  <unicode hex="0067"/>
  <outline>
    <contour>
      <point x="545" y="-74" type="line"/>
      <point x="381" y="-126"/>
      <point x="258" y="-338"/>
      <point x="258" y="-582" type="curve" smooth="yes"/>
      <point x="258" y="-830"/>
      <point x="356" y="-1053"/>
      <point x="688" y="-1053" type="curve" smooth="yes"/>
      <point x="1074" y="-1053"/>
      <point x="1608" y="-850"/>
      <point x="1608" y="-397" type="curve" smooth="yes"/>
      <point x="1608" y="-175"/>
      <point x="1488" y="-88"/>
      <point x="1262" y="-88" type="curve" smooth="yes"/>
      <point x="1176" y="-88"/>
      <point x="895" y="-88"/>
      <point x="805" y="-88" type="curve" smooth="yes"/>
      <point x="437" y="-88"/>
      <point x="139" y="-22"/>
      <point x="139" y="232" type="curve" smooth="yes"/>
      <point x="139" y="546"/>
      <point x="624" y="664"/>
      <point x="901" y="664" type="curve"/>
      <point x="901" y="656" type="line"/>
      <point x="765" y="656"/>
      <point x="481" y="618"/>
      <point x="481" y="454" type="curve" smooth="yes"/>
      <point x="481" y="354"/>
      <point x="676" y="313"/>
      <point x="902" y="313" type="curve" smooth="yes"/>
      <point x="1046" y="313"/>
      <point x="1151" y="317"/>
      <point x="1265" y="317" type="curve" smooth="yes"/>
      <point x="1603" y="317"/>
      <point x="1782" y="180"/>
      <point x="1782" y="-172" type="curve" smooth="yes"/>
      <point x="1782" y="-709"/>
      <point x="1243" y="-1064"/>
      <point x="679" y="-1064" type="curve" smooth="yes"/>
      <point x="207" y="-1064"/>
      <point x="-184" y="-952"/>
      <point x="-184" y="-634" type="curve" smooth="yes"/>
      <point x="-184" y="-230"/>
      <point x="348" y="-74"/>
      <point x="532" y="-74" type="curve" smooth="yes"/>
    </contour>
    <contour>
      <point x="2504" y="1592" type="curve" smooth="yes"/>
      <point x="2504" y="1388"/>
      <point x="2382" y="1317"/>
      <point x="2270" y="1317" type="curve" smooth="yes"/>
      <point x="2158" y="1317"/>
      <point x="2040" y="1390"/>
      <point x="2040" y="1546" type="curve" smooth="yes"/>
      <point x="2040" y="1670"/>
      <point x="2152" y="1766"/>
      <point x="2282" y="1766" type="curve" smooth="yes"/>
      <point x="2406" y="1766"/>
      <point x="2490" y="1672"/>
      <point x="2500" y="1598" type="curve"/>
      <point x="2483" y="1798"/>
      <point x="2346" y="1896"/>
      <point x="2166" y="1896" type="curve" smooth="yes"/>
      <point x="1989" y="1896"/>
      <point x="1735" y="1747"/>
      <point x="1564" y="1418" type="curve"/>
      <point x="1557" y="1422" type="line"/>
      <point x="1731" y="1764"/>
      <point x="1992" y="1904"/>
      <point x="2166" y="1904" type="curve" smooth="yes"/>
      <point x="2390" y="1904"/>
      <point x="2504" y="1755"/>
    </contour>
    <contour>
      <point x="906" y="664" type="curve" smooth="yes"/>
      <point x="1209" y="664"/>
      <point x="1383" y="1243"/>
      <point x="1383" y="1567" type="curve" smooth="yes"/>
      <point x="1383" y="1727"/>
      <point x="1322" y="1916"/>
      <point x="1182" y="1916" type="curve" smooth="yes"/>
      <point x="879" y="1916"/>
      <point x="705" y="1338"/>
      <point x="705" y="1014" type="curve" smooth="yes"/>
      <point x="705" y="854"/>
      <point x="766" y="664"/>
    </contour>
    <contour>
      <point x="901" y="656" type="curve" smooth="yes"/>
      <point x="538" y="656"/>
      <point x="242" y="800"/>
      <point x="242" y="1168" type="curve" smooth="yes"/>
      <point x="242" y="1618"/>
      <point x="702" y="1926"/>
      <point x="1187" y="1926" type="curve" smooth="yes"/>
      <point x="1550" y="1926"/>
      <point x="1844" y="1782"/>
      <point x="1844" y="1414" type="curve" smooth="yes"/>
      <point x="1844" y="964"/>
      <point x="1386" y="656"/>
    </contour>
  </outline>
</glyph>
<glyph name="h" format="2">
  <advance width="1189"/>
  <unicode hex="0068"/>
  <outline>
    <contour>
      <point x="754" y="615" type="line" smooth="yes"/>
      <point x="806" y="769"/>
      <point x="817" y="919"/>
      <point x="735" y="919" type="curve" smooth="yes"/>
      <point x="568" y="919"/>
      <point x="419" y="652"/>
      <point x="347" y="346" type="curve"/>
      <point x="342" y="346" type="line"/>
      <point x="417" y="653"/>
      <point x="556" y="940"/>
      <point x="786" y="940" type="curve" smooth="yes"/>
      <point x="985" y="940"/>
      <point x="1048" y="801"/>
      <point x="991" y="627" type="curve" smooth="yes"/>
      <point x="808" y="75" type="line" smooth="yes"/>
      <point x="804" y="63"/>
      <point x="802" y="49"/>
      <point x="802" y="39" type="curve" smooth="yes"/>
      <point x="802" y="17"/>
      <point x="814" y="2"/>
      <point x="840" y="2" type="curve" smooth="yes"/>
      <point x="957" y="2"/>
      <point x="1075" y="135"/>
      <point x="1146" y="327" type="curve"/>
      <point x="1149" y="326" type="line"/>
      <point x="1073" y="126"/>
      <point x="956" y="-20"/>
      <point x="779" y="-20" type="curve" smooth="yes"/>
      <point x="665" y="-20"/>
      <point x="603" y="33"/>
      <point x="603" y="129" type="curve" smooth="yes"/>
      <point x="603" y="159"/>
      <point x="609" y="183"/>
      <point x="613" y="199" type="curve" smooth="yes"/>
    </contour>
    <contour>
      <point x="380" y="1496" type="line"/>
      <point x="243" y="1496" type="line"/>
      <point x="243" y="1500" type="line"/>
      <point x="612" y="1500" type="line"/>
      <point x="268" y="0" type="line"/>
      <point x="38" y="0" type="line"/>
    </contour>
  </outline>
</glyph>
<glyph name="i" format="2">
  <advance width="685"/>
  <unicode hex="0069"/>
  <outline>
    <contour>
      <point x="306" y="1375" type="curve" smooth="yes"/>
      <point x="306" y="1456"/>
      <point x="369" y="1520"/>
      <point x="450" y="1520" type="curve" smooth="yes"/>
      <point x="531" y="1520"/>
      <point x="595" y="1456"/>
      <point x="595" y="1375" type="curve" smooth="yes"/>
      <point x="595" y="1294"/>
      <point x="531" y="1230"/>
      <point x="450" y="1230" type="curve" smooth="yes"/>
      <point x="369" y="1230"/>
      <point x="306" y="1294"/>
    </contour>
    <contour>
      <point x="646" y="326" type="line"/>
      <point x="570" y="126"/>
      <point x="442" y="-20"/>
      <point x="265" y="-20" type="curve" smooth="yes"/>
      <point x="156" y="-20"/>
      <point x="100" y="26"/>
      <point x="100" y="136" type="curve" smooth="yes"/>
      <point x="100" y="146"/>
      <point x="102" y="168"/>
      <point x="104" y="180" type="curve" smooth="yes"/>
      <point x="275" y="916" type="line"/>
      <point x="127" y="916" type="line"/>
      <point x="127" y="920" type="line"/>
      <point x="507" y="920" type="line"/>
      <point x="307" y="82" type="line" smooth="yes"/>
      <point x="305" y="70"/>
      <point x="303" y="56"/>
      <point x="303" y="46" type="curve" smooth="yes"/>
      <point x="303" y="24"/>
      <point x="313" y="5"/>
      <point x="339" y="5" type="curve" smooth="yes"/>
      <point x="452" y="5"/>
      <point x="573" y="138"/>
      <point x="644" y="328" type="curve"/>
    </contour>
  </outline>
</glyph>
<glyph name="j" format="2">
  <advance width="561"/>
  <unicode hex="006A"/>
  <outline>
    <contour>
      <point x="321" y="1375" type="curve" smooth="yes"/>
      <point x="321" y="1456"/>
      <point x="386" y="1520"/>
      <point x="467" y="1520" type="curve" smooth="yes"/>
      <point x="548" y="1520"/>
      <point x="612" y="1456"/>
      <point x="612" y="1375" type="curve" smooth="yes"/>
      <point x="612" y="1294"/>
      <point x="548" y="1230"/>
      <point x="467" y="1230" type="curve" smooth="yes"/>
      <point x="386" y="1230"/>
      <point x="321" y="1294"/>
    </contour>
    <contour>
      <point x="-369" y="-329" type="curve"/>
      <point x="-354" y="-420"/>
      <point x="-263" y="-515"/>
      <point x="-149" y="-515" type="curve" smooth="yes"/>
      <point x="36" y="-515"/>
      <point x="34" y="-200"/>
      <point x="90" y="40" type="curve" smooth="yes"/>
      <point x="294" y="916" type="line"/>
      <point x="106" y="916" type="line"/>
      <point x="106" y="920" type="line"/>
      <point x="519" y="920" type="line"/>
      <point x="322" y="-24" type="line" smooth="yes"/>
      <point x="270" y="-274"/>
      <point x="121" y="-520"/>
      <point x="-139" y="-520" type="curve" smooth="yes"/>
      <point x="-291" y="-520"/>
      <point x="-380" y="-391"/>
      <point x="-380" y="-302" type="curve" smooth="yes"/>
      <point x="-380" y="-210"/>
      <point x="-305" y="-148"/>
      <point x="-230" y="-148" type="curve" smooth="yes"/>
      <point x="-165" y="-148"/>
      <point x="-104" y="-194"/>
      <point x="-104" y="-273" type="curve" smooth="yes"/>
      <point x="-104" y="-357"/>
      <point x="-175" y="-409"/>
      <point x="-250" y="-409" type="curve" smooth="yes"/>
      <point x="-313" y="-409"/>
      <point x="-351" y="-369"/>
    </contour>
  </outline>
</glyph>
<glyph name="k" format="2">
  <advance width="2388"/>
  <unicode hex="006B"/>
  <outline>
    <contour>
      <point x="2303" y="668" type="line"/>
      <point x="2147" y="258"/>
      <point x="1894" y="-40"/>
      <point x="1542" y="-40" type="curve" smooth="yes"/>
      <point x="1319" y="-40"/>
      <point x="1198" y="53"/>
      <point x="1198" y="278" type="curve" smooth="yes"/>
      <point x="1198" y="298"/>
      <point x="1202" y="344"/>
      <point x="1206" y="368" type="curve" smooth="yes"/>
      <point x="1249" y="574" type="line" smooth="yes"/>
      <point x="1302" y="812"/>
      <point x="1449" y="1164"/>
      <point x="1186" y="1164" type="curve" smooth="yes"/>
      <point x="937" y="1164"/>
      <point x="869" y="928"/>
      <point x="836" y="778" type="curve"/>
      <point x="827" y="778" type="line"/>
      <point x="905" y="1132"/>
      <point x="1064" y="1189"/>
      <point x="1263" y="1189" type="curve" smooth="yes"/>
      <point x="1545" y="1189"/>
      <point x="1809" y="1028"/>
      <point x="1687" y="496" type="curve" smooth="yes"/>
      <point x="1600" y="110" type="line" smooth="yes"/>
      <point x="1600" y="102"/>
      <point x="1596" y="82"/>
      <point x="1596" y="74" type="curve" smooth="yes"/>
      <point x="1596" y="28"/>
      <point x="1624" y="8"/>
      <point x="1678" y="8" type="curve" smooth="yes"/>
      <point x="1913" y="8"/>
      <point x="2156" y="294"/>
      <point x="2297" y="672" type="curve"/>
    </contour>
    <contour>
      <point x="922" y="1024" type="curve"/>
      <point x="927" y="1030" type="line"/>
      <point x="950" y="1016"/>
      <point x="991" y="1000"/>
      <point x="1046" y="1000" type="curve" smooth="yes"/>
      <point x="1229" y="1000"/>
      <point x="1316" y="1214"/>
      <point x="1422" y="1476" type="curve" smooth="yes"/>
      <point x="1536" y="1754"/>
      <point x="1692" y="1926"/>
      <point x="1906" y="1926" type="curve" smooth="yes"/>
      <point x="2110" y="1926"/>
      <point x="2266" y="1786"/>
      <point x="2266" y="1553" type="curve" smooth="yes"/>
      <point x="2266" y="1359"/>
      <point x="2143" y="1266"/>
      <point x="2010" y="1266" type="curve" smooth="yes"/>
      <point x="1877" y="1266"/>
      <point x="1766" y="1365"/>
      <point x="1766" y="1511" type="curve" smooth="yes"/>
      <point x="1766" y="1646"/>
      <point x="1873" y="1744"/>
      <point x="2008" y="1744" type="curve" smooth="yes"/>
      <point x="2144" y="1744"/>
      <point x="2232" y="1659"/>
      <point x="2257" y="1570" type="curve"/>
      <point x="2247" y="1774"/>
      <point x="2114" y="1916"/>
      <point x="1906" y="1916" type="curve" smooth="yes"/>
      <point x="1700" y="1916"/>
      <point x="1546" y="1754"/>
      <point x="1430" y="1470" type="curve" smooth="yes"/>
      <point x="1316" y="1192"/>
      <point x="1230" y="992"/>
      <point x="1046" y="992" type="curve" smooth="yes"/>
      <point x="989" y="992"/>
      <point x="948" y="1009"/>
    </contour>
    <contour>
      <point x="892" y="3064" type="line"/>
      <point x="528" y="3064" type="line"/>
      <point x="528" y="3072" type="line"/>
      <point x="1368" y="3072" type="line"/>
      <point x="655" y="0" type="line"/>
      <point x="184" y="0" type="line"/>
    </contour>
  </outline>
</glyph>
<glyph name="l" format="2">
  <advance width="664"/>
  <unicode hex="006C"/>
  <outline>
    <contour>
      <point x="625" y="326" type="line"/>
      <point x="549" y="126"/>
      <point x="421" y="-20"/>
      <point x="244" y="-20" type="curve" smooth="yes"/>
      <point x="135" y="-20"/>
      <point x="80" y="26"/>
      <point x="80" y="136" type="curve" smooth="yes"/>
      <point x="80" y="146"/>
      <point x="82" y="168"/>
      <point x="84" y="180" type="curve" smooth="yes"/>
      <point x="385" y="1496" type="line"/>
      <point x="200" y="1496" type="line"/>
      <point x="200" y="1500" type="line"/>
      <point x="616" y="1500" type="line"/>
      <point x="287" y="82" type="line" smooth="yes"/>
      <point x="285" y="70"/>
      <point x="283" y="56"/>
      <point x="283" y="46" type="curve" smooth="yes"/>
      <point x="283" y="24"/>
      <point x="293" y="5"/>
      <point x="319" y="5" type="curve" smooth="yes"/>
      <point x="434" y="5"/>
      <point x="557" y="148"/>
      <point x="624" y="328" type="curve"/>
    </contour>
  </outline>
</glyph>
<glyph name="m" format="2">
  <advance width="1738"/>
  <unicode hex="006D"/>
  <outline>
    <contour>
      <point x="1303" y="615" type="line" smooth="yes"/>
      <point x="1355" y="769"/>
      <point x="1372" y="914"/>
      <point x="1290" y="914" type="curve" smooth="yes"/>
      <point x="1132" y="914"/>
      <point x="986" y="665"/>
      <point x="909" y="346" type="curve"/>
      <point x="905" y="346" type="line"/>
      <point x="981" y="650"/>
      <point x="1116" y="940"/>
      <point x="1344" y="940" type="curve" smooth="yes"/>
      <point x="1543" y="940"/>
      <point x="1597" y="801"/>
      <point x="1540" y="627" type="curve" smooth="yes"/>
      <point x="1358" y="75" type="line" smooth="yes"/>
      <point x="1354" y="63"/>
      <point x="1353" y="49"/>
      <point x="1353" y="39" type="curve" smooth="yes"/>
      <point x="1353" y="17"/>
      <point x="1365" y="1"/>
      <point x="1391" y="1" type="curve" smooth="yes"/>
      <point x="1512" y="1"/>
      <point x="1628" y="141"/>
      <point x="1697" y="328" type="curve"/>
      <point x="1699" y="326" type="line"/>
      <point x="1623" y="126"/>
      <point x="1505" y="-20"/>
      <point x="1328" y="-20" type="curve" smooth="yes"/>
      <point x="1214" y="-20"/>
      <point x="1152" y="33"/>
      <point x="1152" y="129" type="curve" smooth="yes"/>
      <point x="1152" y="159"/>
      <point x="1158" y="183"/>
      <point x="1162" y="199" type="curve" smooth="yes"/>
    </contour>
    <contour>
      <point x="825" y="0" type="line"/>
      <point x="595" y="0" type="line"/>
      <point x="745" y="616" type="line" smooth="yes"/>
      <point x="783" y="774"/>
      <point x="815" y="914"/>
      <point x="733" y="914" type="curve" smooth="yes"/>
      <point x="575" y="914"/>
      <point x="427" y="665"/>
      <point x="352" y="346" type="curve"/>
      <point x="348" y="346" type="line"/>
      <point x="420" y="647"/>
      <point x="558" y="940"/>
      <point x="788" y="940" type="curve" smooth="yes"/>
      <point x="987" y="940"/>
      <point x="1023" y="808"/>
      <point x="981" y="638" type="curve" smooth="yes"/>
    </contour>
    <contour>
      <point x="258" y="916" type="line"/>
      <point x="120" y="916" type="line"/>
      <point x="120" y="920" type="line"/>
      <point x="490" y="920" type="line"/>
      <point x="270" y="0" type="line"/>
      <point x="40" y="0" type="line"/>
    </contour>
  </outline>
</glyph>
<glyph name="n" format="2">
  <advance width="1199"/>
  <unicode hex="006E"/>
  <outline>
    <contour>
      <point x="256" y="916" type="line"/>
      <point x="118" y="916" type="line"/>
      <point x="118" y="920" type="line"/>
      <point x="488" y="920" type="line"/>
      <point x="268" y="0" type="line"/>
      <point x="38" y="0" type="line"/>
    </contour>
    <contour>
      <point x="754" y="615" type="line" smooth="yes"/>
      <point x="806" y="769"/>
      <point x="817" y="919"/>
      <point x="735" y="919" type="curve" smooth="yes"/>
      <point x="568" y="919"/>
      <point x="422" y="652"/>
      <point x="350" y="346" type="curve"/>
      <point x="345" y="346" type="line"/>
      <point x="420" y="653"/>
      <point x="556" y="940"/>
      <point x="786" y="940" type="curve" smooth="yes"/>
      <point x="985" y="940"/>
      <point x="1048" y="801"/>
      <point x="991" y="627" type="curve" smooth="yes"/>
      <point x="808" y="75" type="line" smooth="yes"/>
      <point x="804" y="63"/>
      <point x="802" y="49"/>
      <point x="802" y="39" type="curve" smooth="yes"/>
      <point x="802" y="17"/>
      <point x="814" y="2"/>
      <point x="840" y="2" type="curve" smooth="yes"/>
      <point x="957" y="2"/>
      <point x="1083" y="135"/>
      <point x="1154" y="327" type="curve"/>
      <point x="1158" y="326" type="line"/>
      <point x="1082" y="126"/>
      <point x="956" y="-20"/>
      <point x="779" y="-20" type="curve" smooth="yes"/>
      <point x="665" y="-20"/>
      <point x="603" y="33"/>
      <point x="603" y="129" type="curve" smooth="yes"/>
      <point x="603" y="159"/>
      <point x="609" y="183"/>
      <point x="613" y="199" type="curve" smooth="yes"/>
    </contour>
  </outline>
</glyph>
<glyph name="o" format="2">
  <advance width="1073"/>
  <unicode hex="006F"/>
  <outline>
    <contour>
      <point x="408" y="-20" type="curve" smooth="yes"/>
      <point x="221" y="-20"/>
      <point x="30" y="70"/>
      <point x="30" y="325" type="curve" smooth="yes"/>
      <point x="30" y="705"/>
      <point x="329" y="940"/>
      <point x="636" y="940" type="curve" smooth="yes"/>
      <point x="823" y="940"/>
      <point x="1014" y="850"/>
      <point x="1014" y="595" type="curve" smooth="yes"/>
      <point x="1014" y="215"/>
      <point x="715" y="-20"/>
    </contour>
    <contour>
      <point x="408" y="-14" type="curve" smooth="yes"/>
      <point x="636" y="-14"/>
      <point x="766" y="427"/>
      <point x="766" y="675" type="curve" smooth="yes"/>
      <point x="766" y="828"/>
      <point x="729" y="934"/>
      <point x="636" y="934" type="curve" smooth="yes"/>
      <point x="408" y="934"/>
      <point x="278" y="493"/>
      <point x="278" y="245" type="curve" smooth="yes"/>
      <point x="278" y="92"/>
      <point x="315" y="-14"/>
    </contour>
  </outline>
</glyph>
<glyph name="p" format="1">
  <advance width="2354"/>
  <unicode hex="0070"/>
  <outline>
    <contour>
      <point x="762" y="597" type="curve" smooth="yes"/>
      <point x="762" y="318"/>
      <point x="840" y="51"/>
      <point x="1028" y="51" type="curve" smooth="yes"/>
      <point x="1362" y="51"/>
      <point x="1724" y="792"/>
      <point x="1724" y="1340" type="curve" smooth="yes"/>
      <point x="1724" y="1643"/>
      <point x="1626" y="1846"/>
      <point x="1448" y="1846" type="curve" smooth="yes"/>
      <point x="1042" y="1846"/>
      <point x="762" y="1053"/>
    </contour>
    <contour>
      <point x="754" y="597" type="curve" smooth="yes"/>
      <point x="754" y="1039"/>
      <point x="1014" y="1925"/>
      <point x="1592" y="1925" type="curve" smooth="yes"/>
      <point x="1874" y="1925"/>
      <point x="2252" y="1759"/>
      <point x="2252" y="1227" type="curve" smooth="yes"/>
      <point x="2252" y="407"/>
      <point x="1601" y="-40"/>
      <point x="1185" y="-40" type="curve" smooth="yes"/>
      <point x="873" y="-40"/>
      <point x="754" y="221"/>
    </contour>
    <contour>
      <point x="-390" y="-1016" type="line"/>
      <point x="634" y="-1016" type="line"/>
      <point x="634" y="-1024" type="line"/>
      <point x="-390" y="-1024" type="line"/>
    </contour>
    <contour>
      <point x="544" y="1876" type="line"/>
      <point x="254" y="1876" type="line"/>
      <point x="254" y="1884" type="line"/>
      <point x="1020" y="1884" type="line"/>
      <point x="851" y="1162" type="line"/>
      <point x="798" y="945" type="line"/>
      <point x="773" y="794" type="line"/>
      <point x="348" y="-1024" type="line"/>
      <point x="-122" y="-1024" type="line"/>
    </contour>
  </outline>
</glyph>
<glyph name="q" format="1">
  <advance width="2314"/>
  <unicode hex="0071"/>
  <outline>
    <contour>
      <point x="1778" y="-1016" type="line"/>
      <point x="1778" y="-1024" type="line"/>
      <point x="774" y="-1024" type="line"/>
      <point x="774" y="-1016" type="line"/>
    </contour>
    <contour>
      <point x="1492" y="-1024" type="line"/>
      <point x="1040" y="-1024" type="line"/>
      <point x="1447" y="715" type="line"/>
      <point x="1477" y="817"/>
      <point x="1506" y="924"/>
      <point x="1525" y="1044" type="curve"/>
      <point x="1544" y="1176" type="line"/>
      <point x="1704" y="1844" type="line"/>
      <point x="2170" y="1926" type="line"/>
    </contour>
    <contour>
      <point x="1543" y="1286" type="curve" smooth="yes"/>
      <point x="1543" y="1565"/>
      <point x="1466" y="1832"/>
      <point x="1278" y="1832" type="curve" smooth="yes"/>
      <point x="944" y="1832"/>
      <point x="590" y="1091"/>
      <point x="590" y="543" type="curve" smooth="yes"/>
      <point x="590" y="240"/>
      <point x="678" y="37"/>
      <point x="856" y="37" type="curve" smooth="yes"/>
      <point x="1262" y="37"/>
      <point x="1543" y="830"/>
    </contour>
    <contour>
      <point x="1551" y="1286" type="curve" smooth="yes"/>
      <point x="1551" y="844"/>
      <point x="1290" y="-40"/>
      <point x="712" y="-40" type="curve" smooth="yes"/>
      <point x="430" y="-40"/>
      <point x="62" y="124"/>
      <point x="62" y="656" type="curve" smooth="yes"/>
      <point x="62" y="1476"/>
      <point x="704" y="1925"/>
      <point x="1120" y="1925" type="curve" smooth="yes"/>
      <point x="1432" y="1925"/>
      <point x="1551" y="1662"/>
    </contour>
  </outline>
</glyph>
<glyph name="r" format="2">
  <advance width="870"/>
  <unicode hex="0072"/>
  <outline>
    <contour>
      <point x="921" y="753" type="curve" smooth="yes"/>
      <point x="921" y="672"/>
      <point x="871" y="606"/>
      <point x="780" y="606" type="curve" smooth="yes"/>
      <point x="699" y="606"/>
      <point x="637" y="654"/>
      <point x="637" y="741" type="curve" smooth="yes"/>
      <point x="637" y="821"/>
      <point x="699" y="881"/>
      <point x="777" y="881" type="curve" smooth="yes"/>
      <point x="841" y="881"/>
      <point x="893" y="842"/>
      <point x="913" y="789" type="curve"/>
      <point x="895" y="876"/>
      <point x="810" y="936"/>
      <point x="717" y="936" type="curve" smooth="yes"/>
      <point x="496" y="936"/>
      <point x="403" y="542"/>
      <point x="357" y="346" type="curve"/>
      <point x="354" y="346" type="line"/>
      <point x="406" y="574"/>
      <point x="498" y="940"/>
      <point x="717" y="940" type="curve" smooth="yes"/>
      <point x="821" y="940"/>
      <point x="921" y="866"/>
    </contour>
    <contour>
      <point x="268" y="916" type="line"/>
      <point x="120" y="916" type="line"/>
      <point x="120" y="920" type="line"/>
      <point x="490" y="920" type="line"/>
      <point x="280" y="0" type="line"/>
      <point x="50" y="0" type="line"/>
    </contour>
  </outline>
</glyph>
<glyph name="s" format="2">
  <advance width="843"/>
  <unicode hex="0073"/>
  <outline>
    <contour>
      <point x="748" y="763" type="curve"/>
      <point x="732" y="858"/>
      <point x="618" y="934"/>
      <point x="463" y="934" type="curve" smooth="yes"/>
      <point x="352" y="934"/>
      <point x="274" y="867"/>
      <point x="274" y="785" type="curve" smooth="yes"/>
      <point x="274" y="575"/>
      <point x="714" y="560"/>
      <point x="714" y="294" type="curve" smooth="yes"/>
      <point x="714" y="106"/>
      <point x="529" y="-24"/>
      <point x="320" y="-24" type="curve" smooth="yes"/>
      <point x="92" y="-24"/>
      <point x="-10" y="105"/>
      <point x="-10" y="215" type="curve" smooth="yes"/>
      <point x="-10" y="302"/>
      <point x="59" y="349"/>
      <point x="123" y="349" type="curve" smooth="yes"/>
      <point x="178" y="349"/>
      <point x="248" y="312"/>
      <point x="248" y="227" type="curve" smooth="yes"/>
      <point x="248" y="152"/>
      <point x="186" y="107"/>
      <point x="124" y="107" type="curve" smooth="yes"/>
      <point x="50" y="107"/>
      <point x="5" y="158"/>
      <point x="-3" y="200" type="curve"/>
      <point x="7" y="89"/>
      <point x="116" y="-20"/>
      <point x="320" y="-20" type="curve" smooth="yes"/>
      <point x="460" y="-20"/>
      <point x="548" y="64"/>
      <point x="548" y="161" type="curve" smooth="yes"/>
      <point x="548" y="360"/>
      <point x="112" y="352"/>
      <point x="112" y="644" type="curve" smooth="yes"/>
      <point x="112" y="842"/>
      <point x="302" y="938"/>
      <point x="463" y="938" type="curve" smooth="yes"/>
      <point x="639" y="938"/>
      <point x="754" y="842"/>
      <point x="754" y="743" type="curve" smooth="yes"/>
      <point x="754" y="661"/>
      <point x="701" y="621"/>
      <point x="637" y="621" type="curve" smooth="yes"/>
      <point x="582" y="621"/>
      <point x="521" y="658"/>
      <point x="521" y="733" type="curve" smooth="yes"/>
      <point x="521" y="797"/>
      <point x="575" y="843"/>
      <point x="631" y="843" type="curve" smooth="yes"/>
      <point x="692" y="843"/>
      <point x="732" y="809"/>
    </contour>
  </outline>
</glyph>
<glyph name="t" format="2">
  <advance width="681"/>
  <unicode hex="0074"/>
  <outline>
    <contour>
      <point x="82" y="920" type="line"/>
      <point x="672" y="920" type="line"/>
      <point x="672" y="916" type="line"/>
      <point x="82" y="916" type="line"/>
    </contour>
    <contour>
      <point x="638" y="326" type="line"/>
      <point x="562" y="126"/>
      <point x="434" y="-20"/>
      <point x="257" y="-20" type="curve" smooth="yes"/>
      <point x="148" y="-20"/>
      <point x="90" y="26"/>
      <point x="90" y="136" type="curve" smooth="yes"/>
      <point x="90" y="146"/>
      <point x="93" y="168"/>
      <point x="95" y="180" type="curve" smooth="yes"/>
      <point x="300" y="1120" type="line"/>
      <point x="527" y="1120" type="line"/>
      <point x="300" y="82" type="line" smooth="yes"/>
      <point x="298" y="70"/>
      <point x="296" y="56"/>
      <point x="296" y="46" type="curve" smooth="yes"/>
      <point x="296" y="24"/>
      <point x="306" y="8"/>
      <point x="332" y="8" type="curve" smooth="yes"/>
      <point x="453" y="8"/>
      <point x="569" y="151"/>
      <point x="636" y="328" type="curve"/>
    </contour>
  </outline>
</glyph>
<glyph name="u" format="2">
  <advance width="1262"/>
  <unicode hex="0075"/>
  <outline>
    <contour>
      <point x="499" y="920" type="line"/>
      <point x="347" y="274" type="line" smooth="yes"/>
      <point x="311" y="116"/>
      <point x="309" y="12"/>
      <point x="394" y="12" type="curve" smooth="yes"/>
      <point x="536" y="12"/>
      <point x="692" y="251"/>
      <point x="771" y="574" type="curve"/>
      <point x="775" y="574" type="line"/>
      <point x="694" y="262"/>
      <point x="553" y="-20"/>
      <point x="325" y="-20" type="curve" smooth="yes"/>
      <point x="131" y="-20"/>
      <point x="87" y="118"/>
      <point x="123" y="282" type="curve" smooth="yes"/>
      <point x="264" y="916" type="line"/>
      <point x="125" y="916" type="line"/>
      <point x="125" y="920" type="line"/>
    </contour>
    <contour>
      <point x="1223" y="326" type="line"/>
      <point x="1147" y="126"/>
      <point x="1019" y="-20"/>
      <point x="842" y="-20" type="curve" smooth="yes"/>
      <point x="733" y="-20"/>
      <point x="676" y="26"/>
      <point x="676" y="136" type="curve" smooth="yes"/>
      <point x="676" y="146"/>
      <point x="678" y="168"/>
      <point x="680" y="180" type="curve" smooth="yes"/>
      <point x="846" y="920" type="line"/>
      <point x="1079" y="920" type="line"/>
      <point x="883" y="82" type="line" smooth="yes"/>
      <point x="881" y="70"/>
      <point x="879" y="56"/>
      <point x="879" y="46" type="curve" smooth="yes"/>
      <point x="879" y="24"/>
      <point x="889" y="8"/>
      <point x="915" y="8" type="curve" smooth="yes"/>
      <point x="1040" y="8"/>
      <point x="1157" y="158"/>
      <point x="1221" y="328" type="curve"/>
    </contour>
  </outline>
</glyph>
<glyph name="v" format="2">
  <advance width="1126"/>
  <unicode hex="0076"/>
  <outline>
    <contour>
      <point x="485" y="254" type="line" smooth="yes"/>
      <point x="459" y="96"/>
      <point x="436" y="-1"/>
      <point x="548" y="-1" type="curve" smooth="yes"/>
      <point x="760" y="-1"/>
      <point x="1093" y="369"/>
      <point x="1093" y="688" type="curve" smooth="yes"/>
      <point x="1093" y="759"/>
      <point x="1080" y="802"/>
      <point x="1068" y="823" type="curve"/>
      <point x="1068" y="770"/>
      <point x="1020" y="660"/>
      <point x="916" y="660" type="curve" smooth="yes"/>
      <point x="813" y="660"/>
      <point x="769" y="734"/>
      <point x="769" y="799" type="curve" smooth="yes"/>
      <point x="769" y="874"/>
      <point x="830" y="938"/>
      <point x="919" y="938" type="curve" smooth="yes"/>
      <point x="1050" y="938"/>
      <point x="1097" y="815"/>
      <point x="1097" y="688" type="curve" smooth="yes"/>
      <point x="1097" y="369"/>
      <point x="765" y="-20"/>
      <point x="499" y="-20" type="curve" smooth="yes"/>
      <point x="290" y="-20"/>
      <point x="224" y="103"/>
      <point x="256" y="277" type="curve" smooth="yes"/>
      <point x="359" y="838" type="line" smooth="yes"/>
      <point x="361" y="850"/>
      <point x="363" y="864"/>
      <point x="363" y="874" type="curve" smooth="yes"/>
      <point x="363" y="896"/>
      <point x="350" y="912"/>
      <point x="322" y="912" type="curve" smooth="yes"/>
      <point x="196" y="912"/>
      <point x="86" y="753"/>
      <point x="24" y="592" type="curve"/>
      <point x="20" y="594" type="line"/>
      <point x="101" y="794"/>
      <point x="214" y="940"/>
      <point x="401" y="940" type="curve" smooth="yes"/>
      <point x="515" y="940"/>
      <point x="569" y="887"/>
      <point x="569" y="796" type="curve" smooth="yes"/>
      <point x="569" y="766"/>
      <point x="564" y="745"/>
      <point x="561" y="726" type="curve" smooth="yes"/>
    </contour>
  </outline>
</glyph>
<glyph name="w" format="1">
  <advance width="3476"/>
  <unicode hex="0077"/>
  <outline>
    <contour>
      <point x="830" y="570" type="line" smooth="yes"/>
      <point x="724" y="254"/>
      <point x="742" y="10"/>
      <point x="930" y="10" type="curve" smooth="yes"/>
      <point x="1286" y="10"/>
      <point x="1596" y="556"/>
      <point x="1747" y="1176" type="curve"/>
      <point x="1755" y="1176" type="line"/>
      <point x="1599" y="574"/>
      <point x="1317" y="-40"/>
      <point x="807" y="-40" type="curve" smooth="yes"/>
      <point x="389" y="-40"/>
      <point x="255" y="232"/>
      <point x="368" y="578" type="curve" smooth="yes"/>
      <point x="746" y="1716" type="line" smooth="yes"/>
      <point x="754" y="1740"/>
      <point x="758" y="1770"/>
      <point x="758" y="1790" type="curve" smooth="yes"/>
      <point x="758" y="1836"/>
      <point x="732" y="1868"/>
      <point x="675" y="1868" type="curve" smooth="yes"/>
      <point x="407" y="1868"/>
      <point x="194" y="1570"/>
      <point x="49" y="1212" type="curve"/>
      <point x="40" y="1216" type="line"/>
      <point x="206" y="1626"/>
      <point x="438" y="1926"/>
      <point x="821" y="1926" type="curve" smooth="yes"/>
      <point x="1044" y="1926"/>
      <point x="1167" y="1822"/>
      <point x="1167" y="1626" type="curve" smooth="yes"/>
      <point x="1167" y="1564"/>
      <point x="1154" y="1515"/>
      <point x="1146" y="1487" type="curve" smooth="yes"/>
    </contour>
    <contour>
      <point x="1915" y="1884" type="line"/>
      <point x="2386" y="1884" type="line"/>
      <point x="2109" y="712" type="line" smooth="yes"/>
      <point x="2027" y="368"/>
      <point x="2042" y="-7"/>
      <point x="2376" y="-7" type="curve" smooth="yes"/>
      <point x="3013" y="-7"/>
      <point x="3408" y="902"/>
      <point x="3408" y="1410" type="curve" smooth="yes"/>
      <point x="3408" y="1522"/>
      <point x="3386" y="1613"/>
      <point x="3371" y="1646" type="curve"/>
      <point x="3363" y="1464"/>
      <point x="3228" y="1352"/>
      <point x="3036" y="1352" type="curve" smooth="yes"/>
      <point x="2841" y="1352"/>
      <point x="2740" y="1504"/>
      <point x="2740" y="1637" type="curve" smooth="yes"/>
      <point x="2740" y="1790"/>
      <point x="2869" y="1922"/>
      <point x="3047" y="1922" type="curve" smooth="yes"/>
      <point x="3295" y="1922"/>
      <point x="3416" y="1691"/>
      <point x="3416" y="1410" type="curve" smooth="yes"/>
      <point x="3416" y="960"/>
      <point x="3067" y="-40"/>
      <point x="2289" y="-40" type="curve" smooth="yes"/>
      <point x="1915" y="-40"/>
      <point x="1485" y="170"/>
      <point x="1689" y="949" type="curve"/>
    </contour>
  </outline>
</glyph>
<glyph name="x" format="2">
  <advance width="1127"/>
  <unicode hex="0078"/>
  <outline>
    <contour>
      <point x="582" y="483" type="line"/>
      <point x="702" y="679"/>
      <point x="798" y="940"/>
      <point x="971" y="940" type="curve" smooth="yes"/>
      <point x="1103" y="940"/>
      <point x="1153" y="842"/>
      <point x="1153" y="768" type="curve" smooth="yes"/>
      <point x="1153" y="686"/>
      <point x="1104" y="628"/>
      <point x="1018" y="628" type="curve" smooth="yes"/>
      <point x="928" y="628"/>
      <point x="888" y="702"/>
      <point x="888" y="762" type="curve" smooth="yes"/>
      <point x="888" y="826"/>
      <point x="940" y="892"/>
      <point x="1019" y="892" type="curve" smooth="yes"/>
      <point x="1080" y="892"/>
      <point x="1126" y="855"/>
      <point x="1145" y="804" type="curve"/>
      <point x="1132" y="869"/>
      <point x="1075" y="936"/>
      <point x="973" y="936" type="curve" smooth="yes"/>
      <point x="802" y="936"/>
      <point x="708" y="680"/>
      <point x="588" y="481" type="curve"/>
    </contour>
    <contour>
      <point x="571" y="526" type="line"/>
      <point x="418" y="270"/>
      <point x="300" y="-20"/>
      <point x="127" y="-20" type="curve" smooth="yes"/>
      <point x="-5" y="-20"/>
      <point x="-55" y="78"/>
      <point x="-55" y="152" type="curve" smooth="yes"/>
      <point x="-55" y="234"/>
      <point x="-5" y="292"/>
      <point x="81" y="292" type="curve" smooth="yes"/>
      <point x="171" y="292"/>
      <point x="211" y="218"/>
      <point x="211" y="158" type="curve" smooth="yes"/>
      <point x="211" y="94"/>
      <point x="159" y="28"/>
      <point x="76" y="28" type="curve" smooth="yes"/>
      <point x="7" y="28"/>
      <point x="-38" y="78"/>
      <point x="-50" y="129" type="curve"/>
      <point x="-34" y="35"/>
      <point x="35" y="-16"/>
      <point x="127" y="-16" type="curve" smooth="yes"/>
      <point x="296" y="-16"/>
      <point x="420" y="278"/>
      <point x="569" y="528" type="curve"/>
    </contour>
    <contour>
      <point x="1042" y="218" type="line"/>
      <point x="976" y="43"/>
      <point x="881" y="-20"/>
      <point x="757" y="-20" type="curve" smooth="yes"/>
      <point x="623" y="-20"/>
      <point x="561" y="50"/>
      <point x="527" y="156" type="curve" smooth="yes"/>
      <point x="476" y="326"/>
      <point x="379" y="718"/>
      <point x="327" y="862" type="curve" smooth="yes"/>
      <point x="319" y="884"/>
      <point x="307" y="910"/>
      <point x="269" y="910" type="curve" smooth="yes"/>
      <point x="207" y="910"/>
      <point x="138" y="828"/>
      <point x="89" y="698" type="curve"/>
      <point x="85" y="698" type="line"/>
      <point x="150" y="873"/>
      <point x="233" y="944"/>
      <point x="377" y="944" type="curve" smooth="yes"/>
      <point x="511" y="944"/>
      <point x="564" y="874"/>
      <point x="598" y="768" type="curve" smooth="yes"/>
      <point x="651" y="590"/>
      <point x="731" y="259"/>
      <point x="801" y="65" type="curve" smooth="yes"/>
      <point x="809" y="43"/>
      <point x="834" y="17"/>
      <point x="863" y="17" type="curve" smooth="yes"/>
      <point x="914" y="17"/>
      <point x="986" y="79"/>
      <point x="1038" y="218" type="curve"/>
    </contour>
  </outline>
</glyph>
<glyph name="y" format="2">
  <advance width="1190"/>
  <unicode hex="0079"/>
  <outline>
    <contour>
      <point x="671" y="-162" type="curve"/>
      <point x="513" y="108"/>
      <point x="362" y="714"/>
      <point x="308" y="858" type="curve" smooth="yes"/>
      <point x="300" y="880"/>
      <point x="288" y="907"/>
      <point x="252" y="907" type="curve" smooth="yes"/>
      <point x="190" y="907"/>
      <point x="111" y="813"/>
      <point x="70" y="692" type="curve"/>
      <point x="66" y="694" type="line"/>
      <point x="132" y="874"/>
      <point x="228" y="940"/>
      <point x="362" y="940" type="curve" smooth="yes"/>
      <point x="488" y="940"/>
      <point x="549" y="868"/>
      <point x="581" y="762" type="curve" smooth="yes"/>
      <point x="635" y="582"/>
      <point x="708" y="246"/>
      <point x="840" y="50" type="curve"/>
      <point x="787" y="-23"/>
      <point x="729" y="-94"/>
    </contour>
    <contour>
      <point x="170" y="-520" type="curve" smooth="yes"/>
      <point x="16" y="-520"/>
      <point x="-70" y="-412"/>
      <point x="-70" y="-287" type="curve" smooth="yes"/>
      <point x="-70" y="-206"/>
      <point x="-12" y="-130"/>
      <point x="74" y="-130" type="curve" smooth="yes"/>
      <point x="139" y="-130"/>
      <point x="206" y="-172"/>
      <point x="206" y="-258" type="curve" smooth="yes"/>
      <point x="206" y="-334"/>
      <point x="148" y="-386"/>
      <point x="76" y="-386" type="curve" smooth="yes"/>
      <point x="2" y="-386"/>
      <point x="-53" y="-345"/>
      <point x="-65" y="-292" type="curve"/>
      <point x="-64" y="-416"/>
      <point x="24" y="-516"/>
      <point x="170" y="-516" type="curve" smooth="yes"/>
      <point x="542" y="-516"/>
      <point x="1165" y="470"/>
      <point x="1165" y="728" type="curve" smooth="yes"/>
      <point x="1165" y="780"/>
      <point x="1150" y="821"/>
      <point x="1131" y="845" type="curve"/>
      <point x="1150" y="721"/>
      <point x="1065" y="672"/>
      <point x="998" y="672" type="curve" smooth="yes"/>
      <point x="903" y="672"/>
      <point x="850" y="746"/>
      <point x="850" y="806" type="curve" smooth="yes"/>
      <point x="850" y="876"/>
      <point x="907" y="940"/>
      <point x="996" y="940" type="curve" smooth="yes"/>
      <point x="1123" y="940"/>
      <point x="1169" y="820"/>
      <point x="1169" y="728" type="curve" smooth="yes"/>
      <point x="1169" y="468"/>
      <point x="545" y="-520"/>
    </contour>
  </outline>
</glyph>
<glyph name="z" format="2">
  <advance width="838"/>
  <unicode hex="007A"/>
  <outline>
    <contour>
      <point x="47" y="529" type="line"/>
      <point x="143" y="939" type="line"/>
      <point x="251" y="879"/>
      <point x="371" y="861"/>
      <point x="478" y="861" type="curve" smooth="yes"/>
      <point x="584" y="861"/>
      <point x="763" y="877"/>
      <point x="832" y="939" type="curve"/>
      <point x="835" y="936" type="line"/>
      <point x="677" y="796"/>
      <point x="496" y="660"/>
      <point x="346" y="660" type="curve" smooth="yes"/>
      <point x="258" y="660"/>
      <point x="154" y="694"/>
      <point x="102" y="741" type="curve"/>
      <point x="51" y="529" type="line"/>
    </contour>
    <contour>
      <point x="-62" y="-11" type="line"/>
      <point x="-75" y="-18" type="line"/>
      <point x="830" y="937" type="line"/>
      <point x="835" y="936" type="line"/>
    </contour>
    <contour>
      <point x="810" y="339" type="curve"/>
      <point x="796" y="284"/>
      <point x="750" y="237"/>
      <point x="681" y="237" type="curve" smooth="yes"/>
      <point x="620" y="237"/>
      <point x="560" y="287"/>
      <point x="560" y="357" type="curve" smooth="yes"/>
      <point x="560" y="437"/>
      <point x="623" y="479"/>
      <point x="683" y="479" type="curve" smooth="yes"/>
      <point x="753" y="479"/>
      <point x="813" y="435"/>
      <point x="813" y="343" type="curve" smooth="yes"/>
      <point x="813" y="233"/>
      <point x="693" y="-20"/>
      <point x="499" y="-20" type="curve" smooth="yes"/>
      <point x="367" y="-20"/>
      <point x="311" y="78"/>
      <point x="179" y="78" type="curve" smooth="yes"/>
      <point x="83" y="78"/>
      <point x="-8" y="44"/>
      <point x="-72" y="-20" type="curve"/>
      <point x="-74" y="-18" type="line"/>
      <point x="57" y="102"/>
      <point x="229" y="230"/>
      <point x="369" y="230" type="curve" smooth="yes"/>
      <point x="492" y="230"/>
      <point x="521" y="129"/>
      <point x="655" y="129" type="curve" smooth="yes"/>
      <point x="755" y="129"/>
      <point x="805" y="257"/>
    </contour>
  </outline>
</glyph>
<glyph name="braceleft" format="2">
  <advance width="593"/>
  <unicode hex="007B"/>
  <outline>
    <contour>
      <point x="813" y="1560" type="curve"/>
      <point x="813" y="1547" type="line"/>
      <point x="644" y="1547"/>
      <point x="543" y="1405"/>
      <point x="543" y="1234" type="curve" smooth="yes"/>
      <point x="543" y="1122"/>
      <point x="563" y="1062"/>
      <point x="563" y="912" type="curve" smooth="yes"/>
      <point x="563" y="731"/>
      <point x="333" y="647"/>
      <point x="170" y="627" type="curve"/>
      <point x="170" y="638" type="line"/>
      <point x="230" y="658"/>
      <point x="345" y="712"/>
      <point x="345" y="814" type="curve" smooth="yes"/>
      <point x="345" y="925"/>
      <point x="304" y="968"/>
      <point x="304" y="1142" type="curve" smooth="yes"/>
      <point x="304" y="1390"/>
      <point x="483" y="1560"/>
    </contour>
    <contour>
      <point x="394" y="-300" type="line"/>
      <point x="124" y="-300"/>
      <point x="10" y="-238"/>
      <point x="10" y="-65" type="curve" smooth="yes"/>
      <point x="10" y="174"/>
      <point x="270" y="364"/>
      <point x="270" y="490" type="curve" smooth="yes"/>
      <point x="270" y="572"/>
      <point x="230" y="604"/>
      <point x="170" y="624" type="curve"/>
      <point x="170" y="634" type="line"/>
      <point x="333" y="614"/>
      <point x="434" y="571"/>
      <point x="434" y="430" type="curve" smooth="yes"/>
      <point x="434" y="230"/>
      <point x="246" y="60"/>
      <point x="246" y="-92" type="curve" smooth="yes"/>
      <point x="246" y="-194"/>
      <point x="270" y="-287"/>
      <point x="394" y="-287" type="curve"/>
    </contour>
  </outline>
</glyph>
<glyph name="bar" format="1">
  <advance width="942"/>
  <unicode hex="007C"/>
  <outline>
    <contour>
      <point x="1044" y="3194" type="line"/>
      <point x="1052" y="3194" type="line"/>
      <point x="70" y="-1024" type="line"/>
      <point x="62" y="-1024" type="line"/>
    </contour>
  </outline>
</glyph>
<glyph name="asciitilde" format="2">
  <advance width="1375"/>
  <unicode hex="007E"/>
  <outline>
    <contour>
      <point x="541" y="859" type="curve" smooth="yes"/>
      <point x="420" y="859"/>
      <point x="350" y="815"/>
      <point x="312" y="686" type="curve"/>
      <point x="300" y="686" type="line"/>
      <point x="345" y="916"/>
      <point x="455" y="1035"/>
      <point x="623" y="1035" type="curve" smooth="yes"/>
      <point x="843" y="1035"/>
      <point x="863" y="847"/>
      <point x="1055" y="847" type="curve" smooth="yes"/>
      <point x="1197" y="847"/>
      <point x="1265" y="891"/>
      <point x="1303" y="1020" type="curve"/>
      <point x="1316" y="1020" type="line"/>
      <point x="1271" y="790"/>
      <point x="1161" y="671"/>
      <point x="993" y="671" type="curve" smooth="yes"/>
      <point x="754" y="671"/>
      <point x="717" y="859"/>
    </contour>
  </outline>
</glyph>
<glyph name="cent" format="2">
  <advance width="1961"/>
  <unicode hex="00A2"/>
  <outline>
    <contour>
      <point x="1390" y="2274" type="line"/>
      <point x="694" y="-348" type="line"/>
      <point x="686" y="-348" type="line"/>
      <point x="1382" y="2274" type="line"/>
    </contour>
    <component base="c"/>
  </outline>
</glyph>
<glyph name="sterling" format="2">
  <advance width="1250"/>
  <unicode hex="00A3"/>
  <outline>
    <contour>
      <point x="1233" y="375" type="line"/>
      <point x="1193" y="80"/>
      <point x="1012" y="-60"/>
      <point x="804" y="-60" type="curve" smooth="yes"/>
      <point x="530" y="-60"/>
      <point x="411" y="60"/>
      <point x="285" y="60" type="curve" smooth="yes"/>
      <point x="198" y="60"/>
      <point x="105" y="20"/>
      <point x="70" y="-40" type="curve"/>
      <point x="66" y="-40" type="line"/>
      <point x="130" y="128"/>
      <point x="289" y="254"/>
      <point x="479" y="254" type="curve" smooth="yes"/>
      <point x="679" y="254"/>
      <point x="708" y="186"/>
      <point x="896" y="186" type="curve" smooth="yes"/>
      <point x="1057" y="186"/>
      <point x="1189" y="211"/>
      <point x="1229" y="375" type="curve"/>
    </contour>
    <contour>
      <point x="1080" y="810" type="line"/>
      <point x="1080" y="806" type="line"/>
      <point x="130" y="806" type="line"/>
      <point x="130" y="810" type="line"/>
    </contour>
    <contour>
      <point x="376" y="1024" type="curve" smooth="yes"/>
      <point x="376" y="1324"/>
      <point x="657" y="1520"/>
      <point x="1019" y="1520" type="curve" smooth="yes"/>
      <point x="1298" y="1520"/>
      <point x="1427" y="1356"/>
      <point x="1427" y="1182" type="curve" smooth="yes"/>
      <point x="1427" y="1085"/>
      <point x="1356" y="1028"/>
      <point x="1281" y="1028" type="curve" smooth="yes"/>
      <point x="1211" y="1028"/>
      <point x="1137" y="1075"/>
      <point x="1137" y="1170" type="curve" smooth="yes"/>
      <point x="1137" y="1255"/>
      <point x="1208" y="1305"/>
      <point x="1281" y="1305" type="curve" smooth="yes"/>
      <point x="1358" y="1305"/>
      <point x="1413" y="1247"/>
      <point x="1423" y="1195" type="curve"/>
      <point x="1420" y="1359"/>
      <point x="1287" y="1510"/>
      <point x="1054" y="1510" type="curve" smooth="yes"/>
      <point x="796" y="1510"/>
      <point x="668" y="1263"/>
      <point x="668" y="1115" type="curve" smooth="yes"/>
      <point x="668" y="982"/>
      <point x="710" y="905"/>
      <point x="710" y="740" type="curve" smooth="yes"/>
      <point x="710" y="350"/>
      <point x="47" y="300"/>
      <point x="68" y="-40" type="curve"/>
      <point x="64" y="-40" type="line"/>
      <point x="31" y="238"/>
      <point x="438" y="390"/>
      <point x="438" y="622" type="curve" smooth="yes"/>
      <point x="438" y="735"/>
      <point x="376" y="854"/>
    </contour>
  </outline>
</glyph>
<glyph name="brokenbar" format="1">
  <advance width="900"/>
  <unicode hex="00A6"/>
  <outline>
    <contour>
      <point x="439" y="680" type="line"/>
      <point x="447" y="680" type="line"/>
      <point x="55" y="-1024" type="line"/>
      <point x="47" y="-1024" type="line"/>
    </contour>
    <contour>
      <point x="1021" y="3194" type="line"/>
      <point x="1029" y="3194" type="line"/>
      <point x="677" y="1676" type="line"/>
      <point x="669" y="1676" type="line"/>
    </contour>
  </outline>
</glyph>
<glyph name="section" format="2">
  <advance width="947"/>
  <unicode hex="00A7"/>
  <outline>
    <contour>
      <point x="427" y="1278" type="curve" smooth="yes"/>
      <point x="427" y="1061"/>
      <point x="931" y="1111"/>
      <point x="931" y="810" type="curve" smooth="yes"/>
      <point x="931" y="651"/>
      <point x="758" y="583"/>
      <point x="652" y="513" type="curve"/>
      <point x="649" y="513" type="line"/>
      <point x="717" y="557"/>
      <point x="769" y="616"/>
      <point x="769" y="696" type="curve" smooth="yes"/>
      <point x="769" y="913"/>
      <point x="284" y="835"/>
      <point x="284" y="1179" type="curve" smooth="yes"/>
      <point x="284" y="1387"/>
      <point x="496" y="1520"/>
      <point x="696" y="1520" type="curve" smooth="yes"/>
      <point x="892" y="1520"/>
      <point x="1011" y="1389"/>
      <point x="1011" y="1257" type="curve" smooth="yes"/>
      <point x="1011" y="1135"/>
      <point x="954" y="1080"/>
      <point x="874" y="1080" type="curve" smooth="yes"/>
      <point x="804" y="1080"/>
      <point x="751" y="1125"/>
      <point x="751" y="1207" type="curve" smooth="yes"/>
      <point x="751" y="1276"/>
      <point x="812" y="1327"/>
      <point x="880" y="1327" type="curve" smooth="yes"/>
      <point x="952" y="1327"/>
      <point x="996" y="1279"/>
      <point x="1007" y="1258" type="curve"/>
      <point x="1004" y="1380"/>
      <point x="904" y="1514"/>
      <point x="696" y="1514" type="curve" smooth="yes"/>
      <point x="550" y="1514"/>
      <point x="427" y="1407"/>
    </contour>
    <contour>
      <point x="820" y="339" type="curve" smooth="yes"/>
      <point x="820" y="131"/>
      <point x="605" y="-20"/>
      <point x="365" y="-20" type="curve" smooth="yes"/>
      <point x="189" y="-20"/>
      <point x="7" y="66"/>
      <point x="7" y="258" type="curve" smooth="yes"/>
      <point x="7" y="345"/>
      <point x="71" y="427"/>
      <point x="161" y="427" type="curve" smooth="yes"/>
      <point x="231" y="427"/>
      <point x="285" y="385"/>
      <point x="285" y="308" type="curve" smooth="yes"/>
      <point x="285" y="234"/>
      <point x="224" y="181"/>
      <point x="141" y="181" type="curve" smooth="yes"/>
      <point x="75" y="181"/>
      <point x="25" y="217"/>
      <point x="12" y="265" type="curve"/>
      <point x="12" y="69"/>
      <point x="186" y="-14"/>
      <point x="365" y="-14" type="curve" smooth="yes"/>
      <point x="571" y="-14"/>
      <point x="663" y="133"/>
      <point x="663" y="227" type="curve" smooth="yes"/>
      <point x="663" y="455"/>
      <point x="138" y="394"/>
      <point x="138" y="680" type="curve" smooth="yes"/>
      <point x="138" y="824"/>
      <point x="301" y="948"/>
      <point x="394" y="995" type="curve"/>
      <point x="397" y="995" type="line"/>
      <point x="364" y="971"/>
      <point x="327" y="911"/>
      <point x="327" y="829" type="curve" smooth="yes"/>
      <point x="327" y="582"/>
      <point x="820" y="683"/>
    </contour>
  </outline>
</glyph>
<glyph name="guillemotleft" format="1">
  <advance width="2846"/>
  <unicode hex="00AB"/>
  <outline>
    <contour>
      <point x="2072" y="1590" type="line"/>
      <point x="2606" y="598" type="line"/>
      <point x="2600" y="594" type="line"/>
      <point x="1454" y="1536" type="line"/>
      <point x="1454" y="1638" type="line"/>
      <point x="3052" y="2580" type="line"/>
      <point x="3056" y="2576" type="line"/>
    </contour>
    <contour>
      <point x="926" y="1590" type="line"/>
      <point x="1458" y="598" type="line"/>
      <point x="1454" y="594" type="line"/>
      <point x="308" y="1536" type="line"/>
      <point x="308" y="1638" type="line"/>
      <point x="1904" y="2580" type="line"/>
      <point x="1908" y="2576" type="line"/>
    </contour>
  </outline>
</glyph>
<glyph name="degree" format="2">
  <advance width="639"/>
  <unicode hex="00B0"/>
  <outline>
    <contour>
      <point x="388" y="1360" type="curve" smooth="yes"/>
      <point x="388" y="1492"/>
      <point x="496" y="1600"/>
      <point x="628" y="1600" type="curve" smooth="yes"/>
      <point x="760" y="1600"/>
      <point x="868" y="1492"/>
      <point x="868" y="1360" type="curve" smooth="yes"/>
      <point x="868" y="1228"/>
      <point x="760" y="1120"/>
      <point x="628" y="1120" type="curve" smooth="yes"/>
      <point x="496" y="1120"/>
      <point x="388" y="1228"/>
    </contour>
    <contour>
      <point x="428" y="1360" type="curve" smooth="yes"/>
      <point x="428" y="1246"/>
      <point x="514" y="1160"/>
      <point x="628" y="1160" type="curve" smooth="yes"/>
      <point x="742" y="1160"/>
      <point x="828" y="1246"/>
      <point x="828" y="1360" type="curve" smooth="yes"/>
      <point x="828" y="1474"/>
      <point x="742" y="1560"/>
      <point x="628" y="1560" type="curve" smooth="yes"/>
      <point x="514" y="1560"/>
      <point x="428" y="1474"/>
    </contour>
  </outline>
</glyph>
<glyph name="acute" format="2">
  <advance width="798"/>
  <unicode hex="00B4"/>
  <outline>
    <contour>
      <point x="935" y="1417" type="curve" smooth="yes"/>
      <point x="459" y="1438" type="line"/>
      <point x="458" y="1442" type="line"/>
      <point x="915" y="1591" type="line" smooth="yes"/>
      <point x="981" y="1614"/>
      <point x="1035" y="1558"/>
      <point x="1035" y="1505" type="curve" smooth="yes"/>
      <point x="1035" y="1452"/>
      <point x="988" y="1412"/>
    </contour>
  </outline>
</glyph>
<glyph name="cedilla" format="2">
  <advance width="2252"/>
  <unicode hex="00B8"/>
  <outline>
    <contour>
      <point x="970" y="-324" type="line"/>
      <point x="1462" y="168" type="line"/>
      <point x="1470" y="168" type="line"/>
      <point x="978" y="-324" type="line"/>
    </contour>
    <contour>
      <point x="970" y="-324" type="curve"/>
      <point x="1141" y="-160" type="line"/>
      <point x="1483" y="-160"/>
      <point x="1737" y="-236"/>
      <point x="1737" y="-450" type="curve" smooth="yes"/>
      <point x="1737" y="-716"/>
      <point x="1360" y="-902"/>
      <point x="915" y="-902" type="curve"/>
      <point x="915" y="-892" type="line"/>
      <point x="1157" y="-892"/>
      <point x="1347" y="-754"/>
      <point x="1347" y="-532" type="curve" smooth="yes"/>
      <point x="1347" y="-366"/>
      <point x="1216" y="-324"/>
    </contour>
  </outline>
</glyph>
<glyph name="AE" format="2">
  <advance width="2029"/>
  <unicode hex="00C6"/>
  <outline>
    <contour>
      <point x="1394" y="1500" type="line"/>
      <point x="2218" y="1500" type="line"/>
      <point x="2122" y="1090" type="line"/>
      <point x="2118" y="1090" type="line"/>
      <point x="2153" y="1304"/>
      <point x="2067" y="1496"/>
      <point x="1833" y="1496" type="curve" smooth="yes"/>
      <point x="1394" y="1496" type="line"/>
    </contour>
    <contour>
      <point x="1481" y="774" type="curve" smooth="yes"/>
      <point x="1344" y="774" type="line"/>
      <point x="1344" y="778" type="line"/>
      <point x="1481" y="778" type="line" smooth="yes"/>
      <point x="1595" y="778"/>
      <point x="1727" y="867"/>
      <point x="1772" y="1001" type="curve"/>
      <point x="1776" y="1001" type="line"/>
      <point x="1671" y="541" type="line"/>
      <point x="1667" y="541" type="line"/>
      <point x="1682" y="675"/>
      <point x="1595" y="774"/>
    </contour>
    <contour>
      <point x="1890" y="0" type="line"/>
      <point x="800" y="0" type="line"/>
      <point x="800" y="4" type="line"/>
      <point x="1485" y="4" type="line" smooth="yes"/>
      <point x="1759" y="4"/>
      <point x="1917" y="196"/>
      <point x="1990" y="450" type="curve"/>
      <point x="1994" y="450" type="line"/>
    </contour>
    <contour>
      <point x="1318" y="1500" type="line"/>
      <point x="1568" y="1500" type="line"/>
      <point x="1220" y="0" type="line"/>
      <point x="970" y="0" type="line"/>
    </contour>
    <contour>
      <point x="530" y="492" type="line"/>
      <point x="1110" y="492" type="line"/>
      <point x="1110" y="488" type="line"/>
      <point x="530" y="488" type="line"/>
    </contour>
    <contour>
      <point x="1314" y="1500" type="line"/>
      <point x="1320" y="1500" type="line"/>
      <point x="150" y="0" type="line"/>
      <point x="144" y="0" type="line"/>
    </contour>
    <contour>
      <point x="-50" y="4" type="line"/>
      <point x="390" y="4" type="line"/>
      <point x="390" y="0" type="line"/>
      <point x="-50" y="0" type="line"/>
    </contour>
  </outline>
</glyph>
<glyph name="Eth" format="2">
  <advance width="1452"/>
  <unicode hex="00D0"/>
  <outline>
    <contour>
      <point x="171" y="752" type="line"/>
      <point x="732" y="752" type="line"/>
      <point x="732" y="748" type="line"/>
      <point x="171" y="748" type="line"/>
    </contour>
    <contour>
      <point x="476" y="1500" type="line"/>
      <point x="726" y="1500" type="line"/>
      <point x="385" y="0" type="line"/>
      <point x="135" y="0" type="line"/>
    </contour>
    <contour>
      <point x="590" y="0" type="curve" smooth="yes"/>
      <point x="-44" y="0" type="line"/>
      <point x="-44" y="4" type="line"/>
      <point x="562" y="4" type="line" smooth="yes"/>
      <point x="973" y="4"/>
      <point x="1202" y="667"/>
      <point x="1202" y="1091" type="curve" smooth="yes"/>
      <point x="1202" y="1275"/>
      <point x="1138" y="1496"/>
      <point x="890" y="1496" type="curve" smooth="yes"/>
      <point x="275" y="1496" type="line"/>
      <point x="275" y="1500" type="line"/>
      <point x="930" y="1500" type="line" smooth="yes"/>
      <point x="1256" y="1500"/>
      <point x="1480" y="1307"/>
      <point x="1480" y="981" type="curve" smooth="yes"/>
      <point x="1480" y="435"/>
      <point x="1076" y="0"/>
    </contour>
  </outline>
</glyph>
<glyph name="Thorn" format="1">
  <advance width="2611"/>
  <unicode hex="00DE"/>
  <outline>
    <contour>
      <point x="1305" y="738" type="curve" smooth="yes"/>
      <point x="855" y="738" type="line"/>
      <point x="855" y="746" type="line"/>
      <point x="1254" y="746" type="line" smooth="yes"/>
      <point x="1791" y="746"/>
      <point x="2081" y="1397"/>
      <point x="2081" y="1843" type="curve" smooth="yes"/>
      <point x="2081" y="2085"/>
      <point x="2006" y="2450"/>
      <point x="1664" y="2450" type="curve" smooth="yes"/>
      <point x="1049" y="2450" type="line"/>
      <point x="1049" y="2458" type="line"/>
      <point x="1715" y="2458" type="line" smooth="yes"/>
      <point x="2251" y="2458"/>
      <point x="2652" y="2264"/>
      <point x="2652" y="1772" type="curve" smooth="yes"/>
      <point x="2652" y="1158"/>
      <point x="2129" y="738"/>
    </contour>
    <contour>
      <point x="-122" y="8" type="line"/>
      <point x="1126" y="8" type="line"/>
      <point x="1126" y="0" type="line"/>
      <point x="-122" y="0" type="line"/>
    </contour>
    <contour>
      <point x="582" y="3072" type="line"/>
      <point x="1832" y="3072" type="line"/>
      <point x="1832" y="3064" type="line"/>
      <point x="582" y="3064" type="line"/>
    </contour>
    <contour>
      <point x="946" y="3072" type="line"/>
      <point x="1458" y="3072" type="line"/>
      <point x="748" y="0" type="line"/>
      <point x="235" y="0" type="line"/>
    </contour>
  </outline>
</glyph>
<glyph name="germandbls" format="2">
  <advance width="1446"/>
  <unicode hex="00DF"/>
  <outline>
    <contour>
      <point x="1387" y="405" type="curve" smooth="yes"/>
      <point x="1387" y="100"/>
      <point x="1124" y="-20"/>
      <point x="917" y="-20" type="curve" smooth="yes"/>
      <point x="729" y="-20"/>
      <point x="636" y="104"/>
      <point x="636" y="252" type="curve" smooth="yes"/>
      <point x="636" y="369"/>
      <point x="705" y="442"/>
      <point x="790" y="442" type="curve" smooth="yes"/>
      <point x="865" y="442"/>
      <point x="923" y="392"/>
      <point x="923" y="310" type="curve" smooth="yes"/>
      <point x="923" y="236"/>
      <point x="846" y="180"/>
      <point x="778" y="180" type="curve" smooth="yes"/>
      <point x="706" y="180"/>
      <point x="653" y="227"/>
      <point x="642" y="284" type="curve"/>
      <point x="624" y="120"/>
      <point x="723" y="-12"/>
      <point x="897" y="-12" type="curve" smooth="yes"/>
      <point x="1075" y="-12"/>
      <point x="1130" y="222"/>
      <point x="1130" y="410" type="curve" smooth="yes"/>
      <point x="1130" y="598"/>
      <point x="1054" y="808"/>
      <point x="846" y="808" type="curve"/>
      <point x="846" y="812" type="line"/>
      <point x="1208" y="812"/>
      <point x="1387" y="665"/>
    </contour>
    <contour>
      <point x="-50" y="4" type="line"/>
      <point x="550" y="4" type="line"/>
      <point x="550" y="0" type="line"/>
      <point x="-50" y="0" type="line"/>
    </contour>
    <contour>
      <point x="846" y="810" type="curve"/>
      <point x="846" y="814" type="line"/>
      <point x="1104" y="814"/>
      <point x="1250" y="1049"/>
      <point x="1250" y="1217" type="curve" smooth="yes"/>
      <point x="1250" y="1361"/>
      <point x="1199" y="1516"/>
      <point x="1021" y="1516" type="curve" smooth="yes"/>
      <point x="733" y="1516"/>
      <point x="652" y="1232"/>
      <point x="590" y="962" type="curve" smooth="yes"/>
      <point x="370" y="0" type="line"/>
      <point x="130" y="0" type="line"/>
      <point x="352" y="982" type="line" smooth="yes"/>
      <point x="429" y="1326"/>
      <point x="655" y="1520"/>
      <point x="1026" y="1520" type="curve" smooth="yes"/>
      <point x="1292" y="1520"/>
      <point x="1509" y="1418"/>
      <point x="1509" y="1202" type="curve" smooth="yes"/>
      <point x="1509" y="973"/>
      <point x="1248" y="810"/>
    </contour>
  </outline>
</glyph>
<glyph name="ae" format="2">
  <advance width="1600"/>
  <unicode hex="00E6"/>
  <outline>
    <contour>
      <point x="548" y="504" type="curve" smooth="yes"/>
      <point x="706" y="504" type="line"/>
      <point x="706" y="500" type="line"/>
      <point x="578" y="500" type="line" smooth="yes"/>
      <point x="421" y="500"/>
      <point x="287" y="350"/>
      <point x="287" y="166" type="curve" smooth="yes"/>
      <point x="287" y="57"/>
      <point x="330" y="-14"/>
      <point x="390" y="-14" type="curve" smooth="yes"/>
      <point x="499" y="-14"/>
      <point x="602" y="166"/>
      <point x="646" y="362" type="curve" smooth="yes"/>
      <point x="702" y="610" type="line" smooth="yes"/>
      <point x="730" y="738"/>
      <point x="731" y="930"/>
      <point x="576" y="930" type="curve" smooth="yes"/>
      <point x="478" y="930"/>
      <point x="328" y="895"/>
      <point x="267" y="808" type="curve"/>
      <point x="393" y="880"/>
      <point x="498" y="815"/>
      <point x="498" y="736" type="curve" smooth="yes"/>
      <point x="498" y="651"/>
      <point x="425" y="602"/>
      <point x="355" y="602" type="curve" smooth="yes"/>
      <point x="275" y="602"/>
      <point x="226" y="645"/>
      <point x="226" y="722" type="curve" smooth="yes"/>
      <point x="226" y="846"/>
      <point x="404" y="936"/>
      <point x="596" y="936" type="curve" smooth="yes"/>
      <point x="856" y="936"/>
      <point x="919" y="797"/>
      <point x="887" y="610" type="curve"/>
      <point x="806" y="362" type="line"/>
      <point x="760" y="114"/>
      <point x="582" y="-20"/>
      <point x="350" y="-20" type="curve" smooth="yes"/>
      <point x="182" y="-20"/>
      <point x="36" y="38"/>
      <point x="36" y="186" type="curve" smooth="yes"/>
      <point x="36" y="374"/>
      <point x="224" y="504"/>
    </contour>
    <contour>
      <point x="1361" y="754" type="curve" smooth="yes"/>
      <point x="1361" y="843"/>
      <point x="1341" y="935"/>
      <point x="1277" y="935" type="curve" smooth="yes"/>
      <point x="1124" y="935"/>
      <point x="923" y="599"/>
      <point x="923" y="271" type="curve" smooth="yes"/>
      <point x="923" y="127"/>
      <point x="970" y="-1"/>
      <point x="1083" y="-1" type="curve" smooth="yes"/>
      <point x="1249" y="-1"/>
      <point x="1411" y="132"/>
      <point x="1494" y="286" type="curve"/>
      <point x="1498" y="286" type="line"/>
      <point x="1415" y="132"/>
      <point x="1250" y="-20"/>
      <point x="1013" y="-20" type="curve" smooth="yes"/>
      <point x="851" y="-20"/>
      <point x="710" y="80"/>
      <point x="710" y="320" type="curve"/>
      <point x="750" y="310" type="line"/>
      <point x="754" y="690"/>
      <point x="1012" y="940"/>
      <point x="1287" y="940" type="curve" smooth="yes"/>
      <point x="1451" y="940"/>
      <point x="1593" y="887"/>
      <point x="1593" y="739" type="curve" smooth="yes"/>
      <point x="1593" y="449"/>
      <point x="1087" y="446"/>
      <point x="905" y="446" type="curve"/>
      <point x="905" y="449" type="line"/>
      <point x="1083" y="449"/>
      <point x="1361" y="486"/>
    </contour>
  </outline>
</glyph>
<glyph name="eth" format="2">
  <advance width="1168"/>
  <unicode hex="00F0"/>
  <outline>
    <contour>
      <point x="445" y="1260" type="line"/>
      <point x="1305" y="1260" type="line"/>
      <point x="1305" y="1256" type="line"/>
      <point x="445" y="1256" type="line"/>
    </contour>
    <contour>
      <point x="1164" y="790" type="curve" smooth="yes"/>
      <point x="1164" y="370"/>
      <point x="844" y="-20"/>
      <point x="497" y="-20" type="curve" smooth="yes"/>
      <point x="240" y="-20"/>
      <point x="80" y="90"/>
      <point x="80" y="350" type="curve" smooth="yes"/>
      <point x="80" y="760"/>
      <point x="426" y="980"/>
      <point x="668" y="980" type="curve" smooth="yes"/>
      <point x="856" y="980"/>
      <point x="889" y="846"/>
      <point x="884" y="612" type="curve"/>
      <point x="878" y="700" type="line"/>
      <point x="878" y="825"/>
      <point x="840" y="962"/>
      <point x="722" y="962" type="curve" smooth="yes"/>
      <point x="519" y="962"/>
      <point x="334" y="582"/>
      <point x="334" y="270" type="curve" smooth="yes"/>
      <point x="334" y="126"/>
      <point x="362" y="-16"/>
      <point x="495" y="-16" type="curve" smooth="yes"/>
      <point x="688" y="-16"/>
      <point x="878" y="447"/>
      <point x="878" y="700" type="curve"/>
      <point x="878" y="700" type="line"/>
      <point x="883" y="1124"/>
      <point x="893" y="1516"/>
      <point x="475" y="1516" type="curve"/>
      <point x="475" y="1520" type="line"/>
      <point x="946" y="1520"/>
      <point x="1164" y="1191"/>
    </contour>
  </outline>
</glyph>
<glyph name="thorn" format="2">
  <advance width="1184"/>
  <unicode hex="00FE"/>
  <outline>
    <contour>
      <point x="398" y="292" type="curve" smooth="yes"/>
      <point x="398" y="156"/>
      <point x="435" y="25"/>
      <point x="527" y="25" type="curve" smooth="yes"/>
      <point x="690" y="25"/>
      <point x="867" y="386"/>
      <point x="867" y="654" type="curve" smooth="yes"/>
      <point x="867" y="802"/>
      <point x="820" y="901"/>
      <point x="733" y="901" type="curve" smooth="yes"/>
      <point x="535" y="901"/>
      <point x="398" y="515"/>
    </contour>
    <contour>
      <point x="393" y="292" type="curve" smooth="yes"/>
      <point x="393" y="508"/>
      <point x="521" y="940"/>
      <point x="803" y="940" type="curve" smooth="yes"/>
      <point x="941" y="940"/>
      <point x="1125" y="859"/>
      <point x="1125" y="599" type="curve" smooth="yes"/>
      <point x="1125" y="199"/>
      <point x="807" y="-20"/>
      <point x="604" y="-20" type="curve" smooth="yes"/>
      <point x="452" y="-20"/>
      <point x="393" y="108"/>
    </contour>
    <contour>
      <point x="-160" y="-496" type="line"/>
      <point x="340" y="-496" type="line"/>
      <point x="340" y="-500" type="line"/>
      <point x="-160" y="-500" type="line"/>
    </contour>
    <contour>
      <point x="427" y="1496" type="line"/>
      <point x="285" y="1496" type="line"/>
      <point x="285" y="1500" type="line"/>
      <point x="659" y="1500" type="line"/>
      <point x="449" y="582" type="line"/>
      <point x="413" y="450" type="line"/>
      <point x="396" y="340" type="line"/>
      <point x="200" y="-500" type="line"/>
      <point x="-30" y="-500" type="line"/>
    </contour>
  </outline>
</glyph>
<glyph name="dotlessi" format="2">
  <advance width="685"/>
  <unicode hex="0131"/>
  <outline>
    <contour>
      <point x="646" y="326" type="line"/>
      <point x="570" y="126"/>
      <point x="442" y="-20"/>
      <point x="265" y="-20" type="curve" smooth="yes"/>
      <point x="156" y="-20"/>
      <point x="100" y="26"/>
      <point x="100" y="136" type="curve" smooth="yes"/>
      <point x="100" y="146"/>
      <point x="102" y="168"/>
      <point x="104" y="180" type="curve" smooth="yes"/>
      <point x="275" y="916" type="line"/>
      <point x="127" y="916" type="line"/>
      <point x="127" y="920" type="line"/>
      <point x="507" y="920" type="line"/>
      <point x="307" y="82" type="line" smooth="yes"/>
      <point x="305" y="70"/>
      <point x="303" y="56"/>
      <point x="303" y="46" type="curve" smooth="yes"/>
      <point x="303" y="24"/>
      <point x="313" y="5"/>
      <point x="339" y="5" type="curve" smooth="yes"/>
      <point x="452" y="5"/>
      <point x="573" y="138"/>
      <point x="644" y="328" type="curve"/>
    </contour>
  </outline>
</glyph>
<glyph name="kgreenlandic" format="2">
  <advance width="1166"/>
  <unicode hex="0138"/>
  <outline>
    <contour>
      <point x="1125" y="326" type="line"/>
      <point x="1049" y="126"/>
      <point x="925" y="-20"/>
      <point x="753" y="-20" type="curve" smooth="yes"/>
      <point x="644" y="-20"/>
      <point x="585" y="26"/>
      <point x="585" y="136" type="curve" smooth="yes"/>
      <point x="585" y="146"/>
      <point x="587" y="168"/>
      <point x="589" y="180" type="curve" smooth="yes"/>
      <point x="610" y="280" type="line" smooth="yes"/>
      <point x="636" y="396"/>
      <point x="707" y="568"/>
      <point x="579" y="568" type="curve" smooth="yes"/>
      <point x="457" y="568"/>
      <point x="424" y="453"/>
      <point x="408" y="380" type="curve"/>
      <point x="404" y="380" type="line"/>
      <point x="442" y="553"/>
      <point x="520" y="581"/>
      <point x="617" y="581" type="curve" smooth="yes"/>
      <point x="755" y="581"/>
      <point x="884" y="502"/>
      <point x="824" y="242" type="curve" smooth="yes"/>
      <point x="781" y="54" type="line" smooth="yes"/>
      <point x="781" y="50"/>
      <point x="779" y="40"/>
      <point x="779" y="36" type="curve" smooth="yes"/>
      <point x="779" y="14"/>
      <point x="793" y="4"/>
      <point x="819" y="4" type="curve" smooth="yes"/>
      <point x="934" y="4"/>
      <point x="1053" y="143"/>
      <point x="1122" y="328" type="curve"/>
    </contour>
    <contour>
      <point x="450" y="500" type="curve"/>
      <point x="453" y="503" type="line"/>
      <point x="464" y="496"/>
      <point x="484" y="488"/>
      <point x="511" y="488" type="curve" smooth="yes"/>
      <point x="600" y="488"/>
      <point x="642" y="593"/>
      <point x="694" y="721" type="curve" smooth="yes"/>
      <point x="750" y="857"/>
      <point x="827" y="940"/>
      <point x="931" y="940" type="curve" smooth="yes"/>
      <point x="1031" y="940"/>
      <point x="1106" y="872"/>
      <point x="1106" y="758" type="curve" smooth="yes"/>
      <point x="1106" y="663"/>
      <point x="1046" y="618"/>
      <point x="981" y="618" type="curve" smooth="yes"/>
      <point x="916" y="618"/>
      <point x="862" y="667"/>
      <point x="862" y="738" type="curve" smooth="yes"/>
      <point x="862" y="804"/>
      <point x="914" y="852"/>
      <point x="980" y="852" type="curve" smooth="yes"/>
      <point x="1046" y="852"/>
      <point x="1090" y="810"/>
      <point x="1102" y="767" type="curve"/>
      <point x="1097" y="867"/>
      <point x="1033" y="936"/>
      <point x="931" y="936" type="curve" smooth="yes"/>
      <point x="830" y="936"/>
      <point x="755" y="857"/>
      <point x="698" y="718" type="curve" smooth="yes"/>
      <point x="642" y="582"/>
      <point x="601" y="484"/>
      <point x="511" y="484" type="curve" smooth="yes"/>
      <point x="483" y="484"/>
      <point x="463" y="493"/>
    </contour>
    <contour>
      <point x="302" y="916" type="line"/>
      <point x="124" y="916" type="line"/>
      <point x="124" y="920" type="line"/>
      <point x="534" y="920" type="line"/>
      <point x="320" y="0" type="line"/>
      <point x="90" y="0" type="line"/>
    </contour>
  </outline>
</glyph>
<glyph name="Lslash" format="2">
  <advance width="1167"/>
  <unicode hex="0141"/>
  <outline>
    <contour>
      <point x="75" y="720" type="line"/>
      <point x="815" y="1160" type="line"/>
      <point x="815" y="1156" type="line"/>
      <point x="75" y="716" type="line"/>
    </contour>
    <component base="L"/>
  </outline>
</glyph>
<glyph name="uni0212" format="2">
  <advance width="3035"/>
  <unicode hex="0212"/>
  <outline>
    <contour>
      <point x="2455" y="3358" type="line"/>
      <point x="2490" y="3546"/>
      <point x="2295" y="3642"/>
      <point x="2073" y="3642" type="curve" smooth="yes"/>
      <point x="1851" y="3642"/>
      <point x="1574" y="3558"/>
      <point x="1528" y="3358" type="curve"/>
      <point x="1520" y="3358" type="line"/>
      <point x="1560" y="3608"/>
      <point x="1715" y="3949"/>
      <point x="2114" y="3949" type="curve" smooth="yes"/>
      <point x="2503" y="3949"/>
      <point x="2503" y="3608"/>
      <point x="2463" y="3358" type="curve"/>
    </contour>
    <component base="R"/>
  </outline>
</glyph>
<glyph name="uni0213" format="2">
  <advance width="870"/>
  <unicode hex="0213"/>
  <outline>
    <contour>
      <point x="816" y="1064" type="line"/>
      <point x="833" y="1156"/>
      <point x="737" y="1203"/>
      <point x="629" y="1203" type="curve" smooth="yes"/>
      <point x="521" y="1203"/>
      <point x="385" y="1162"/>
      <point x="363" y="1064" type="curve"/>
      <point x="359" y="1064" type="line"/>
      <point x="379" y="1186"/>
      <point x="454" y="1354"/>
      <point x="649" y="1354" type="curve" smooth="yes"/>
      <point x="839" y="1354"/>
      <point x="840" y="1186"/>
      <point x="820" y="1064" type="curve"/>
    </contour>
    <component base="r"/>
  </outline>
</glyph>
<glyph name="circumflex" format="2">
  <advance width="819"/>
  <unicode hex="02C6"/>
  <outline>
    <contour>
      <point x="669" y="1425" type="line"/>
      <point x="322" y="1293" type="line"/>
      <point x="320" y="1295" type="line"/>
      <point x="599" y="1540" type="line"/>
      <point x="749" y="1540" type="line"/>
      <point x="939" y="1295" type="line"/>
      <point x="938" y="1293" type="line"/>
    </contour>
  </outline>
</glyph>
<glyph name="caron" format="1">
  <advance width="1678"/>
  <unicode hex="02C7"/>
  <outline>
    <contour>
      <point x="1281" y="2949" type="line"/>
      <point x="1995" y="3219" type="line"/>
      <point x="1999" y="3215" type="line"/>
      <point x="1434" y="2713" type="line"/>
      <point x="1126" y="2713" type="line"/>
      <point x="729" y="3215" type="line"/>
      <point x="733" y="3219" type="line"/>
    </contour>
  </outline>
</glyph>
<glyph name="breve" format="2">
  <advance width="579"/>
  <unicode hex="02D8"/>
  <outline>
    <contour>
      <point x="324" y="1518" type="line"/>
      <point x="307" y="1426"/>
      <point x="402" y="1380"/>
      <point x="510" y="1380" type="curve" smooth="yes"/>
      <point x="618" y="1380"/>
      <point x="754" y="1420"/>
      <point x="776" y="1518" type="curve"/>
      <point x="780" y="1518" type="line"/>
      <point x="760" y="1396"/>
      <point x="685" y="1230"/>
      <point x="490" y="1230" type="curve" smooth="yes"/>
      <point x="315" y="1230"/>
      <point x="300" y="1396"/>
      <point x="320" y="1518" type="curve"/>
    </contour>
  </outline>
</glyph>
<glyph name="ring" format="1">
  <advance width="1310"/>
  <unicode hex="02DA"/>
  <outline>
    <contour>
      <point x="752" y="2786" type="curve" smooth="yes"/>
      <point x="752" y="2994"/>
      <point x="917" y="3154"/>
      <point x="1146" y="3154" type="curve" smooth="yes"/>
      <point x="1375" y="3154"/>
      <point x="1542" y="2994"/>
      <point x="1542" y="2786" type="curve" smooth="yes"/>
      <point x="1542" y="2578"/>
      <point x="1375" y="2416"/>
      <point x="1146" y="2416" type="curve" smooth="yes"/>
      <point x="917" y="2416"/>
      <point x="752" y="2578"/>
    </contour>
    <contour>
      <point x="946" y="2668" type="curve" smooth="yes"/>
      <point x="946" y="2527"/>
      <point x="984" y="2425"/>
      <point x="1116" y="2425" type="curve" smooth="yes"/>
      <point x="1258" y="2425"/>
      <point x="1348" y="2742"/>
      <point x="1348" y="2904" type="curve" smooth="yes"/>
      <point x="1348" y="3045"/>
      <point x="1310" y="3145"/>
      <point x="1178" y="3145" type="curve" smooth="yes"/>
      <point x="1036" y="3145"/>
      <point x="946" y="2830"/>
    </contour>
  </outline>
</glyph>
<glyph name="ogonek" format="2">
  <advance width="1099"/>
  <unicode hex="02DB"/>
  <outline>
    <contour>
      <point x="671" y="-226" type="line"/>
      <point x="641" y="-282"/>
      <point x="573" y="-382"/>
      <point x="416" y="-382" type="curve" smooth="yes"/>
      <point x="304" y="-382"/>
      <point x="199" y="-345"/>
      <point x="199" y="-230" type="curve" smooth="yes"/>
      <point x="199" y="-70"/>
      <point x="441" y="41"/>
      <point x="583" y="86" type="curve"/>
      <point x="585" y="83" type="line"/>
      <point x="523" y="47"/>
      <point x="428" y="-59"/>
      <point x="428" y="-215" type="curve" smooth="yes"/>
      <point x="428" y="-304"/>
      <point x="461" y="-352"/>
      <point x="506" y="-352" type="curve" smooth="yes"/>
      <point x="584" y="-352"/>
      <point x="640" y="-273"/>
      <point x="667" y="-224" type="curve"/>
    </contour>
  </outline>
</glyph>
<glyph name="pi" format="2">
  <advance width="1221"/>
  <unicode hex="03C0"/>
  <outline>
    <contour>
      <point x="173" y="-20" type="curve" smooth="yes"/>
      <point x="86" y="-20"/>
      <point x="40" y="31"/>
      <point x="40" y="91" type="curve" smooth="yes"/>
      <point x="40" y="262"/>
      <point x="294" y="190"/>
      <point x="400" y="568" type="curve" smooth="yes"/>
      <point x="494" y="900" type="line"/>
      <point x="606" y="900" type="line"/>
      <point x="496" y="486" type="line" smooth="yes"/>
      <point x="418" y="190"/>
      <point x="344" y="-20"/>
    </contour>
    <contour>
      <point x="1112" y="206" type="line"/>
      <point x="1061" y="66"/>
      <point x="972" y="-20"/>
      <point x="831" y="-20" type="curve" smooth="yes"/>
      <point x="727" y="-20"/>
      <point x="635" y="59"/>
      <point x="667" y="189" type="curve" smooth="yes"/>
      <point x="832" y="840" type="line"/>
      <point x="1072" y="840" type="line"/>
      <point x="897" y="187" type="line" smooth="yes"/>
      <point x="877" y="113"/>
      <point x="910" y="90"/>
      <point x="958" y="90" type="curve" smooth="yes"/>
      <point x="1036" y="90"/>
      <point x="1072" y="139"/>
      <point x="1110" y="208" type="curve"/>
    </contour>
    <contour>
      <point x="1252" y="920" type="line"/>
      <point x="1179" y="690" type="line"/>
      <point x="163" y="690" type="line"/>
      <point x="127" y="540" type="line"/>
      <point x="123" y="540" type="line"/>
      <point x="214" y="920" type="line"/>
    </contour>
  </outline>
</glyph>
<glyph name="uni2031" format="2">
  <advance width="8078"/>
  <unicode hex="2031"/>
  <outline>
    <contour>
      <point x="6974" y="-40" type="curve" smooth="yes"/>
      <point x="6573" y="-40"/>
      <point x="6307" y="152"/>
      <point x="6307" y="574" type="curve" smooth="yes"/>
      <point x="6307" y="1242"/>
      <point x="6777" y="1762"/>
      <point x="7342" y="1762" type="curve" smooth="yes"/>
      <point x="7743" y="1762"/>
      <point x="8008" y="1568"/>
      <point x="8008" y="1146" type="curve" smooth="yes"/>
      <point x="8008" y="478"/>
      <point x="7539" y="-40"/>
    </contour>
    <contour>
      <point x="7352" y="1755" type="curve" smooth="yes"/>
      <point x="7079" y="1755"/>
      <point x="6789" y="894"/>
      <point x="6789" y="405" type="curve" smooth="yes"/>
      <point x="6789" y="162"/>
      <point x="6845" y="-32"/>
      <point x="6964" y="-32" type="curve" smooth="yes"/>
      <point x="7237" y="-32"/>
      <point x="7521" y="777"/>
      <point x="7521" y="1266" type="curve" smooth="yes"/>
      <point x="7521" y="1509"/>
      <point x="7471" y="1755"/>
    </contour>
    <contour>
      <point x="4967" y="-40" type="curve" smooth="yes"/>
      <point x="4566" y="-40"/>
      <point x="4300" y="152"/>
      <point x="4300" y="574" type="curve" smooth="yes"/>
      <point x="4300" y="1242"/>
      <point x="4770" y="1762"/>
      <point x="5335" y="1762" type="curve" smooth="yes"/>
      <point x="5736" y="1762"/>
      <point x="6000" y="1568"/>
      <point x="6000" y="1146" type="curve" smooth="yes"/>
      <point x="6000" y="478"/>
      <point x="5532" y="-40"/>
    </contour>
    <contour>
      <point x="5346" y="1755" type="curve" smooth="yes"/>
      <point x="5073" y="1755"/>
      <point x="4782" y="894"/>
      <point x="4782" y="405" type="curve" smooth="yes"/>
      <point x="4782" y="162"/>
      <point x="4838" y="-32"/>
      <point x="4957" y="-32" type="curve" smooth="yes"/>
      <point x="5230" y="-32"/>
      <point x="5514" y="777"/>
      <point x="5514" y="1266" type="curve" smooth="yes"/>
      <point x="5514" y="1509"/>
      <point x="5465" y="1755"/>
    </contour>
    <contour>
      <point x="2990" y="-40" type="curve" smooth="yes"/>
      <point x="2589" y="-40"/>
      <point x="2325" y="152"/>
      <point x="2325" y="574" type="curve" smooth="yes"/>
      <point x="2325" y="1242"/>
      <point x="2793" y="1762"/>
      <point x="3358" y="1762" type="curve" smooth="yes"/>
      <point x="3759" y="1762"/>
      <point x="4025" y="1568"/>
      <point x="4025" y="1146" type="curve" smooth="yes"/>
      <point x="4025" y="478"/>
      <point x="3555" y="-40"/>
    </contour>
    <contour>
      <point x="3368" y="1755" type="curve" smooth="yes"/>
      <point x="3095" y="1755"/>
      <point x="2806" y="894"/>
      <point x="2806" y="405" type="curve" smooth="yes"/>
      <point x="2806" y="162"/>
      <point x="2861" y="-32"/>
      <point x="2980" y="-32" type="curve" smooth="yes"/>
      <point x="3253" y="-32"/>
      <point x="3538" y="777"/>
      <point x="3538" y="1266" type="curve" smooth="yes"/>
      <point x="3538" y="1509"/>
      <point x="3487" y="1755"/>
    </contour>
    <contour>
      <point x="3658" y="3072" type="line"/>
      <point x="3666" y="3072" type="line"/>
      <point x="798" y="0" type="line"/>
      <point x="790" y="0" type="line"/>
    </contour>
    <contour>
      <point x="1126" y="1310" type="curve" smooth="yes"/>
      <point x="725" y="1310"/>
      <point x="461" y="1504"/>
      <point x="461" y="1926" type="curve" smooth="yes"/>
      <point x="461" y="2594"/>
      <point x="931" y="3112"/>
      <point x="1496" y="3112" type="curve" smooth="yes"/>
      <point x="1897" y="3112"/>
      <point x="2161" y="2920"/>
      <point x="2161" y="2498" type="curve" smooth="yes"/>
      <point x="2161" y="1830"/>
      <point x="1691" y="1310"/>
    </contour>
    <contour>
      <point x="1506" y="3104" type="curve" smooth="yes"/>
      <point x="1233" y="3104"/>
      <point x="942" y="2246"/>
      <point x="942" y="1757" type="curve" smooth="yes"/>
      <point x="942" y="1514"/>
      <point x="997" y="1318"/>
      <point x="1116" y="1318" type="curve" smooth="yes"/>
      <point x="1389" y="1318"/>
      <point x="1674" y="2183"/>
      <point x="1674" y="2672" type="curve" smooth="yes"/>
      <point x="1674" y="2915"/>
      <point x="1625" y="3104"/>
    </contour>
  </outline>
</glyph>
<glyph name="uni203D" format="1">
  <advance width="2374"/>
  <unicode hex="203D"/>
  <outline>
    <contour>
      <point x="1753" y="2197" type="curve" smooth="yes"/>
      <point x="1675" y="1762"/>
      <point x="1290" y="1538"/>
      <point x="1126" y="924" type="curve"/>
      <point x="1118" y="924" type="line"/>
      <point x="1240" y="1538"/>
      <point x="1208" y="1752"/>
      <point x="1208" y="2064" type="curve" smooth="yes"/>
      <point x="1208" y="2314"/>
      <point x="1279" y="2501"/>
      <point x="1500" y="2501" type="curve" smooth="yes"/>
      <point x="1664" y="2501"/>
      <point x="1785" y="2375"/>
    </contour>
    <contour>
      <point x="2064" y="2498" type="curve" smooth="yes"/>
      <point x="2064" y="2802"/>
      <point x="1924" y="3099"/>
      <point x="1550" y="3099" type="curve" smooth="yes"/>
      <point x="1052" y="3099"/>
      <point x="645" y="2749"/>
      <point x="595" y="2479" type="curve"/>
      <point x="633" y="2531"/>
      <point x="721" y="2624"/>
      <point x="847" y="2624" type="curve" smooth="yes"/>
      <point x="975" y="2624"/>
      <point x="1112" y="2530"/>
      <point x="1112" y="2360" type="curve" smooth="yes"/>
      <point x="1112" y="2165"/>
      <point x="949" y="2084"/>
      <point x="827" y="2084" type="curve" smooth="yes"/>
      <point x="684" y="2084"/>
      <point x="564" y="2191"/>
      <point x="564" y="2379" type="curve" smooth="yes"/>
      <point x="564" y="2735"/>
      <point x="1031" y="3112"/>
      <point x="1592" y="3112" type="curve" smooth="yes"/>
      <point x="2087" y="3112"/>
      <point x="2560" y="2918"/>
      <point x="2560" y="2416" type="curve" smooth="yes"/>
      <point x="2560" y="1822"/>
      <point x="1873" y="1372"/>
      <point x="1286" y="1372" type="curve"/>
      <point x="1286" y="1378" type="line"/>
      <point x="1673" y="1504"/>
      <point x="2064" y="1994"/>
    </contour>
    <component base="period" xOffset="600"/>
  </outline>
</glyph>
<glyph name="Euro" format="2">
  <advance width="1474"/>
  <unicode hex="20AC"/>
  <outline>
    <contour>
      <point x="1546" y="1260" type="curve"/>
      <point x="1525" y="1371"/>
      <point x="1392" y="1514"/>
      <point x="1194" y="1514" type="curve" smooth="yes"/>
      <point x="816" y="1514"/>
      <point x="578" y="923"/>
      <point x="578" y="450" type="curve" smooth="yes"/>
      <point x="578" y="222"/>
      <point x="652" y="-10"/>
      <point x="850" y="-10" type="curve" smooth="yes"/>
      <point x="1052" y="-10"/>
      <point x="1271" y="162"/>
      <point x="1342" y="356" type="curve"/>
      <point x="1346" y="356" type="line"/>
      <point x="1274" y="162"/>
      <point x="1058" y="-20"/>
      <point x="816" y="-20" type="curve" smooth="yes"/>
      <point x="564" y="-20"/>
      <point x="299" y="145"/>
      <point x="299" y="550" type="curve" smooth="yes"/>
      <point x="299" y="1085"/>
      <point x="711" y="1520"/>
      <point x="1173" y="1520" type="curve" smooth="yes"/>
      <point x="1417" y="1520"/>
      <point x="1555" y="1336"/>
      <point x="1555" y="1217" type="curve" smooth="yes"/>
      <point x="1555" y="1120"/>
      <point x="1487" y="1068"/>
      <point x="1417" y="1068" type="curve" smooth="yes"/>
      <point x="1357" y="1068"/>
      <point x="1277" y="1110"/>
      <point x="1277" y="1205" type="curve" smooth="yes"/>
      <point x="1277" y="1290"/>
      <point x="1357" y="1340"/>
      <point x="1425" y="1340" type="curve" smooth="yes"/>
      <point x="1487" y="1340"/>
      <point x="1531" y="1292"/>
    </contour>
    <component base="equal" xOffset="-60" yOffset="-140"/>
  </outline>
</glyph>
<glyph name="uni2116" format="2">
  <advance width="2231"/>
  <unicode hex="2116"/>
  <outline>
    <contour>
      <point x="1638" y="632" type="line"/>
      <point x="2133" y="632" type="line"/>
      <point x="2131" y="628" type="line"/>
      <point x="1636" y="628" type="line"/>
    </contour>
    <contour>
      <point x="2087" y="1520" type="curve" smooth="yes"/>
      <point x="2258" y="1520"/>
      <point x="2368" y="1428"/>
      <point x="2368" y="1257" type="curve" smooth="yes"/>
      <point x="2368" y="949"/>
      <point x="2142" y="760"/>
      <point x="1913" y="760" type="curve" smooth="yes"/>
      <point x="1742" y="760"/>
      <point x="1633" y="851"/>
      <point x="1633" y="1022" type="curve" smooth="yes"/>
      <point x="1633" y="1330"/>
      <point x="1858" y="1520"/>
    </contour>
    <contour>
      <point x="1818" y="936" type="curve" smooth="yes"/>
      <point x="1818" y="807"/>
      <point x="1852" y="764"/>
      <point x="1921" y="764" type="curve" smooth="yes"/>
      <point x="2056" y="764"/>
      <point x="2183" y="1103"/>
      <point x="2183" y="1344" type="curve" smooth="yes"/>
      <point x="2183" y="1473"/>
      <point x="2148" y="1516"/>
      <point x="2079" y="1516" type="curve" smooth="yes"/>
      <point x="1944" y="1516"/>
      <point x="1818" y="1177"/>
    </contour>
    <component base="N" xOffset="52"/>
  </outline>
</glyph>
<glyph name="uniFB00" format="1">
  <advance width="2745"/>
  <unicode hex="FB00"/>
  <outline>
    <contour>
      <point x="247" y="1884" type="line"/>
      <point x="2858" y="1884" type="line"/>
      <point x="2858" y="1876" type="line"/>
      <point x="247" y="1876" type="line"/>
    </contour>
    <contour>
      <point x="3378" y="2761" type="curve"/>
      <point x="3350" y="2913"/>
      <point x="3180" y="3102"/>
      <point x="2897" y="3102" type="curve" smooth="yes"/>
      <point x="2611" y="3102"/>
      <point x="2415" y="2712"/>
      <point x="2326" y="2212" type="curve" smooth="yes"/>
      <point x="1961" y="156" type="line" smooth="yes"/>
      <point x="1856" y="-430"/>
      <point x="1458" y="-860"/>
      <point x="894" y="-860" type="curve" smooth="yes"/>
      <point x="501" y="-860"/>
      <point x="335" y="-616"/>
      <point x="335" y="-424" type="curve" smooth="yes"/>
      <point x="335" y="-236"/>
      <point x="456" y="-128"/>
      <point x="609" y="-128" type="curve" smooth="yes"/>
      <point x="742" y="-128"/>
      <point x="889" y="-207"/>
      <point x="889" y="-391" type="curve" smooth="yes"/>
      <point x="889" y="-575"/>
      <point x="751" y="-665"/>
      <point x="602" y="-665" type="curve" smooth="yes"/>
      <point x="494" y="-665"/>
      <point x="390" y="-598"/>
      <point x="358" y="-509" type="curve"/>
      <point x="386" y="-661"/>
      <point x="557" y="-850"/>
      <point x="871" y="-850" type="curve" smooth="yes"/>
      <point x="1189" y="-850"/>
      <point x="1382" y="-460"/>
      <point x="1471" y="40" type="curve" smooth="yes"/>
      <point x="1836" y="2098" type="line" smooth="yes"/>
      <point x="1941" y="2684"/>
      <point x="2342" y="3112"/>
      <point x="2874" y="3112" type="curve" smooth="yes"/>
      <point x="3237" y="3112"/>
      <point x="3401" y="2869"/>
      <point x="3401" y="2677" type="curve" smooth="yes"/>
      <point x="3401" y="2489"/>
      <point x="3282" y="2382"/>
      <point x="3129" y="2382" type="curve" smooth="yes"/>
      <point x="2996" y="2382"/>
      <point x="2847" y="2460"/>
      <point x="2847" y="2644" type="curve" smooth="yes"/>
      <point x="2847" y="2828"/>
      <point x="2986" y="2917"/>
      <point x="3135" y="2917" type="curve" smooth="yes"/>
      <point x="3242" y="2917"/>
      <point x="3345" y="2848"/>
    </contour>
    <contour>
      <point x="2188" y="2557" type="curve"/>
      <point x="2160" y="2709"/>
      <point x="1990" y="2898"/>
      <point x="1676" y="2898" type="curve" smooth="yes"/>
      <point x="1358" y="2898"/>
      <point x="1164" y="2508"/>
      <point x="1075" y="2008" type="curve" smooth="yes"/>
      <point x="710" y="-50" type="line" smooth="yes"/>
      <point x="605" y="-636"/>
      <point x="205" y="-1064"/>
      <point x="-327" y="-1064" type="curve" smooth="yes"/>
      <point x="-690" y="-1064"/>
      <point x="-855" y="-821"/>
      <point x="-855" y="-629" type="curve" smooth="yes"/>
      <point x="-855" y="-441"/>
      <point x="-734" y="-334"/>
      <point x="-581" y="-334" type="curve" smooth="yes"/>
      <point x="-448" y="-334"/>
      <point x="-300" y="-412"/>
      <point x="-300" y="-596" type="curve" smooth="yes"/>
      <point x="-300" y="-780"/>
      <point x="-439" y="-869"/>
      <point x="-588" y="-869" type="curve" smooth="yes"/>
      <point x="-696" y="-869"/>
      <point x="-800" y="-802"/>
      <point x="-832" y="-713" type="curve"/>
      <point x="-804" y="-865"/>
      <point x="-634" y="-1054"/>
      <point x="-351" y="-1054" type="curve" smooth="yes"/>
      <point x="-65" y="-1054"/>
      <point x="131" y="-664"/>
      <point x="220" y="-164" type="curve" smooth="yes"/>
      <point x="585" y="1892" type="line" smooth="yes"/>
      <point x="690" y="2478"/>
      <point x="1088" y="2908"/>
      <point x="1652" y="2908" type="curve" smooth="yes"/>
      <point x="2045" y="2908"/>
      <point x="2212" y="2664"/>
      <point x="2212" y="2472" type="curve" smooth="yes"/>
      <point x="2212" y="2284"/>
      <point x="2092" y="2176"/>
      <point x="1939" y="2176" type="curve" smooth="yes"/>
      <point x="1806" y="2176"/>
      <point x="1657" y="2255"/>
      <point x="1657" y="2439" type="curve" smooth="yes"/>
      <point x="1657" y="2623"/>
      <point x="1796" y="2713"/>
      <point x="1945" y="2713" type="curve" smooth="yes"/>
      <point x="2052" y="2713"/>
      <point x="2155" y="2644"/>
    </contour>
  </outline>
</glyph>
<glyph name="uniFB01" format="2">
  <advance width="1280"/>
  <unicode hex="FB01"/>
  <outline>
    <contour>
      <point x="1242" y="326" type="line"/>
      <point x="1166" y="126"/>
      <point x="1037" y="-20"/>
      <point x="860" y="-20" type="curve" smooth="yes"/>
      <point x="751" y="-20"/>
      <point x="696" y="26"/>
      <point x="696" y="136" type="curve" smooth="yes"/>
      <point x="696" y="146"/>
      <point x="698" y="168"/>
      <point x="700" y="180" type="curve" smooth="yes"/>
      <point x="871" y="916" type="line"/>
      <point x="123" y="916" type="line"/>
      <point x="123" y="920" type="line"/>
      <point x="1103" y="920" type="line"/>
      <point x="903" y="82" type="line" smooth="yes"/>
      <point x="901" y="70"/>
      <point x="899" y="56"/>
      <point x="899" y="46" type="curve" smooth="yes"/>
      <point x="899" y="24"/>
      <point x="909" y="5"/>
      <point x="935" y="5" type="curve" smooth="yes"/>
      <point x="1048" y="5"/>
      <point x="1168" y="138"/>
      <point x="1239" y="328" type="curve"/>
    </contour>
    <contour>
      <point x="1146" y="1348" type="curve"/>
      <point x="1129" y="1428"/>
      <point x="1042" y="1515"/>
      <point x="874" y="1515" type="curve" smooth="yes"/>
      <point x="694" y="1515"/>
      <point x="590" y="1329"/>
      <point x="546" y="1080" type="curve" smooth="yes"/>
      <point x="347" y="-24" type="line" smooth="yes"/>
      <point x="296" y="-310"/>
      <point x="100" y="-520"/>
      <point x="-160" y="-520" type="curve" smooth="yes"/>
      <point x="-337" y="-520"/>
      <point x="-417" y="-401"/>
      <point x="-417" y="-307" type="curve" smooth="yes"/>
      <point x="-417" y="-215"/>
      <point x="-359" y="-163"/>
      <point x="-284" y="-163" type="curve" smooth="yes"/>
      <point x="-219" y="-163"/>
      <point x="-146" y="-201"/>
      <point x="-146" y="-291" type="curve" smooth="yes"/>
      <point x="-146" y="-381"/>
      <point x="-214" y="-424"/>
      <point x="-287" y="-424" type="curve" smooth="yes"/>
      <point x="-340" y="-424"/>
      <point x="-390" y="-391"/>
      <point x="-406" y="-348" type="curve"/>
      <point x="-392" y="-422"/>
      <point x="-309" y="-515"/>
      <point x="-171" y="-515" type="curve" smooth="yes"/>
      <point x="-31" y="-515"/>
      <point x="64" y="-324"/>
      <point x="107" y="-80" type="curve" smooth="yes"/>
      <point x="307" y="1024" type="line" smooth="yes"/>
      <point x="358" y="1310"/>
      <point x="563" y="1520"/>
      <point x="863" y="1520" type="curve" smooth="yes"/>
      <point x="1073" y="1520"/>
      <point x="1156" y="1406"/>
      <point x="1156" y="1307" type="curve" smooth="yes"/>
      <point x="1156" y="1215"/>
      <point x="1097" y="1163"/>
      <point x="1022" y="1163" type="curve" smooth="yes"/>
      <point x="957" y="1163"/>
      <point x="885" y="1201"/>
      <point x="885" y="1291" type="curve" smooth="yes"/>
      <point x="885" y="1381"/>
      <point x="952" y="1424"/>
      <point x="1025" y="1424" type="curve" smooth="yes"/>
      <point x="1077" y="1424"/>
      <point x="1130" y="1390"/>
    </contour>
  </outline>
</glyph>
<glyph name="uniFB02" format="1">
  <advance width="2759"/>
  <unicode hex="FB02"/>
  <outline>
    <contour>
      <point x="2679" y="668" type="line"/>
      <point x="2523" y="258"/>
      <point x="2261" y="-40"/>
      <point x="1898" y="-40" type="curve" smooth="yes"/>
      <point x="1675" y="-40"/>
      <point x="1562" y="53"/>
      <point x="1562" y="278" type="curve" smooth="yes"/>
      <point x="1562" y="298"/>
      <point x="1566" y="344"/>
      <point x="1570" y="368" type="curve" smooth="yes"/>
      <point x="2171" y="2990" type="line"/>
      <point x="2679" y="3154" type="line"/>
      <point x="1986" y="168" type="line" smooth="yes"/>
      <point x="1982" y="144"/>
      <point x="1977" y="114"/>
      <point x="1977" y="94" type="curve" smooth="yes"/>
      <point x="1977" y="48"/>
      <point x="1996" y="11"/>
      <point x="2050" y="11" type="curve" smooth="yes"/>
      <point x="2286" y="11"/>
      <point x="2538" y="304"/>
      <point x="2675" y="672" type="curve"/>
    </contour>
    <contour>
      <point x="247" y="1884" type="line"/>
      <point x="1651" y="1884" type="line"/>
      <point x="1651" y="1876" type="line"/>
      <point x="247" y="1876" type="line"/>
    </contour>
    <contour>
      <point x="2316" y="2677" type="curve" smooth="yes"/>
      <point x="2316" y="2489"/>
      <point x="2197" y="2382"/>
      <point x="2044" y="2382" type="curve" smooth="yes"/>
      <point x="1911" y="2382"/>
      <point x="1762" y="2460"/>
      <point x="1762" y="2644" type="curve" smooth="yes"/>
      <point x="1762" y="2828"/>
      <point x="1901" y="2917"/>
      <point x="2050" y="2917" type="curve" smooth="yes"/>
      <point x="2158" y="2917"/>
      <point x="2261" y="2848"/>
      <point x="2293" y="2761" type="curve"/>
      <point x="2265" y="2913"/>
      <point x="2126" y="3102"/>
      <point x="1812" y="3102" type="curve" smooth="yes"/>
      <point x="1474" y="3102"/>
      <point x="1208" y="2712"/>
      <point x="1119" y="2212" type="curve" smooth="yes"/>
      <point x="710" y="-50" type="line" smooth="yes"/>
      <point x="605" y="-636"/>
      <point x="205" y="-1064"/>
      <point x="-327" y="-1064" type="curve" smooth="yes"/>
      <point x="-690" y="-1064"/>
      <point x="-855" y="-821"/>
      <point x="-855" y="-629" type="curve" smooth="yes"/>
      <point x="-855" y="-441"/>
      <point x="-734" y="-334"/>
      <point x="-581" y="-334" type="curve" smooth="yes"/>
      <point x="-448" y="-334"/>
      <point x="-300" y="-412"/>
      <point x="-300" y="-596" type="curve" smooth="yes"/>
      <point x="-300" y="-780"/>
      <point x="-439" y="-869"/>
      <point x="-588" y="-869" type="curve" smooth="yes"/>
      <point x="-696" y="-869"/>
      <point x="-800" y="-802"/>
      <point x="-832" y="-713" type="curve"/>
      <point x="-804" y="-865"/>
      <point x="-634" y="-1054"/>
      <point x="-351" y="-1054" type="curve" smooth="yes"/>
      <point x="-65" y="-1054"/>
      <point x="131" y="-664"/>
      <point x="220" y="-164" type="curve" smooth="yes"/>
      <point x="629" y="2098" type="line" smooth="yes"/>
      <point x="734" y="2684"/>
      <point x="1204" y="3112"/>
      <point x="1788" y="3112" type="curve" smooth="yes"/>
      <point x="2170" y="3112"/>
      <point x="2316" y="2885"/>
    </contour>
  </outline>
</glyph>
<glyph name="uniFB03" format="1">
  <advance width="3831"/>
  <unicode hex="FB03"/>
  <outline>
    <contour>
      <point x="3751" y="668" type="line"/>
      <point x="3595" y="258"/>
      <point x="3333" y="-40"/>
      <point x="2970" y="-40" type="curve" smooth="yes"/>
      <point x="2747" y="-40"/>
      <point x="2634" y="53"/>
      <point x="2634" y="278" type="curve" smooth="yes"/>
      <point x="2634" y="298"/>
      <point x="2637" y="344"/>
      <point x="2642" y="368" type="curve" smooth="yes"/>
      <point x="2992" y="1876" type="line"/>
      <point x="247" y="1876" type="line"/>
      <point x="247" y="1884" type="line"/>
      <point x="3466" y="1884" type="line"/>
      <point x="3058" y="168" type="line" smooth="yes"/>
      <point x="3054" y="144"/>
      <point x="3050" y="114"/>
      <point x="3050" y="94" type="curve" smooth="yes"/>
      <point x="3050" y="48"/>
      <point x="3070" y="11"/>
      <point x="3124" y="11" type="curve" smooth="yes"/>
      <point x="3356" y="11"/>
      <point x="3601" y="282"/>
      <point x="3747" y="672" type="curve"/>
    </contour>
    <contour>
      <point x="3576" y="2677" type="curve" smooth="yes"/>
      <point x="3576" y="2489"/>
      <point x="3455" y="2382"/>
      <point x="3302" y="2382" type="curve" smooth="yes"/>
      <point x="3169" y="2382"/>
      <point x="3021" y="2460"/>
      <point x="3021" y="2644" type="curve" smooth="yes"/>
      <point x="3021" y="2828"/>
      <point x="3160" y="2917"/>
      <point x="3309" y="2917" type="curve" smooth="yes"/>
      <point x="3417" y="2917"/>
      <point x="3522" y="2848"/>
      <point x="3554" y="2761" type="curve"/>
      <point x="3520" y="2924"/>
      <point x="3344" y="3102"/>
      <point x="3000" y="3102" type="curve" smooth="yes"/>
      <point x="2632" y="3102"/>
      <point x="2417" y="2722"/>
      <point x="2326" y="2212" type="curve" smooth="yes"/>
      <point x="1961" y="156" type="line" smooth="yes"/>
      <point x="1856" y="-430"/>
      <point x="1458" y="-860"/>
      <point x="894" y="-860" type="curve" smooth="yes"/>
      <point x="501" y="-860"/>
      <point x="336" y="-616"/>
      <point x="336" y="-424" type="curve" smooth="yes"/>
      <point x="336" y="-236"/>
      <point x="457" y="-128"/>
      <point x="610" y="-128" type="curve" smooth="yes"/>
      <point x="743" y="-128"/>
      <point x="890" y="-207"/>
      <point x="890" y="-391" type="curve" smooth="yes"/>
      <point x="890" y="-575"/>
      <point x="751" y="-665"/>
      <point x="602" y="-665" type="curve" smooth="yes"/>
      <point x="494" y="-665"/>
      <point x="391" y="-598"/>
      <point x="359" y="-509" type="curve"/>
      <point x="387" y="-661"/>
      <point x="558" y="-850"/>
      <point x="872" y="-850" type="curve" smooth="yes"/>
      <point x="1190" y="-850"/>
      <point x="1383" y="-460"/>
      <point x="1472" y="40" type="curve" smooth="yes"/>
      <point x="1836" y="2098" type="line" smooth="yes"/>
      <point x="1941" y="2684"/>
      <point x="2362" y="3112"/>
      <point x="2976" y="3112" type="curve" smooth="yes"/>
      <point x="3392" y="3112"/>
      <point x="3576" y="2899"/>
    </contour>
    <contour>
      <point x="2188" y="2557" type="curve"/>
      <point x="2160" y="2709"/>
      <point x="1990" y="2898"/>
      <point x="1676" y="2898" type="curve" smooth="yes"/>
      <point x="1358" y="2898"/>
      <point x="1164" y="2508"/>
      <point x="1075" y="2008" type="curve" smooth="yes"/>
      <point x="710" y="-50" type="line" smooth="yes"/>
      <point x="605" y="-636"/>
      <point x="205" y="-1064"/>
      <point x="-327" y="-1064" type="curve" smooth="yes"/>
      <point x="-690" y="-1064"/>
      <point x="-855" y="-821"/>
      <point x="-855" y="-629" type="curve" smooth="yes"/>
      <point x="-855" y="-441"/>
      <point x="-734" y="-334"/>
      <point x="-581" y="-334" type="curve" smooth="yes"/>
      <point x="-448" y="-334"/>
      <point x="-300" y="-412"/>
      <point x="-300" y="-596" type="curve" smooth="yes"/>
      <point x="-300" y="-780"/>
      <point x="-439" y="-869"/>
      <point x="-588" y="-869" type="curve" smooth="yes"/>
      <point x="-696" y="-869"/>
      <point x="-800" y="-802"/>
      <point x="-832" y="-713" type="curve"/>
      <point x="-804" y="-865"/>
      <point x="-634" y="-1054"/>
      <point x="-351" y="-1054" type="curve" smooth="yes"/>
      <point x="-65" y="-1054"/>
      <point x="131" y="-664"/>
      <point x="220" y="-164" type="curve" smooth="yes"/>
      <point x="585" y="1892" type="line" smooth="yes"/>
      <point x="690" y="2478"/>
      <point x="1088" y="2908"/>
      <point x="1652" y="2908" type="curve" smooth="yes"/>
      <point x="2045" y="2908"/>
      <point x="2212" y="2664"/>
      <point x="2212" y="2472" type="curve" smooth="yes"/>
      <point x="2212" y="2284"/>
      <point x="2092" y="2176"/>
      <point x="1939" y="2176" type="curve" smooth="yes"/>
      <point x="1806" y="2176"/>
      <point x="1657" y="2255"/>
      <point x="1657" y="2439" type="curve" smooth="yes"/>
      <point x="1657" y="2623"/>
      <point x="1796" y="2713"/>
      <point x="1945" y="2713" type="curve" smooth="yes"/>
      <point x="2053" y="2713"/>
      <point x="2156" y="2644"/>
    </contour>
  </outline>
</glyph>
<glyph name="uniFB04" format="2">
  <advance width="3968"/>
  <unicode hex="FB04"/>
  <outline>
    <contour>
      <point x="3887" y="668" type="line"/>
      <point x="3731" y="258"/>
      <point x="3470" y="-40"/>
      <point x="3107" y="-40" type="curve" smooth="yes"/>
      <point x="2884" y="-40"/>
      <point x="2770" y="53"/>
      <point x="2770" y="278" type="curve" smooth="yes"/>
      <point x="2770" y="298"/>
      <point x="2774" y="344"/>
      <point x="2778" y="368" type="curve" smooth="yes"/>
      <point x="3378" y="2990" type="line"/>
      <point x="3887" y="3154" type="line"/>
      <point x="3194" y="168" type="line" smooth="yes"/>
      <point x="3190" y="144"/>
      <point x="3186" y="114"/>
      <point x="3186" y="94" type="curve" smooth="yes"/>
      <point x="3186" y="48"/>
      <point x="3206" y="11"/>
      <point x="3260" y="11" type="curve" smooth="yes"/>
      <point x="3496" y="11"/>
      <point x="3746" y="304"/>
      <point x="3883" y="672" type="curve"/>
    </contour>
    <contour>
      <point x="247" y="1884" type="line"/>
      <point x="2858" y="1884" type="line"/>
      <point x="2858" y="1876" type="line"/>
      <point x="247" y="1876" type="line"/>
    </contour>
    <contour>
      <point x="3500" y="2761" type="curve"/>
      <point x="3472" y="2913"/>
      <point x="3334" y="3102"/>
      <point x="3020" y="3102" type="curve" smooth="yes"/>
      <point x="2682" y="3102"/>
      <point x="2415" y="2712"/>
      <point x="2326" y="2212" type="curve" smooth="yes"/>
      <point x="1961" y="156" type="line" smooth="yes"/>
      <point x="1856" y="-430"/>
      <point x="1473" y="-860"/>
      <point x="909" y="-860" type="curve" smooth="yes"/>
      <point x="516" y="-860"/>
      <point x="350" y="-616"/>
      <point x="350" y="-424" type="curve" smooth="yes"/>
      <point x="350" y="-236"/>
      <point x="471" y="-128"/>
      <point x="624" y="-128" type="curve" smooth="yes"/>
      <point x="757" y="-128"/>
      <point x="906" y="-207"/>
      <point x="906" y="-391" type="curve" smooth="yes"/>
      <point x="906" y="-575"/>
      <point x="767" y="-665"/>
      <point x="618" y="-665" type="curve" smooth="yes"/>
      <point x="510" y="-665"/>
      <point x="405" y="-598"/>
      <point x="373" y="-509" type="curve"/>
      <point x="401" y="-661"/>
      <point x="572" y="-850"/>
      <point x="886" y="-850" type="curve" smooth="yes"/>
      <point x="1204" y="-850"/>
      <point x="1397" y="-460"/>
      <point x="1486" y="40" type="curve" smooth="yes"/>
      <point x="1836" y="2098" type="line" smooth="yes"/>
      <point x="1941" y="2684"/>
      <point x="2412" y="3112"/>
      <point x="2996" y="3112" type="curve" smooth="yes"/>
      <point x="3389" y="3112"/>
      <point x="3525" y="2869"/>
      <point x="3525" y="2677" type="curve" smooth="yes"/>
      <point x="3525" y="2489"/>
      <point x="3404" y="2382"/>
      <point x="3251" y="2382" type="curve" smooth="yes"/>
      <point x="3118" y="2382"/>
      <point x="2969" y="2460"/>
      <point x="2969" y="2644" type="curve" smooth="yes"/>
      <point x="2969" y="2828"/>
      <point x="3108" y="2917"/>
      <point x="3257" y="2917" type="curve" smooth="yes"/>
      <point x="3364" y="2917"/>
      <point x="3467" y="2848"/>
    </contour>
    <contour>
      <point x="2188" y="2557" type="curve"/>
      <point x="2160" y="2709"/>
      <point x="1990" y="2898"/>
      <point x="1676" y="2898" type="curve" smooth="yes"/>
      <point x="1358" y="2898"/>
      <point x="1164" y="2508"/>
      <point x="1075" y="2008" type="curve" smooth="yes"/>
      <point x="710" y="-50" type="line" smooth="yes"/>
      <point x="605" y="-636"/>
      <point x="205" y="-1064"/>
      <point x="-327" y="-1064" type="curve" smooth="yes"/>
      <point x="-690" y="-1064"/>
      <point x="-855" y="-821"/>
      <point x="-855" y="-629" type="curve" smooth="yes"/>
      <point x="-855" y="-441"/>
      <point x="-734" y="-334"/>
      <point x="-581" y="-334" type="curve" smooth="yes"/>
      <point x="-448" y="-334"/>
      <point x="-300" y="-412"/>
      <point x="-300" y="-596" type="curve" smooth="yes"/>
      <point x="-300" y="-780"/>
      <point x="-439" y="-869"/>
      <point x="-588" y="-869" type="curve" smooth="yes"/>
      <point x="-696" y="-869"/>
      <point x="-800" y="-802"/>
      <point x="-832" y="-713" type="curve"/>
      <point x="-804" y="-865"/>
      <point x="-634" y="-1054"/>
      <point x="-351" y="-1054" type="curve" smooth="yes"/>
      <point x="-65" y="-1054"/>
      <point x="131" y="-664"/>
      <point x="220" y="-164" type="curve" smooth="yes"/>
      <point x="585" y="1892" type="line" smooth="yes"/>
      <point x="690" y="2478"/>
      <point x="1088" y="2908"/>
      <point x="1652" y="2908" type="curve" smooth="yes"/>
      <point x="2045" y="2908"/>
      <point x="2212" y="2664"/>
      <point x="2212" y="2472" type="curve" smooth="yes"/>
      <point x="2212" y="2284"/>
      <point x="2092" y="2176"/>
      <point x="1939" y="2176" type="curve" smooth="yes"/>
      <point x="1806" y="2176"/>
      <point x="1657" y="2255"/>
      <point x="1657" y="2439" type="curve" smooth="yes"/>
      <point x="1657" y="2623"/>
      <point x="1796" y="2713"/>
      <point x="1945" y="2713" type="curve" smooth="yes"/>
      <point x="2052" y="2713"/>
      <point x="2155" y="2644"/>
    </contour>
  </outline>
</glyph>
<glyph name="J.alt" format="1">
  <advance width="2383"/>
  <outline>
    <contour>
      <point x="1438" y="3072" type="line"/>
      <point x="2856" y="3072" type="line"/>
      <point x="2856" y="3064" type="line"/>
      <point x="1438" y="3064" type="line"/>
    </contour>
    <contour>
      <point x="1930" y="3072" type="line"/>
      <point x="2446" y="3072" type="line"/>
      <point x="1996" y="1146" type="line" smooth="yes"/>
      <point x="1848" y="524"/>
      <point x="1340" y="-40"/>
      <point x="680" y="-40" type="curve" smooth="yes"/>
      <point x="242" y="-40"/>
      <point x="20" y="264"/>
      <point x="20" y="602" type="curve" smooth="yes"/>
      <point x="20" y="917"/>
      <point x="193" y="1086"/>
      <point x="398" y="1086" type="curve" smooth="yes"/>
      <point x="583" y="1086"/>
      <point x="729" y="980"/>
      <point x="729" y="761" type="curve" smooth="yes"/>
      <point x="729" y="587"/>
      <point x="588" y="442"/>
      <point x="377" y="442" type="curve" smooth="yes"/>
      <point x="204" y="442"/>
      <point x="70" y="556"/>
      <point x="34" y="660" type="curve"/>
      <point x="4" y="286"/>
      <point x="248" y="-32"/>
      <point x="680" y="-32" type="curve" smooth="yes"/>
      <point x="1176" y="-32"/>
      <point x="1360" y="476"/>
      <point x="1479" y="1024" type="curve" smooth="yes"/>
    </contour>
  </outline>
</glyph>
<glyph name="R.alt" format="2">
  <advance width="1439"/>
  <outline>
    <contour>
      <point x="1288" y="0" type="line"/>
      <point x="1256" y="0"/>
      <point x="1210" y="0"/>
      <point x="1138" y="0" type="curve" smooth="yes"/>
      <point x="642" y="0"/>
      <point x="1155" y="768"/>
      <point x="683" y="768" type="curve" smooth="yes"/>
      <point x="482" y="768" type="line"/>
      <point x="482" y="772" type="line"/>
      <point x="748" y="772" type="line" smooth="yes"/>
      <point x="1430" y="772"/>
      <point x="1001" y="4"/>
      <point x="1237" y="4" type="curve" smooth="yes"/>
      <point x="1259" y="4"/>
      <point x="1288" y="4"/>
      <point x="1288" y="4" type="curve"/>
    </contour>
    <contour>
      <point x="467" y="1500" type="line"/>
      <point x="718" y="1500" type="line"/>
      <point x="367" y="0" type="line"/>
      <point x="118" y="0" type="line"/>
    </contour>
    <contour>
      <point x="-78" y="4" type="line"/>
      <point x="588" y="4" type="line"/>
      <point x="588" y="0" type="line"/>
      <point x="-78" y="0" type="line"/>
    </contour>
    <contour>
      <point x="757" y="768" type="curve" smooth="yes"/>
      <point x="482" y="768" type="line"/>
      <point x="482" y="772" type="line"/>
      <point x="732" y="772" type="line" smooth="yes"/>
      <point x="1009" y="772"/>
      <point x="1130" y="1047"/>
      <point x="1130" y="1235" type="curve" smooth="yes"/>
      <point x="1130" y="1333"/>
      <point x="1104" y="1496"/>
      <point x="922" y="1496" type="curve" smooth="yes"/>
      <point x="252" y="1496" type="line"/>
      <point x="252" y="1500" type="line"/>
      <point x="958" y="1500" type="line" smooth="yes"/>
      <point x="1220" y="1500"/>
      <point x="1402" y="1420"/>
      <point x="1402" y="1200" type="curve" smooth="yes"/>
      <point x="1402" y="920"/>
      <point x="1159" y="768"/>
    </contour>
  </outline>
</glyph>
<glyph name="fj.lig" format="2">
  <advance width="1189"/>
  <outline>
    <contour>
      <point x="710" y="50" type="curve" smooth="yes"/>
      <point x="880" y="915" type="line"/>
      <point x="121" y="916" type="line"/>
      <point x="121" y="920" type="line"/>
      <point x="1106" y="920" type="line"/>
      <point x="945" y="76" type="line" smooth="yes"/>
      <point x="898" y="-175"/>
      <point x="705" y="-420"/>
      <point x="430" y="-420" type="curve" smooth="yes"/>
      <point x="248" y="-420"/>
      <point x="159" y="-306"/>
      <point x="159" y="-209" type="curve" smooth="yes"/>
      <point x="159" y="-117"/>
      <point x="226" y="-62"/>
      <point x="301" y="-62" type="curve" smooth="yes"/>
      <point x="366" y="-62"/>
      <point x="435" y="-105"/>
      <point x="435" y="-188" type="curve" smooth="yes"/>
      <point x="435" y="-276"/>
      <point x="363" y="-324"/>
      <point x="293" y="-324" type="curve" smooth="yes"/>
      <point x="227" y="-324"/>
      <point x="182" y="-279"/>
      <point x="173" y="-248" type="curve"/>
      <point x="188" y="-326"/>
      <point x="274" y="-416"/>
      <point x="428" y="-416" type="curve" smooth="yes"/>
      <point x="598" y="-416"/>
      <point x="662" y="-192"/>
    </contour>
    <contour>
      <point x="1149" y="1343" type="curve"/>
      <point x="1131" y="1427"/>
      <point x="1048" y="1515"/>
      <point x="874" y="1515" type="curve" smooth="yes"/>
      <point x="699" y="1515"/>
      <point x="589" y="1324"/>
      <point x="546" y="1080" type="curve" smooth="yes"/>
      <point x="347" y="-24" type="line" smooth="yes"/>
      <point x="296" y="-309"/>
      <point x="108" y="-520"/>
      <point x="-152" y="-520" type="curve" smooth="yes"/>
      <point x="-329" y="-520"/>
      <point x="-410" y="-401"/>
      <point x="-410" y="-307" type="curve" smooth="yes"/>
      <point x="-410" y="-215"/>
      <point x="-351" y="-163"/>
      <point x="-276" y="-163" type="curve" smooth="yes"/>
      <point x="-211" y="-163"/>
      <point x="-139" y="-201"/>
      <point x="-139" y="-291" type="curve" smooth="yes"/>
      <point x="-139" y="-381"/>
      <point x="-209" y="-424"/>
      <point x="-282" y="-424" type="curve" smooth="yes"/>
      <point x="-352" y="-424"/>
      <point x="-393" y="-367"/>
      <point x="-402" y="-343" type="curve"/>
      <point x="-388" y="-414"/>
      <point x="-315" y="-514"/>
      <point x="-163" y="-514" type="curve" smooth="yes"/>
      <point x="-23" y="-514"/>
      <point x="73" y="-324"/>
      <point x="115" y="-80" type="curve" smooth="yes"/>
      <point x="307" y="1024" type="line" smooth="yes"/>
      <point x="357" y="1310"/>
      <point x="563" y="1520"/>
      <point x="863" y="1520" type="curve" smooth="yes"/>
      <point x="1080" y="1520"/>
      <point x="1156" y="1401"/>
      <point x="1156" y="1307" type="curve" smooth="yes"/>
      <point x="1156" y="1215"/>
      <point x="1097" y="1163"/>
      <point x="1022" y="1163" type="curve" smooth="yes"/>
      <point x="957" y="1163"/>
      <point x="885" y="1201"/>
      <point x="885" y="1291" type="curve" smooth="yes"/>
      <point x="885" y="1381"/>
      <point x="955" y="1424"/>
      <point x="1028" y="1424" type="curve" smooth="yes"/>
      <point x="1096" y="1424"/>
      <point x="1136" y="1374"/>
    </contour>
  </outline>
</glyph>
